STARTFONT 2.1
COMMENT
COMMENT Converted from OpenType font "Vollda-Bold.otf" by "otf2bdf 3.0".
COMMENT
FONT -FreeType-Vollda-Bold-R-Normal--44-320-100-100-P-243-ISO10646-1
SIZE 32 100 100
FONTBOUNDINGBOX 142 61 -8 -13
STARTPROPERTIES 19
FOUNDRY "FreeType"
FAMILY_NAME "Vollda"
WEIGHT_NAME "Bold"
SLANT "R"
SETWIDTH_NAME "Normal"
ADD_STYLE_NAME ""
PIXEL_SIZE 44
POINT_SIZE 320
RESOLUTION_X 100
RESOLUTION_Y 100
SPACING "P"
AVERAGE_WIDTH 243
CHARSET_REGISTRY "ISO10646"
CHARSET_ENCODING "1"
FONT_ASCENT 41
FONT_DESCENT 19
COPYRIGHT "Copyright 2023 Vollda (https://github.com/alexburba/vollda)"
_OTF_FONTFILE "Vollda-Bold.otf"
_OTF_PSNAME "Vollda-Bold"
ENDPROPERTIES
CHARS 1220
STARTCHAR 0000
ENCODING 0
SWIDTH 0 0
DWIDTH 0 0
BBX 0 0 0 0
BITMAP
ENDCHAR
STARTCHAR 000D
ENCODING 13
SWIDTH 180 0
DWIDTH 8 0
BBX 0 0 0 0
BITMAP
ENDCHAR
STARTCHAR 0020
ENCODING 32
SWIDTH 180 0
DWIDTH 8 0
BBX 0 0 0 0
BITMAP
ENDCHAR
STARTCHAR 0021
ENCODING 33
SWIDTH 405 0
DWIDTH 18 0
BBX 8 32 5 0
BITMAP
02
3F
FF
7E
7E
7E
7E
7E
7E
7E
3E
3E
3E
3C
3C
3C
3C
3C
3C
3C
3C
00
00
00
00
08
7E
7F
7F
7F
7E
3E
ENDCHAR
STARTCHAR 0022
ENCODING 34
SWIDTH 360 0
DWIDTH 16 0
BBX 11 12 3 20
BITMAP
1060
F1E0
F1E0
F1E0
F1E0
F1E0
F1E0
F1E0
71C0
61C0
61C0
60C0
ENDCHAR
STARTCHAR 0023
ENCODING 35
SWIDTH 607 0
DWIDTH 27 0
BBX 25 32 1 0
BITMAP
00601800
00701C00
00701C00
00701C00
00703800
00E03800
00E03800
00E03800
00E03800
1FFFFF80
1FFFFF80
3FFFFF80
3FFFFF00
01C07000
01C0E000
0380E000
0380E000
0380E000
0380E000
0381C000
FFFFFE00
FFFFFE00
FFFFFE00
0701C000
07038000
0F038000
0E038000
0E038000
0E038000
0E070000
1E070000
0C070000
ENDCHAR
STARTCHAR 0024
ENCODING 36
SWIDTH 540 0
DWIDTH 24 0
BBX 21 37 2 -4
BITMAP
007000
007000
007000
03FF80
0FFFE0
1FFFE0
3E77E0
7C73E0
7C71E0
7C71E0
7C71E0
7E7100
7F7000
7FF000
7FF000
3FFC00
3FFF00
1FFFC0
0FFFE0
03FFF0
00FFF0
007FF8
007FF8
1877F8
7871F8
7871F8
7871F8
F871F8
FC71F0
FE73F0
FFFFE0
3FFFC0
0FFF00
007000
007000
007000
003000
ENDCHAR
STARTCHAR 0025
ENCODING 37
SWIDTH 855 0
DWIDTH 38 0
BBX 30 30 4 0
BITMAP
0FC00078
3FF00070
7FF800F0
787801E0
F87C03C0
F03C0780
F03C0F00
F03C1E00
F03C1E00
F87C3C00
78787800
7FF8F000
3FF1E000
0FC3C000
0003C000
00078000
000F03C0
001E1FF0
003C3FF8
00787C7C
0078783C
00F0783C
01E0F83C
03C0F83C
0780F83C
0F00783C
0F007C7C
1E007EF8
3C003FF0
38000FE0
ENDCHAR
STARTCHAR 0026
ENCODING 38
SWIDTH 765 0
DWIDTH 34 0
BBX 30 32 2 0
BITMAP
001FC000
00FFF800
01FFF800
03F0F800
07E07800
07E07800
07E07800
07E07800
07E00000
07F00000
07F00000
03F80000
03F80FF8
01FC0FF8
07FE03F0
0FFF01E0
1F7F81C0
3E3F81C0
7E3FC180
7E1FE380
7E0FF380
FE07FF00
FE03FF00
FE01FE00
FE01FE00
7E00FF00
7F007F80
7F80FFC0
3FC1FFFC
1FFFEFFC
0FFF8FFC
03FF07FC
ENDCHAR
STARTCHAR 0027
ENCODING 39
SWIDTH 225 0
DWIDTH 10 0
BBX 4 12 3 20
BITMAP
10
F0
F0
F0
F0
F0
F0
F0
70
70
70
60
ENDCHAR
STARTCHAR 0028
ENCODING 40
SWIDTH 315 0
DWIDTH 14 0
BBX 10 45 2 -12
BITMAP
00C0
01C0
0380
0780
0700
0F00
0E00
1E00
1E00
3C00
3C00
7C00
7C00
7800
F800
F800
F800
F800
F800
F800
F800
F800
F800
F800
F800
F800
F800
F800
F800
F800
7800
7C00
7C00
3C00
3C00
3E00
1E00
1E00
0F00
0F00
0700
0380
0380
01C0
00C0
ENDCHAR
STARTCHAR 0029
ENCODING 41
SWIDTH 315 0
DWIDTH 14 0
BBX 11 45 2 -12
BITMAP
6000
E000
7000
3800
3C00
1C00
1E00
1E00
0F00
0F00
0F80
0780
0780
07C0
07C0
07C0
07C0
07E0
07E0
07E0
07E0
07E0
03E0
07E0
07E0
07E0
07C0
07C0
07C0
07C0
07C0
0780
0780
0F80
0F00
0F00
0F00
1E00
1E00
3C00
3800
3800
7000
E000
E000
ENDCHAR
STARTCHAR 002A
ENCODING 42
SWIDTH 472 0
DWIDTH 21 0
BBX 15 16 3 18
BITMAP
01E0
01E0
41E0
61C0
F9C0
FD86
3FBE
07FE
07FE
1F80
7DC0
F9E0
78F0
30F0
00F0
00C0
ENDCHAR
STARTCHAR 002B
ENCODING 43
SWIDTH 540 0
DWIDTH 24 0
BBX 21 22 2 0
BITMAP
007000
007000
007000
007000
007000
007000
007000
007000
007000
FFFFF8
FFFFF0
FFFFF0
007000
007000
007000
007000
007000
007000
007000
007000
007000
006000
ENDCHAR
STARTCHAR 002C
ENCODING 44
SWIDTH 270 0
DWIDTH 12 0
BBX 7 14 3 -8
BITMAP
04
7E
FE
FE
FE
FE
3E
1E
1C
3C
38
78
F0
E0
ENDCHAR
STARTCHAR 002D
ENCODING 45
SWIDTH 405 0
DWIDTH 18 0
BBX 13 4 3 9
BITMAP
FFF8
FFF8
FFF8
E000
ENDCHAR
STARTCHAR 002E
ENCODING 46
SWIDTH 270 0
DWIDTH 12 0
BBX 8 7 2 0
BITMAP
3C
7F
7F
FF
FF
7F
3E
ENDCHAR
STARTCHAR 002F
ENCODING 47
SWIDTH 382 0
DWIDTH 17 0
BBX 15 32 1 0
BITMAP
0008
000E
001C
001C
003C
0038
0038
0078
0070
0070
00E0
00E0
01E0
01C0
01C0
03C0
0380
0380
0700
0700
0F00
0E00
0E00
1E00
1C00
1C00
3C00
3800
7800
7000
7000
F000
ENDCHAR
STARTCHAR 0030
ENCODING 48
SWIDTH 607 0
DWIDTH 27 0
BBX 24 22 2 0
BITMAP
03FF80
0FFFE0
1FCFF0
3F03F8
7E01FC
7E00FE
FC00FE
FC007E
FC007F
FC007F
FC007F
FC007F
FC007F
FC007F
FE007E
FE007E
7F007C
3F80FC
3FC1F8
1FFFF0
07FFE0
01FF80
ENDCHAR
STARTCHAR 0031
ENCODING 49
SWIDTH 382 0
DWIDTH 17 0
BBX 13 22 2 0
BITMAP
FFF8
FFF8
3FF0
1FE0
0FC0
0FC0
0FC0
0FC0
0FC0
0FC0
0FC0
0FC0
0FC0
0FC0
0FC0
0FC0
0FC0
0FC0
1FE0
7FF8
FFF8
FFF8
ENDCHAR
STARTCHAR 0032
ENCODING 50
SWIDTH 517 0
DWIDTH 23 0
BBX 19 22 2 0
BITMAP
1FFE00
7FFF80
7E7F80
7C1FC0
781FC0
781FC0
781FC0
781F80
001F80
003F00
007E00
00FC00
01F000
03E000
07C0E0
0F81E0
1FFFE0
3FFFE0
7FFFE0
FFFFE0
FFFFE0
7FFFE0
ENDCHAR
STARTCHAR 0033
ENCODING 51
SWIDTH 495 0
DWIDTH 22 0
BBX 19 30 2 -8
BITMAP
7FFFC0
7FFFC0
7FFFC0
7FFF80
7FFF00
780F00
701E00
F03C00
007800
00F800
00F000
01E000
03FC00
07FF00
07FF80
03FFC0
003FC0
001FE0
000FE0
000FE0
000FE0
000FE0
000FE0
000FC0
001FC0
803F80
F9FF00
FFFE00
7FF800
070000
ENDCHAR
STARTCHAR 0034
ENCODING 52
SWIDTH 585 0
DWIDTH 26 0
BBX 25 29 1 -8
BITMAP
0003E000
0003E000
0007E000
000FE000
001FE000
003FE000
003FE000
0077E000
00F7E000
01E7E000
01C7E000
0387E000
0787E000
0F07E000
1E07E000
1E07E000
3C07E000
7FFFFF80
FFFFFF00
FFFFFF00
7FFFFF00
7FFFFF00
0007E000
0007E000
0007E000
0007E000
0007E000
0007E000
0007E000
ENDCHAR
STARTCHAR 0035
ENCODING 53
SWIDTH 472 0
DWIDTH 21 0
BBX 18 33 2 -8
BITMAP
000380
000380
000780
1FFF80
1FFF80
1FFF80
3FFF80
3FFF00
3C0000
380000
700000
700000
7E0000
7FC000
7FF800
7FFC00
7FFE00
0FFF00
01FF80
007F80
003F80
003F80
001FC0
001F80
001F80
001F80
003F80
003F00
007E00
C3FC00
FFF800
FFE000
160000
ENDCHAR
STARTCHAR 0036
ENCODING 54
SWIDTH 540 0
DWIDTH 24 0
BBX 21 28 2 0
BITMAP
000FC0
007FC0
01FF00
03F800
07E000
0FC000
1F8000
3F0000
3F0000
7E0000
7E0800
FFFF80
FFFFC0
FFFFE0
FC0FF0
FC07F0
FC03F8
FC03F8
FC03F8
FC03F8
FC01F8
FE03F0
FE03F0
7F03F0
7F07E0
3FFFC0
1FFF80
07FE00
ENDCHAR
STARTCHAR 0037
ENCODING 55
SWIDTH 472 0
DWIDTH 21 0
BBX 18 30 2 -8
BITMAP
FFFF80
FFFFC0
FFFFC0
FFFF80
FFFF00
FC0700
F00E00
E01E00
601C00
003800
007800
007000
00F000
00F000
01E000
01E000
03E000
03C000
07C000
07C000
0FC000
0FC000
0FC000
1FC000
1FC000
1FC000
1FC000
1F0000
1C0000
080000
ENDCHAR
STARTCHAR 0038
ENCODING 56
SWIDTH 540 0
DWIDTH 24 0
BBX 20 28 2 0
BITMAP
07FE00
0FFF80
3F8FC0
3F07E0
7E07E0
7E07E0
7E07E0
7F07E0
7F87E0
3FCFC0
3FFF80
1FFE00
0FFE00
07FF00
0FFF80
1F7FC0
3E3FE0
7E0FF0
7C07F0
FC07F0
FC03F0
FC03F0
FC03F0
FE03F0
7F07E0
3F8FC0
1FFF80
07FF00
ENDCHAR
STARTCHAR 0039
ENCODING 57
SWIDTH 540 0
DWIDTH 24 0
BBX 21 29 2 -8
BITMAP
07FF00
1FFF80
3FDFE0
7E07E0
7E07F0
FC03F0
FC03F8
FC03F8
FC01F8
FC01F8
FC01F8
FE01F8
FE01F8
7F01F8
7FE7F8
3FFFF8
1FFFF0
03F3F0
0007E0
0007E0
000FC0
001FC0
003F80
007F00
00FE00
03F800
1FF000
3FC000
3E0000
ENDCHAR
STARTCHAR 003A
ENCODING 58
SWIDTH 270 0
DWIDTH 12 0
BBX 7 20 3 0
BITMAP
38
FC
FE
FE
FE
FC
7C
00
00
00
00
00
00
7C
FE
FE
FE
FE
FC
30
ENDCHAR
STARTCHAR 003B
ENCODING 59
SWIDTH 292 0
DWIDTH 13 0
BBX 7 28 3 -8
BITMAP
38
7E
FE
FE
FE
7E
7C
00
00
00
00
00
00
00
04
7E
FE
FE
FE
FE
3E
1E
1C
3C
38
78
70
E0
ENDCHAR
STARTCHAR 003C
ENCODING 60
SWIDTH 540 0
DWIDTH 24 0
BBX 18 21 3 0
BITMAP
000380
000FC0
001F80
007E00
01FC00
03F000
0FC000
3F0000
7E0000
F80000
E00000
F80000
FE0000
3F8000
0FE000
03F800
00FE00
003F80
000FC0
0007C0
0001C0
ENDCHAR
STARTCHAR 003D
ENCODING 61
SWIDTH 540 0
DWIDTH 24 0
BBX 20 11 2 6
BITMAP
7FFFF0
FFFFF0
FFFFF0
000000
000000
000000
000000
000000
7FFFF0
FFFFF0
FFFFF0
ENDCHAR
STARTCHAR 003E
ENCODING 62
SWIDTH 540 0
DWIDTH 24 0
BBX 19 21 3 1
BITMAP
780000
FC0000
3F0000
1F8000
07E000
01F800
00FC00
003F00
000F80
0007E0
0001E0
0007C0
001FC0
003F00
00FC00
03F000
0FE000
1F8000
7E0000
7C0000
700000
ENDCHAR
STARTCHAR 003F
ENCODING 63
SWIDTH 517 0
DWIDTH 23 0
BBX 16 32 5 0
BITMAP
07E0
7FFC
FFFE
F8FE
F87F
F07F
F03F
F07F
707E
00FE
00FC
01F8
03F0
07E0
07E0
07C0
0F80
0F80
0F80
0780
0780
0380
0300
0000
0000
03C0
07E0
0FF0
0FF0
0FF0
0FE0
07C0
ENDCHAR
STARTCHAR 0040
ENCODING 64
SWIDTH 990 0
DWIDTH 44 0
BBX 35 38 5 -9
BITMAP
0007FF8000
003FFFF000
00FF07F800
01F0007E00
07C0001F00
0F00000F00
0E00000780
1C000003C0
3C03E1C3C0
380FFFC1C0
781FFFC1E0
703E1FC0E0
F07E07C0E0
F07C0FC0E0
E0FC0FC0E0
E0FC0FC0E0
E0FC0FC0E0
E0FC0FC0E0
E0FC0FC0C0
E1FC0FC1C0
E1FC1FC1C0
E1FC1FC1C0
E0FC1FE380
F0FC3FE380
F0FE7FE700
F0FFEFFE00
787FEFFC00
787FC7F800
7C3F83F000
3C00000000
3E00000100
1F00000380
0F80000780
07E0001F00
03F800FE00
00FFFFF800
003FFFE000
0007FE0000
ENDCHAR
STARTCHAR 0041
ENCODING 65
SWIDTH 697 0
DWIDTH 31 0
BBX 30 30 1 0
BITMAP
00070000
000F0000
000F8000
000F8000
001FC000
001FC000
003FE000
003FE000
0037F000
0077F000
0067F000
00E3F800
00E3F800
01C1FC00
01C1FC00
01C1FE00
0380FE00
0380FF00
07007F00
07FFFF00
07FFFF80
0FFFBF80
0E003FC0
1C001FC0
1C001FE0
3C000FE0
3C000FF0
FF003FFC
FF007FFC
FF007FFC
ENDCHAR
STARTCHAR 0042
ENCODING 66
SWIDTH 652 0
DWIDTH 29 0
BBX 26 30 2 0
BITMAP
FFFFE000
FFFFF800
FFFFFE00
1FC1FE00
1FC0FF00
1FC07F00
1FC07F00
1FC07F00
1FC07F00
1FC07E00
1FC07E00
1FC0FC00
1FC3F800
1FFFC000
1FFFFC00
1FFFFE00
1FC1FF00
1FC07F80
1FC03F80
1FC03FC0
1FC03FC0
1FC01FC0
1FC03FC0
1FC03FC0
1FC03F80
1FC03F80
3FE0FF00
FFFFFE00
FFFFFC00
FFFFC000
ENDCHAR
STARTCHAR 0043
ENCODING 67
SWIDTH 630 0
DWIDTH 28 0
BBX 25 30 2 0
BITMAP
007FF800
01FFFF00
07F87F00
0FE01F00
1F800F00
3F800F00
3F000F00
7F000F00
7E000F00
FE000000
FE000000
FE000000
FE000000
FE000000
FE000000
FE000000
FE000000
FE000000
FE000000
FE000000
FF000000
7F000000
7F800000
3F800000
3FC00000
1FF00180
0FFC0F80
07FFFF00
01FFFC00
007FF000
ENDCHAR
STARTCHAR 0044
ENCODING 68
SWIDTH 720 0
DWIDTH 32 0
BBX 29 30 2 0
BITMAP
FFFFE000
FFFFFC00
FFF3FF00
1FC07F80
1FC03FC0
1FC00FE0
1FC00FF0
1FC007F0
1FC007F0
1FC003F8
1FC003F8
1FC003F8
1FC003F8
1FC003F8
1FC003F8
1FC003F8
1FC003F8
1FC003F8
1FC003F8
1FC003F0
1FC003F0
1FC007F0
1FC007E0
1FC00FE0
1FC00FC0
1FC01F80
3FE07F00
FFFFFE00
FFFFF800
FFFF8000
ENDCHAR
STARTCHAR 0045
ENCODING 69
SWIDTH 607 0
DWIDTH 27 0
BBX 24 30 2 0
BITMAP
FFFFFC
FFFFFC
FFFFFC
1FC07C
1FC03C
1FC01E
1FC01E
1FC01C
1FC000
1FC000
1FC1C0
1FC1C0
1FC1C0
1FC7C0
1FFFC0
1FFFC0
1FC7C0
1FC1C0
1FC1C0
1FC1C0
1FC000
1FC000
1FC007
1FC00F
1FC00F
1FC01F
3FE03F
FFFFFE
FFFFFE
FFFFFE
ENDCHAR
STARTCHAR 0046
ENCODING 70
SWIDTH 585 0
DWIDTH 26 0
BBX 23 30 2 0
BITMAP
FFFFFC
FFFFFC
FFFFFC
1FC07C
1FC03E
1FC01E
1FC01E
1FC00E
1FC000
1FC000
1FC000
1FC0E0
1FC0E0
1FC0E0
1FC1E0
1FFFE0
1FFFE0
1FFFE0
1FC1E0
1FC0E0
1FC0E0
1FC000
1FC000
1FC000
1FC000
1FC000
1FE000
FFFC00
FFFC00
FFFE00
ENDCHAR
STARTCHAR 0047
ENCODING 71
SWIDTH 697 0
DWIDTH 31 0
BBX 28 30 2 0
BITMAP
007FFC00
01FFFF80
07FC7FC0
0FE00FC0
1FC00780
3F800780
3F000780
7F000380
7E000380
FE000000
FE000000
FE000000
FE000000
FE000000
FE000000
FE00FFF0
FE00FFF0
FE00FFF0
FE001FC0
FE000FC0
FE000FC0
7F000FC0
7F000FC0
3F800FC0
3FC00FC0
1FC00FC0
0FF01FC0
07FEFFC0
01FFFF00
007FF800
ENDCHAR
STARTCHAR 0048
ENCODING 72
SWIDTH 765 0
DWIDTH 34 0
BBX 31 30 2 0
BITMAP
FFF83FFE
FFF83FFE
FFF83FFC
1FC00FF0
1FC007F0
1FC007E0
1FC007E0
1FC007E0
1FC007E0
1FC007E0
1FC007E0
1FC007E0
1FC007E0
1FFFFFE0
1FFFFFE0
1FFFFFE0
1FC007E0
1FC007E0
1FC007E0
1FC007E0
1FC007E0
1FC007E0
1FC007E0
1FC007E0
1FC007E0
1FC007F0
1FC00FF0
FFF83FFC
FFF83FFE
FFF83FFE
ENDCHAR
STARTCHAR 0049
ENCODING 73
SWIDTH 360 0
DWIDTH 16 0
BBX 13 30 2 0
BITMAP
FFF8
FFF8
FFF8
1FC0
1FC0
1FC0
1FC0
1FC0
1FC0
1FC0
1FC0
1FC0
1FC0
1FC0
1FC0
1FC0
1FC0
1FC0
1FC0
1FC0
1FC0
1FC0
1FC0
1FC0
1FC0
1FC0
1FC0
FFF8
FFF8
FFF8
ENDCHAR
STARTCHAR 004A
ENCODING 74
SWIDTH 360 0
DWIDTH 16 0
BBX 15 41 0 -11
BITMAP
7FFE
7FFC
3FFC
0FF0
0FE0
07E0
07E0
07E0
07E0
07E0
07E0
07E0
07E0
07E0
07E0
07E0
07E0
07E0
07E0
07E0
07E0
07E0
07E0
07E0
07E0
07E0
07E0
07E0
07E0
07E0
0FE0
0FC0
0FC0
0FC0
1F80
1F80
3F00
7E00
FC00
F000
C000
ENDCHAR
STARTCHAR 004B
ENCODING 75
SWIDTH 720 0
DWIDTH 32 0
BBX 29 30 2 0
BITMAP
FFF87FF0
FFF87FF0
FFF87FE0
1FC01F00
1FC01E00
1FC03C00
1FC07800
1FC0F000
1FC1E000
1FC3C000
1FC78000
1FCF0000
1FDE0000
1FFF0000
1FFF8000
1FFFC000
1FFFE000
1FDFE000
1FCFF000
1FC7F800
1FC7FC00
1FC3FC00
1FC1FE00
1FC0FF00
1FC0FF00
1FC07F80
1FC03FE0
FFF83FF8
FFF81FF8
FFF81FF8
ENDCHAR
STARTCHAR 004C
ENCODING 76
SWIDTH 585 0
DWIDTH 26 0
BBX 24 30 2 0
BITMAP
FFF800
FFF800
FFF800
1FC000
1FC000
1FC000
1FC000
1FC000
1FC000
1FC000
1FC000
1FC000
1FC000
1FC000
1FC000
1FC000
1FC000
1FC000
1FC000
1FC000
1FC000
1FC000
1FC00F
1FC00F
1FC00F
1FC01E
3FE03E
FFFFFE
FFFFFE
FFFFFE
ENDCHAR
STARTCHAR 004D
ENCODING 77
SWIDTH 945 0
DWIDTH 42 0
BBX 41 30 1 0
BITMAP
3FF00007FE00
3FF00007FE00
3FF8000FFE00
07F8000FF000
07FC000FF000
07FC001FF000
07FE001FF000
07FE003FF000
07FE003FF000
07FF003FF000
077F0077F000
077F8073F000
073F8073F000
073FC0E3F800
061FC0E3F800
0E1FE1C3F800
0E0FE1C3F800
0E0FE1C3F800
0E07F383F800
0E07F383F800
0E07FB01F800
0E03FF01F800
0E03FF01F800
0E01FE01FC00
1E01FE01FC00
1E00FC01FC00
3E00FC03FE00
FFC07C0FFF80
FFC0780FFF80
FFC0780FFF80
ENDCHAR
STARTCHAR 004E
ENCODING 78
SWIDTH 720 0
DWIDTH 32 0
BBX 29 30 2 0
BITMAP
FF801FF8
FF801FF8
FFC01FF0
3FE003C0
1FF003C0
1FF001C0
1FF801C0
1FFC01C0
1FFE01C0
1DFE01C0
1CFF01C0
1CFF81C0
1C7FC1C0
1C3FC1C0
1C1FE1C0
1C1FF1C0
1C0FF9C0
1C07F9C0
1C03FDC0
1C03FFC0
1C01FFC0
1C00FFC0
1C007FC0
1C007FC0
1C003FC0
1C001FC0
3E000FC0
FF800FC0
FF8007C0
FFC003C0
ENDCHAR
STARTCHAR 004F
ENCODING 79
SWIDTH 742 0
DWIDTH 33 0
BBX 30 30 2 0
BITMAP
007FF000
01FFFE00
07F1FF00
0FC03F80
1F801FC0
3F000FE0
3F000FF0
7E0007F0
7E0007F8
FE0003F8
FE0003F8
FE0003F8
FC0003FC
FC0001FC
FC0001FC
FE0001FC
FE0001FC
FE0001F8
FE0003F8
FE0003F8
FE0003F8
7F0003F0
7F0003F0
3F8007E0
3F800FE0
1FC00FC0
0FF01F80
07FEFF00
01FFFC00
007FF000
ENDCHAR
STARTCHAR 0050
ENCODING 80
SWIDTH 630 0
DWIDTH 28 0
BBX 25 30 2 0
BITMAP
FFFFE000
FFFFF800
FFFFFE00
1FC1FE00
1FC0FF00
1FC07F00
1FC07F80
1FC03F80
1FC03F80
1FC03F80
1FC03F80
1FC03F80
1FC03F00
1FC07F00
1FC07E00
1FC0FE00
1FC1FC00
1FDFF800
1FDFE000
1FC70000
1FC00000
1FC00000
1FC00000
1FC00000
1FC00000
1FC00000
1FE00000
FFFC0000
FFFC0000
FFFE0000
ENDCHAR
STARTCHAR 0051
ENCODING 81
SWIDTH 742 0
DWIDTH 33 0
BBX 32 39 2 -9
BITMAP
007FF000
01FFFE00
07F1FF00
0FC03F80
1F801FC0
3F000FE0
3F000FF0
7E0007F0
7E0007F8
FE0003F8
FE0003F8
FE0003F8
FC0003FC
FC0001FC
FC0001FC
FE0001FC
FE0001FC
FE0001F8
FE0003F8
FE0003F8
FE0003F8
7F0003F0
7F0003F0
3F8007E0
3F800FE0
1FC00FC0
0FF01F80
07FEFF00
01FFFC00
007FF800
0001FE00
00003F80
00001FC0
00000FF0
00000FFF
000007FF
000003FF
000001F8
000000C0
ENDCHAR
STARTCHAR 0052
ENCODING 82
SWIDTH 697 0
DWIDTH 31 0
BBX 28 30 2 0
BITMAP
FFFFF000
FFFFFC00
FFFFFE00
1FC0FF00
1FC07F80
1FC03F80
1FC03F80
1FC03F80
1FC03F80
1FC03F80
1FC03F80
1FC03F00
1FC07F00
1FC0FE00
1FC7FC00
1FFFF800
1FFFC000
1FCFF000
1FC7F800
1FC3F800
1FC1FC00
1FC1FE00
1FC0FE00
1FC0FF00
1FC07F00
1FC07F80
1FC03FC0
FFF03FF0
FFF81FF0
FFF81FF0
ENDCHAR
STARTCHAR 0053
ENCODING 83
SWIDTH 540 0
DWIDTH 24 0
BBX 21 30 2 0
BITMAP
07FF80
0FFFE0
1F9FE0
3E07E0
7C03E0
7C01E0
7C01E0
7E01E0
7E0100
7F0000
7FC000
7FF000
3FFC00
3FFF00
1FFFC0
0FFFE0
03FFF0
00FFF0
003FF8
000FF8
1807F8
7803F8
7801F8
7801F8
F801F8
FC01F0
FE03F0
FFFFE0
7FFFC0
0FFF00
ENDCHAR
STARTCHAR 0054
ENCODING 84
SWIDTH 652 0
DWIDTH 29 0
BBX 27 30 1 0
BITMAP
7FFFFFC0
7FFFFFC0
7FFFFFC0
7C3F87C0
783F83E0
F03F81E0
F03F81E0
F03F81E0
003F8000
003F8000
003F8000
003F8000
003F8000
003F8000
003F8000
003F8000
003F8000
003F8000
003F8000
003F8000
003F8000
003F8000
003F8000
003F8000
003F8000
003F8000
007FC000
03FFF800
03FFF800
03FFF800
ENDCHAR
STARTCHAR 0055
ENCODING 85
SWIDTH 675 0
DWIDTH 30 0
BBX 28 30 1 0
BITMAP
FFF81FF0
FFF81FF0
7FF81FF0
1FE007C0
1FC00380
1FC00380
1FC00380
1FC00380
1FC00380
1FC00380
1FC00380
1FC00380
1FC00380
1FC00380
1FC00380
1FC00380
1FC00380
1FC00380
1FC00380
1FC00380
1FC00380
1FC00380
0FC00380
0FE00380
0FE00700
0FF00700
07F81E00
03FFFE00
01FFFC00
007FF000
ENDCHAR
STARTCHAR 0056
ENCODING 86
SWIDTH 675 0
DWIDTH 30 0
BBX 29 30 1 0
BITMAP
FFF80FF8
FFF80FF8
FFF007F8
3FC003E0
3FC001C0
1FC001C0
1FE00380
0FE00380
0FE00380
07F00700
07F00700
07F80700
03F80E00
03F80E00
01FC1C00
01FC1C00
00FE1C00
00FE3800
00FE3800
007F7000
007F7000
003FE000
003FE000
003FE000
001FC000
001FC000
001F8000
000F8000
000F8000
00070000
ENDCHAR
STARTCHAR 0057
ENCODING 87
SWIDTH 990 0
DWIDTH 44 0
BBX 42 30 1 0
BITMAP
FFF807807FC0
FFF807807FC0
FFF00F807FC0
3FC00FC00F80
3FC00FC00F00
1FC01FC00E00
1FC01FE00E00
1FC01FE00E00
0FE03FF00C00
0FE03FF01C00
0FE03FF01C00
07F077F81C00
07F073F83800
07F073F83800
03F8E1FC3800
03F8E1FC3000
03F8E1FE7000
01FDC0FE7000
01FDC0FE6000
01FD80FFE000
01FF807FE000
00FF807FE000
00FF003FC000
00FF003FC000
007F003FC000
007E001F8000
007E001F8000
003E001F8000
003C000F0000
003C000F0000
ENDCHAR
STARTCHAR 0058
ENCODING 88
SWIDTH 697 0
DWIDTH 31 0
BBX 29 30 1 0
BITMAP
7FFC3FF0
7FFC3FF0
7FFC1FF0
1FF00FC0
0FF00F80
07F80F00
07F80E00
03FC1C00
01FE3C00
01FE3800
00FF7000
007FF000
007FE000
003FC000
001FC000
001FE000
001FF000
003FF000
007FF800
0073FC00
00E3FC00
01E1FE00
01C1FE00
0380FF00
07807F80
0F007F80
1F007FC0
7FC1FFF8
FFE1FFF8
FFE1FFF8
ENDCHAR
STARTCHAR 0059
ENCODING 89
SWIDTH 630 0
DWIDTH 28 0
BBX 26 30 1 0
BITMAP
FFF83FC0
FFF83FC0
FFF03FC0
3FE00F00
1FE00F00
1FE00E00
0FE01C00
0FF01C00
07F03800
07F83800
03F83000
03FC7000
01FC7000
01FEE000
00FEE000
00FFC000
007FC000
007F8000
003F8000
003F8000
003F8000
003F8000
003F8000
003F8000
003F8000
003F8000
007F8000
03FFF800
07FFF800
07FFF800
ENDCHAR
STARTCHAR 005A
ENCODING 90
SWIDTH 607 0
DWIDTH 27 0
BBX 23 30 2 0
BITMAP
3FFFFC
3FFFFC
3FFFFC
3E03FC
7C07F8
7807F8
780FF0
780FF0
301FE0
001FC0
003FC0
007F80
007F80
00FF00
00FF00
01FE00
01FE00
03FC00
07F800
07F800
0FF000
0FF000
1FE01E
3FC01E
3FC03E
7F803C
7F807C
FFFFFC
FFFFFC
FFFFFC
ENDCHAR
STARTCHAR 005B
ENCODING 91
SWIDTH 270 0
DWIDTH 12 0
BBX 9 45 2 -12
BITMAP
FF80
FF80
FF80
F800
F000
F000
F000
F000
F000
F000
F000
F000
F000
F000
F000
F000
F000
F000
F000
F000
F000
F000
F000
F000
F000
F000
F000
F000
F000
F000
F000
F000
F000
F000
F000
F000
F000
F000
F000
F000
F000
F800
FF80
FF80
FF80
ENDCHAR
STARTCHAR 005C
ENCODING 92
SWIDTH 382 0
DWIDTH 17 0
BBX 15 32 1 0
BITMAP
E000
7000
7000
7800
3800
3800
3C00
1C00
1C00
0E00
0E00
0F00
0700
0700
0780
0380
0380
01C0
01C0
01C0
00E0
00E0
00F0
0070
0070
0078
0038
0038
001C
001C
001E
000E
ENDCHAR
STARTCHAR 005D
ENCODING 93
SWIDTH 270 0
DWIDTH 12 0
BBX 9 45 2 -12
BITMAP
FF80
FF80
FF80
0F80
0780
0780
0780
0780
0780
0780
0780
0780
0780
0780
0780
0780
0780
0780
0780
0780
0780
0780
0780
0780
0780
0780
0780
0780
0780
0780
0780
0780
0780
0780
0780
0780
0780
0780
0780
0780
0780
0F80
FF80
FF80
FF80
ENDCHAR
STARTCHAR 005E
ENCODING 94
SWIDTH 540 0
DWIDTH 24 0
BBX 20 14 2 17
BITMAP
007000
00F800
01F800
03FC00
079E00
070E00
0F0700
1E0780
3C03C0
7801C0
7001E0
F000F0
E00070
400070
ENDCHAR
STARTCHAR 005F
ENCODING 95
SWIDTH 540 0
DWIDTH 24 0
BBX 22 3 1 -7
BITMAP
FFFFFC
FFFFFC
FFFFFC
ENDCHAR
STARTCHAR 0060
ENCODING 96
SWIDTH 292 0
DWIDTH 13 0
BBX 8 8 3 24
BITMAP
78
F8
FC
7C
3E
1E
0E
0F
ENDCHAR
STARTCHAR 0061
ENCODING 97
SWIDTH 495 0
DWIDTH 22 0
BBX 21 21 1 0
BITMAP
007800
03FF00
07FF80
1E7F80
3E3FC0
7E1FC0
FE1FC0
FE1FC0
3C1FC0
007FC0
01FFC0
07DFC0
1F1FC0
7E1FC0
7E1FC0
FE1FC0
FE1FE0
FE1FF8
7FFFF8
7FEFF8
1FC7E0
ENDCHAR
STARTCHAR 0062
ENCODING 98
SWIDTH 585 0
DWIDTH 26 0
BBX 25 32 0 0
BITMAP
00800000
3FC00000
FFC00000
FFC00000
3FC00000
1FC00000
1FC00000
1FC00000
1FC00000
1FC00000
1FC00000
1FC1E000
1FCFF800
1FDFFE00
1FFFFF00
1FE0FF00
1FC07F00
1FC03F80
1FC03F80
1FC03F80
1FC03F80
1FC01F80
1FC01F80
1FC03F80
1FC03F80
1FC03F00
1FC03F00
1FC07E00
1FC0FC00
1FF1F800
0FFFF000
01FFC000
ENDCHAR
STARTCHAR 0063
ENCODING 99
SWIDTH 450 0
DWIDTH 20 0
BBX 18 21 2 0
BITMAP
00F000
07FF00
1FFF80
3F0F80
7E0F80
7E0780
FC0780
FC0780
FC0000
FC0000
FC0000
FC0000
FC0000
FC0000
FE0000
FE0000
7F0080
7F8180
3FFFC0
1FFF80
07FE00
ENDCHAR
STARTCHAR 0064
ENCODING 100
SWIDTH 607 0
DWIDTH 27 0
BBX 24 32 2 0
BITMAP
000018
0007F8
000FF8
000FF8
0007F8
0001F8
0001F8
0001F8
0001F8
0001F8
0001F8
007DF8
03FFF8
0FFFF8
1F83F8
3F01F8
7E01F8
7E01F8
FC01F8
FC01F8
FC01F8
FC01F8
FC01F8
FC01F8
FE01F8
FE01F8
FE01F8
FF01FC
7F81FF
7FFFFF
3FFDFF
0FF1E0
ENDCHAR
STARTCHAR 0065
ENCODING 101
SWIDTH 495 0
DWIDTH 22 0
BBX 19 21 2 0
BITMAP
01F000
07FE00
1FFF00
3F1F80
7E0FC0
7E07C0
FC07E0
FC07E0
FC07E0
FFFFE0
FFFFE0
FFFFC0
FC0000
FC0000
FE0000
FE0000
7F0040
7F81E0
3FFFE0
1FFF80
07FE00
ENDCHAR
STARTCHAR 0066
ENCODING 102
SWIDTH 382 0
DWIDTH 17 0
BBX 20 32 1 0
BITMAP
001F80
007FF0
01FFF0
03E3E0
07E1E0
07C1E0
0FC1E0
0FC180
0FC000
0FC000
0FC000
0FC000
7FFE00
FFFE00
FFFE00
0FC000
0FC000
0FC000
0FC000
0FC000
0FC000
0FC000
0FC000
0FC000
0FC000
0FC000
0FC000
0FE000
1FE000
7FFE00
7FFE00
7FFE00
ENDCHAR
STARTCHAR 0067
ENCODING 103
SWIDTH 540 0
DWIDTH 24 0
BBX 22 32 1 -11
BITMAP
01F000
0FFFFC
1FFFFC
3F0FCC
3F07E0
7E07E0
7E03F0
7E03F0
7E03F0
7F03F0
3F07E0
3F87E0
1FFFC0
0FFF00
1FF800
3E0000
3E0000
3FFC00
3FFFE0
3FFFF8
3FFFF8
1FFFFC
1FFFFC
7C07FC
7C00FC
F800F8
FC00F8
FC01F0
7E03E0
7FFFC0
3FFF00
0FF800
ENDCHAR
STARTCHAR 0068
ENCODING 104
SWIDTH 630 0
DWIDTH 28 0
BBX 27 32 1 0
BITMAP
00800000
3FC00000
FFC00000
FFC00000
3FC00000
1FC00000
1FC00000
0FC00000
0FC00000
0FC00000
0FC00000
0FC00000
0FC7F800
0FDFFC00
0FFFFE00
0FFFFE00
0FC07F00
0FC07F00
0FC07F00
0FC03F00
0FC03F00
0FC03F00
0FC03F00
0FC03F00
0FC03F00
0FC03F00
1FC03F00
1FC07F00
1FC07F00
7FF1FFC0
FFF9FFC0
FFF9FFE0
ENDCHAR
STARTCHAR 0069
ENCODING 105
SWIDTH 337 0
DWIDTH 15 0
BBX 12 31 2 0
BITMAP
0E00
1F80
3F80
3F80
3F80
3F80
0E00
0000
0000
0000
0100
3F80
FF80
FF80
7F80
3F80
1F80
1F80
1F80
1F80
1F80
1F80
1F80
1F80
1F80
1F80
1F80
3FC0
FFF0
FFF0
FFF0
ENDCHAR
STARTCHAR 006A
ENCODING 106
SWIDTH 292 0
DWIDTH 13 0
BBX 10 42 1 -11
BITMAP
0700
1FC0
1FC0
1FC0
1FC0
1F80
0700
0000
0000
0000
0080
1FC0
7FC0
FFC0
3FC0
1FC0
0FC0
0FC0
0FC0
0FC0
0FC0
0FC0
0FC0
0FC0
0FC0
0FC0
0FC0
0FC0
0FC0
0FC0
0FC0
0FC0
0F80
1F80
1F80
1F00
3E00
7E00
7C00
F800
F000
C000
ENDCHAR
STARTCHAR 006B
ENCODING 107
SWIDTH 607 0
DWIDTH 27 0
BBX 26 32 1 0
BITMAP
00800000
3FC00000
FFC00000
FFC00000
3FC00000
1FC00000
1FC00000
0FC00000
0FC00000
0FC00000
0FC00000
0FC00000
0FC1FF80
0FC1FF80
0FC0FE00
0FC0F800
0FC1E000
0FC3C000
0FC78000
0FCF0000
0FDF8000
0FFFC000
0FDFC000
0FCFE000
0FC7F000
0FC3F800
1FC3FC00
1FC1FE00
1FC0FF00
7FF07FC0
FFF07FC0
FFF03FC0
ENDCHAR
STARTCHAR 006C
ENCODING 108
SWIDTH 337 0
DWIDTH 15 0
BBX 13 32 1 0
BITMAP
0080
3FC0
FFC0
FFC0
3FC0
1FC0
1FC0
0FC0
0FC0
0FC0
0FC0
0FC0
0FC0
0FC0
0FC0
0FC0
0FC0
0FC0
0FC0
0FC0
0FC0
0FC0
0FC0
0FC0
0FC0
0FC0
1FC0
1FC0
1FC0
7FF8
FFF8
FFF8
ENDCHAR
STARTCHAR 006D
ENCODING 109
SWIDTH 945 0
DWIDTH 42 0
BBX 39 21 2 0
BITMAP
0101C00000
3F8FF01FC0
FF9FF87FE0
FFFFFCFFF0
7FF3FFEFF0
3F80FE03F8
1F80FE03F8
1F807E03F8
1F807E01F8
1F807E01F8
1F807E01F8
1F807E01F8
1F807E01F8
1F807E01F8
1F807E01F8
1F807E01F8
1F807E03F8
3FC0FF03F8
FFF3FFCFFE
FFF3FFCFFE
FFF3FFCFFE
ENDCHAR
STARTCHAR 006E
ENCODING 110
SWIDTH 652 0
DWIDTH 29 0
BBX 26 21 2 0
BITMAP
01018000
3F8FF000
FF9FFC00
FFFFFC00
7FFBFE00
3F80FE00
1F80FE00
1F807E00
1F807E00
1F807E00
1F807E00
1F807E00
1F807E00
1F807E00
1F807E00
1F807E00
1F807E00
3FC0FF00
FFF3FFC0
FFF3FFC0
FFF3FFC0
ENDCHAR
STARTCHAR 006F
ENCODING 111
SWIDTH 562 0
DWIDTH 25 0
BBX 22 21 2 0
BITMAP
00FC00
07FF80
1FFFC0
3F0FE0
7E07F0
7E03F8
FC03F8
FC01F8
FC01FC
FC01FC
FC01FC
FC01FC
FC01FC
FC01FC
FE01F8
FE01F8
7F03F0
7F03F0
3FCFE0
1FFFC0
07FF00
ENDCHAR
STARTCHAR 0070
ENCODING 112
SWIDTH 630 0
DWIDTH 28 0
BBX 25 32 2 -11
BITMAP
0103C000
3F8FF800
FFBFFC00
FFFFFE00
7FE0FF00
3F807F00
1F807F00
1F803F00
1F803F80
1F803F80
1F803F00
1F803F00
1F803F00
1F803F00
1F807F00
1F807E00
1F807C00
1F80FC00
1FE3F800
1FFFE000
1FFF8000
1F800000
1F800000
1F800000
1F800000
1F800000
1F800000
1FC00000
3FE00000
FFFC0000
FFFC0000
FFFC0000
ENDCHAR
STARTCHAR 0071
ENCODING 113
SWIDTH 585 0
DWIDTH 26 0
BBX 24 32 2 -11
BITMAP
007E00
03FFE0
0FFFF8
1F83FC
3F01FC
7E01F8
7E01F8
FE01F8
FC01F8
FC01F8
FC01F8
FC01F8
FC01F8
FC01F8
FC01F8
FE01F8
FF01F8
7F87F8
3FFFF8
1FF9F8
07E1F8
0001F8
0001F8
0001F8
0001F8
0001F8
0001F8
0003F8
0003FC
001FFF
003FFF
003FFF
ENDCHAR
STARTCHAR 0072
ENCODING 114
SWIDTH 472 0
DWIDTH 21 0
BBX 18 21 2 0
BITMAP
010000
3F8FC0
FF9FC0
FFBFC0
7F7FC0
3F7FC0
1FC3C0
1F83C0
1F8300
1F8000
1F8000
1F8000
1F8000
1F8000
1F8000
1F8000
1FC000
3FC000
FFFC00
FFFC00
FFFC00
ENDCHAR
STARTCHAR 0073
ENCODING 115
SWIDTH 450 0
DWIDTH 20 0
BBX 17 21 2 0
BITMAP
03E000
1FFE00
7FFE00
FC3E00
FC1E00
FC0E00
FC0E00
FF0000
FFC000
7FF800
3FFC00
1FFF00
07FF00
00FF80
E03F80
F03F80
F01F80
F83F00
FEFF00
FFFE00
7FF800
ENDCHAR
STARTCHAR 0074
ENCODING 116
SWIDTH 360 0
DWIDTH 16 0
BBX 15 27 1 1
BITMAP
0380
1F80
1F80
1F80
1F80
1F80
1F80
FFFE
FFFC
FFFC
1F80
1F80
1F80
1F80
1F80
1F80
1F80
1F80
1F80
1F80
1F80
1F80
1F80
1FC0
0FFE
0FFE
07F8
ENDCHAR
STARTCHAR 0075
ENCODING 117
SWIDTH 607 0
DWIDTH 27 0
BBX 25 21 1 0
BITMAP
01000800
3F87FC00
FF87FC00
FF87FC00
7F81FC00
3F80FC00
3F80FC00
1F80FC00
1F80FC00
1F80FC00
1F80FC00
1F80FC00
1F80FC00
1F80FC00
1F80FC00
1F80FC00
1FC0FE00
1FE0FF80
1FFFFF80
0FFEFF80
07F8F000
ENDCHAR
STARTCHAR 0076
ENCODING 118
SWIDTH 540 0
DWIDTH 24 0
BBX 23 20 1 0
BITMAP
FFF1FE
FFF1FE
7FC0FC
3F8078
3FC070
1FC070
1FC0E0
0FE0E0
0FE1C0
07F1C0
07F180
03F380
03FB80
01FF00
01FF00
00FE00
00FE00
00FC00
007C00
007800
ENDCHAR
STARTCHAR 0077
ENCODING 119
SWIDTH 765 0
DWIDTH 34 0
BBX 33 21 1 0
BITMAP
0000100000
FFE0707F80
FFE0F87F80
7FC0F83F00
3F80F81E00
3F81FC0E00
1FC1FC1C00
1FC3FE1C00
1FC3FE1C00
0FE3FE1800
0FE77F3800
07E73F3800
07EE3FB000
07FE1FF000
03FC1FF000
03FC1FE000
03FC0FE000
01F80FE000
01F807C000
01F007C000
00F007C000
ENDCHAR
STARTCHAR 0078
ENCODING 120
SWIDTH 562 0
DWIDTH 25 0
BBX 23 20 1 0
BITMAP
FFFBFC
7FF1FC
3FE0F8
1FE0F0
0FF1E0
07F1C0
03FBC0
03FF80
01FF00
00FF00
01FF00
01FF80
03FFC0
079FE0
0F0FE0
0F0FF0
1E0FF8
7F1FFE
FF9FFE
FF9FFE
ENDCHAR
STARTCHAR 0079
ENCODING 121
SWIDTH 540 0
DWIDTH 24 0
BBX 23 31 1 -11
BITMAP
FFF1FE
FFF1FE
7FE0FC
3FC078
1FC070
1FC070
0FE070
0FE0E0
07E0E0
07F1C0
07F1C0
03F980
03FB80
01FF80
01FF00
00FF00
00FE00
007E00
007C00
003C00
003C00
003800
003800
007000
007000
41E000
7FE000
7FC000
7FC000
7F8000
3F0000
ENDCHAR
STARTCHAR 007A
ENCODING 122
SWIDTH 495 0
DWIDTH 22 0
BBX 19 20 2 0
BITMAP
7FFFC0
7FFFC0
7C1FC0
783F80
F07F80
F07F00
70FE00
01FE00
01FC00
03F800
07F800
0FF000
0FE1C0
1FE1E0
3FC1E0
7F81E0
7F03E0
FFFFE0
FFFFE0
FFFFE0
ENDCHAR
STARTCHAR 007B
ENCODING 123
SWIDTH 360 0
DWIDTH 16 0
BBX 13 45 2 -12
BITMAP
0070
01F8
03E0
07C0
0F80
0F80
0F80
0F80
0F80
0F80
0F80
0F80
0F80
0FC0
0FC0
0FC0
0FC0
0FC0
1F80
1F80
7F00
FC00
F800
FE00
3F80
1F80
1FC0
0FC0
0FC0
0FC0
0FC0
0FC0
0F80
0F80
0F80
0F80
0F80
0F80
0F80
0F80
07C0
07C0
03F0
00F8
0078
ENDCHAR
STARTCHAR 007C
ENCODING 124
SWIDTH 180 0
DWIDTH 8 0
BBX 3 43 3 -11
BITMAP
60
E0
E0
E0
E0
E0
E0
E0
E0
E0
E0
E0
E0
E0
E0
E0
E0
E0
E0
E0
E0
E0
E0
E0
E0
E0
E0
E0
E0
E0
E0
E0
E0
E0
E0
E0
E0
E0
E0
E0
E0
E0
C0
ENDCHAR
STARTCHAR 007D
ENCODING 125
SWIDTH 360 0
DWIDTH 16 0
BBX 13 45 2 -12
BITMAP
E000
F800
7E00
1F00
1F00
0F80
0F80
0F80
0F80
0F80
0F80
1F80
1F80
1F80
1F80
1F80
1F80
1F80
1F80
0FC0
07F0
01F8
01F8
07F0
0FE0
0FC0
1F80
1F80
1F80
1F80
1F80
1F80
1F80
1F80
0F80
0F80
0F80
0F80
0F80
0F00
1F00
3E00
7E00
F800
E000
ENDCHAR
STARTCHAR 007E
ENCODING 126
SWIDTH 540 0
DWIDTH 24 0
BBX 20 7 2 8
BITMAP
070000
1FC030
3FF070
7FFFF0
F07FE0
E03FC0
400700
ENDCHAR
STARTCHAR 00A0
ENCODING 160
SWIDTH 180 0
DWIDTH 8 0
BBX 0 0 0 0
BITMAP
ENDCHAR
STARTCHAR 00A1
ENCODING 161
SWIDTH 405 0
DWIDTH 18 0
BBX 8 32 5 -11
BITMAP
1C
7E
7F
FF
FF
7E
3C
00
00
00
00
3C
3C
3C
3C
3C
3C
3C
3C
3C
3E
3E
7E
7E
7E
7E
7E
7E
7F
7F
7F
70
ENDCHAR
STARTCHAR 00A2
ENCODING 162
SWIDTH 450 0
DWIDTH 20 0
BBX 18 33 2 -6
BITMAP
00F000
00F000
00F000
00F000
00F000
00F000
00F800
07FF00
1FFF80
3FFF80
7EFF80
7EF780
FCF780
FCF780
FCF000
FCF000
FCF000
FCF000
FCF000
FCF000
FEF000
FEF000
7FF080
7FF180
3FFFC0
1FFF80
07FE00
00F000
00F000
00F000
00F000
00F000
00F000
ENDCHAR
STARTCHAR 00A3
ENCODING 163
SWIDTH 562 0
DWIDTH 25 0
BBX 22 30 2 0
BITMAP
01FFE0
07FFF0
0FEFF0
1F83F0
3F81F0
3F01F0
3F00F0
3F00E0
3F8000
3F8000
3FC000
3FC000
1FE000
1FE000
7FFF00
FFFF00
FFFF00
07E000
07E000
07E000
07C000
078000
0F9E00
0F7FBC
1FFFFC
1FFFF8
3FFFF8
7FFFF0
F00FE0
6003E0
ENDCHAR
STARTCHAR 00A4
ENCODING 164
SWIDTH 540 0
DWIDTH 24 0
BBX 19 18 3 2
BITMAP
4000C0
E3F9C0
7FFF80
3E1F00
3C0F00
380780
700380
700380
700380
700380
780380
380380
3C0700
1E0F00
3FFF80
7FFBC0
F0C1E0
600080
ENDCHAR
STARTCHAR 00A5
ENCODING 165
SWIDTH 630 0
DWIDTH 28 0
BBX 26 30 1 0
BITMAP
FFF83FC0
FFF83FC0
FFF03FC0
3FE00F00
1FE00F00
1FE00E00
0FE01C00
0FF01C00
07F03800
07F83800
03F83000
03FC7000
01FC7000
0FFEFE00
1FFEFE00
1FFFFE00
007FC000
007F8000
003F8000
0FFFFE00
1FFFFE00
1FFFFE00
003F8000
003F8000
003F8000
003F8000
007F8000
03FFF800
07FFF800
07FFF800
ENDCHAR
STARTCHAR 00A6
ENCODING 166
SWIDTH 180 0
DWIDTH 8 0
BBX 3 43 3 -11
BITMAP
60
E0
E0
E0
E0
E0
E0
E0
E0
E0
E0
E0
E0
E0
E0
E0
E0
C0
00
00
00
00
00
00
E0
E0
E0
E0
E0
E0
E0
E0
E0
E0
E0
E0
E0
E0
E0
E0
E0
E0
C0
ENDCHAR
STARTCHAR 00A7
ENCODING 167
SWIDTH 562 0
DWIDTH 25 0
BBX 21 43 2 -11
BITMAP
00F800
03FF80
0FFF80
1F0F80
1E0780
3E0780
3E0380
3E0300
3F0000
3F8000
1FE000
1FF800
0FFE00
07FF80
07FFC0
1FFFE0
3E7FF0
7C1FF0
780FF0
F803F8
F801F8
F801F8
FC00F8
FE00F0
FF01F0
7FC1E0
7FF7C0
3FFF80
1FFE00
0FFF00
03FF80
01FF80
007FC0
001FC0
000FC0
1C07C0
1C03C0
1E03C0
1E07C0
1F0F80
1FFF00
0FFE00
00F800
ENDCHAR
STARTCHAR 00A8
ENCODING 168
SWIDTH 292 0
DWIDTH 13 0
BBX 17 6 -2 23
BITMAP
7C1F00
FE3F80
FE3F80
FE3F80
7E1F80
3C0F00
ENDCHAR
STARTCHAR 00A9
ENCODING 169
SWIDTH 787 0
DWIDTH 35 0
BBX 30 30 3 -4
BITMAP
007FF000
01FFFE00
03E01F00
07800780
0E0001C0
1C0FE0E0
383FFC70
707FFC30
70F83C38
61F03818
E1F0181C
E3F0181C
C3E0000C
C3E0000C
C3E0000C
C3E0000C
C3F0000C
C3F0001C
E3F0001C
E1F8001C
61F80838
70FE3C38
387FF870
383FF0F0
1E0781E0
0F0003C0
07C00F80
03FCFF00
00FFFC00
001FE000
ENDCHAR
STARTCHAR 00AA
ENCODING 170
SWIDTH 427 0
DWIDTH 19 0
BBX 16 16 2 16
BITMAP
0FC0
7FF0
79F8
78F8
70FC
707C
01FC
1FFC
3E7C
787C
F8FC
F8FC
F9FE
FFFF
FF7E
3E70
ENDCHAR
STARTCHAR 00AB
ENCODING 171
SWIDTH 495 0
DWIDTH 22 0
BBX 17 15 3 3
BITMAP
078300
0F0700
1E0F00
3C1E00
7C3C00
F87C00
F87800
F87C00
FC7C00
7C3E00
3E1E00
1F0F00
0F0780
070700
020200
ENDCHAR
STARTCHAR 00AC
ENCODING 172
SWIDTH 540 0
DWIDTH 24 0
BBX 20 11 2 5
BITMAP
7FFFF0
FFFFF0
FFFFF0
000070
000070
000070
000070
000070
000070
000070
000070
ENDCHAR
STARTCHAR 00AD
ENCODING 173
SWIDTH 405 0
DWIDTH 18 0
BBX 13 4 3 9
BITMAP
FFF8
FFF8
FFF8
E000
ENDCHAR
STARTCHAR 00AE
ENCODING 174
SWIDTH 517 0
DWIDTH 23 0
BBX 18 18 3 17
BITMAP
07F000
1FFC00
3C0E00
700700
61E380
E3F180
C339C0
C338C0
C330C0
C3F0C0
C3E0C0
C330C0
E33980
631380
700700
3C0F00
1FFC00
07F800
ENDCHAR
STARTCHAR 00AF
ENCODING 175
SWIDTH 292 0
DWIDTH 13 0
BBX 17 3 -2 25
BITMAP
7FFF80
FFFF80
C00000
ENDCHAR
STARTCHAR 00B0
ENCODING 176
SWIDTH 405 0
DWIDTH 18 0
BBX 13 12 3 19
BITMAP
1F80
3FE0
79F0
F0F0
F0F0
F0F8
F078
F0F0
F8F0
7FE0
3FC0
0600
ENDCHAR
STARTCHAR 00B1
ENCODING 177
SWIDTH 540 0
DWIDTH 24 0
BBX 20 20 2 2
BITMAP
007000
007000
007000
007000
007000
007000
007000
3FFFC0
3FFFC0
3C7000
007000
007000
007000
007000
007000
006000
000000
7FFFF0
7FFFF0
FFFFF0
ENDCHAR
STARTCHAR 00B2
ENCODING 178
SWIDTH 360 0
DWIDTH 16 0
BBX 13 16 2 18
BITMAP
3FC0
FFE0
FBF0
F1F0
F1F0
E1F0
01F0
03E0
07C0
0F80
1E38
3C38
7FF8
FFF8
FFF8
FFF8
ENDCHAR
STARTCHAR 00B3
ENCODING 179
SWIDTH 382 0
DWIDTH 17 0
BBX 13 21 2 13
BITMAP
7FF0
7FF0
7FF0
7FE0
F1C0
E3C0
0380
0700
0E00
1FE0
0FF0
01F8
00F8
00F8
00F8
00F8
00F8
01F0
E7F0
FFC0
7F80
ENDCHAR
STARTCHAR 00B4
ENCODING 180
SWIDTH 292 0
DWIDTH 13 0
BBX 9 8 2 24
BITMAP
1F80
1F00
3E00
3E00
3C00
7800
7000
F000
ENDCHAR
STARTCHAR 00B5
ENCODING 181
SWIDTH 630 0
DWIDTH 28 0
BBX 25 32 2 -11
BITMAP
01000800
1F87FC00
FF87FC00
FF87FC00
7F81FC00
3F80FC00
3F80FC00
3F80FC00
3F80FC00
3F80FC00
3F80FC00
3F80FC00
3F80FC00
3F80FC00
3F81FC00
3F81FC00
3F83FE00
3FC77F80
3FFFFF80
3FFE7F80
3FF87800
3F000000
3F000000
3F000000
3F000000
3F000000
3F000000
3F000000
3F000000
3E000000
38000000
10000000
ENDCHAR
STARTCHAR 00B6
ENCODING 182
SWIDTH 585 0
DWIDTH 26 0
BBX 23 41 2 -11
BITMAP
03FFFE
1FFFFE
3FEEFE
7F0E70
FE0E70
FC0E70
FC0E70
FC0E70
FC0E70
FC0E70
FC0E70
FE0E70
FF0E70
7F8E70
3FFE70
0FFE70
017E70
000E70
000E70
000E70
000E70
000E70
000E70
000E70
000E70
000E70
000E70
000E70
000E70
000E70
000E70
000E70
000E70
000E70
000E70
000E70
000E70
000E70
000E70
000E70
000E70
ENDCHAR
STARTCHAR 00B7
ENCODING 183
SWIDTH 270 0
DWIDTH 12 0
BBX 7 7 3 8
BITMAP
78
FC
FE
FE
FE
FC
78
ENDCHAR
STARTCHAR 00B8
ENCODING 184
SWIDTH 292 0
DWIDTH 13 0
BBX 7 12 3 -11
BITMAP
38
38
70
F8
FC
7E
1E
0E
1E
3C
F8
E0
ENDCHAR
STARTCHAR 00B9
ENCODING 185
SWIDTH 315 0
DWIDTH 14 0
BBX 10 16 2 18
BITMAP
FFC0
FFC0
FFC0
3F00
1F00
1F00
1F00
1F00
1F00
1F00
1F00
1F00
3F00
FFC0
FFC0
FFC0
ENDCHAR
STARTCHAR 00BA
ENCODING 186
SWIDTH 427 0
DWIDTH 19 0
BBX 16 16 2 16
BITMAP
07E0
1FF8
3EFC
7C7E
F83E
F83E
F83F
F83F
F83F
F83F
F83E
F83E
FC3E
7E7C
3FF8
0FE0
ENDCHAR
STARTCHAR 00BB
ENCODING 187
SWIDTH 495 0
DWIDTH 22 0
BBX 17 15 3 3
BITMAP
E0E000
F0F000
787C00
7C3E00
3E3F00
3F1F80
1F0F80
1F0F80
1F1F00
3E1E00
7C3C00
787800
F0F000
60E000
006000
ENDCHAR
STARTCHAR 00BC
ENCODING 188
SWIDTH 855 0
DWIDTH 38 0
BBX 35 32 2 0
BITMAP
0780000400
FFC0000F00
FFC0001E00
FFC0003C00
0FC0003800
0FC0007800
0FC000F000
0FC001E000
0FC001C000
0FC003C000
0FC0078000
0FC00F0000
0FC00E0F00
0FC01E1F00
0FC03C1F00
0FC0383F00
1FC0787F00
FFF8F0FF00
FFF9E0DF00
FFF9C1DF00
0003C39F00
0007871F00
000F0E1F00
000E0FFFE0
001E1FFFE0
003C1FFFE0
00780FFFE0
0070001F00
00F0001F00
01E0007FC0
01C000FFE0
03C000FFE0
ENDCHAR
STARTCHAR 00BD
ENCODING 189
SWIDTH 967 0
DWIDTH 43 0
BBX 41 32 2 0
BITMAP
078000040000
FFC0000F0000
FFC0001E0000
FFC0003C0000
0FC000380000
0FC000780000
0FC000F00000
0FC001E00000
0FC001C00000
0FC003C00000
0FC007800000
0FC00F000000
0FC00E0FF000
0FC01E7FFC00
0FC03C3FFE00
0FC0383C7F00
1FC078387F00
FFF8F0787F00
FFF9E0787E00
FFF9C0187E00
0003C0007C00
00078000F800
000F0001F000
000E0003E000
001E0007C600
003C000F8700
0078001F0F00
0070003FFF00
00F0007FFF00
01E0007FFF80
01C0007FFF80
03C0003FFF00
ENDCHAR
STARTCHAR 00BE
ENCODING 190
SWIDTH 855 0
DWIDTH 38 0
BBX 36 32 1 0
BITMAP
7FFC000400
7FFC000F00
7FF8001E00
7FF8001C00
7FF0003C00
71E0007800
61C0007000
038000F000
07E001E000
0FF803C000
0FFC038000
03FC078000
00FC0F0F00
007E1E0F00
007C1C1F00
007C3C3F00
00FC783F00
FFF8F06F00
FFE0E0EF00
3F01E1CF00
0003C38F00
0003838F00
0007070F00
000F0FFFE0
001E0FFFF0
001C0FFFE0
003C0FFFE0
0078000F00
00F0001F80
00E0007FC0
01E000FFE0
01C000FFE0
ENDCHAR
STARTCHAR 00BF
ENCODING 191
SWIDTH 517 0
DWIDTH 23 0
BBX 16 32 3 -11
BITMAP
0180
07E0
0FF0
0FF0
0FF0
0FF0
07E0
0180
0000
0000
03C0
03C0
01E0
01E0
01E0
01E0
03E0
03E0
07E0
0FC0
1FC0
3F80
7F00
7E00
FE0E
FC0F
FC0F
FC1F
FE1F
7F3F
7FFF
1FFC
ENDCHAR
STARTCHAR 00C0
ENCODING 192
SWIDTH 697 0
DWIDTH 31 0
BBX 30 39 1 0
BITMAP
003C0000
007C0000
003E0000
001E0000
000F0000
00070000
00000000
00000000
00000000
00070000
000F0000
000F8000
000F8000
001FC000
001FC000
003FE000
003FE000
0037F000
0077F000
0067F000
00E3F800
00E3F800
01C1FC00
01C1FC00
01C1FE00
0380FE00
0380FF00
07007F00
07FFFF00
07FFFF80
0FFFBF80
0E003FC0
1C001FC0
1C001FE0
3C000FE0
3C000FF0
FF003FFC
FF007FFC
FF007FFC
ENDCHAR
STARTCHAR 00C1
ENCODING 193
SWIDTH 697 0
DWIDTH 31 0
BBX 30 39 1 0
BITMAP
0003F000
0003E000
0003C000
00078000
00078000
000F0000
00000000
00000000
00000000
00070000
000F0000
000F8000
000F8000
001FC000
001FC000
003FE000
003FE000
0037F000
0077F000
0067F000
00E3F800
00E3F800
01C1FC00
01C1FC00
01C1FE00
0380FE00
0380FF00
07007F00
07FFFF00
07FFFF80
0FFFBF80
0E003FC0
1C001FC0
1C001FE0
3C000FE0
3C000FF0
FF003FFC
FF007FFC
FF007FFC
ENDCHAR
STARTCHAR 00C2
ENCODING 194
SWIDTH 697 0
DWIDTH 31 0
BBX 30 39 1 0
BITMAP
000F8000
001FC000
003FE000
00FFF000
01F9FC00
01E07800
00801000
00000000
00000000
00070000
000F0000
000F8000
000F8000
001FC000
001FC000
003FE000
003FE000
0037F000
0077F000
0067F000
00E3F800
00E3F800
01C1FC00
01C1FC00
01C1FE00
0380FE00
0380FF00
07007F00
07FFFF00
07FFFF80
0FFFBF80
0E003FC0
1C001FC0
1C001FE0
3C000FE0
3C000FF0
FF003FFC
FF007FFC
FF007FFC
ENDCHAR
STARTCHAR 00C3
ENCODING 195
SWIDTH 697 0
DWIDTH 31 0
BBX 30 39 1 0
BITMAP
00100000
00FF0C00
01FFFC00
03FFFC00
038FF800
0103E000
00000000
00000000
00000000
00070000
000F0000
000F8000
000F8000
001FC000
001FC000
003FE000
003FE000
0037F000
0077F000
0067F000
00E3F800
00E3F800
01C1FC00
01C1FC00
01C1FE00
0380FE00
0380FF00
07007F00
07FFFF00
07FFFF80
0FFFBF80
0E003FC0
1C001FC0
1C001FE0
3C000FE0
3C000FF0
FF003FFC
FF007FFC
FF007FFC
ENDCHAR
STARTCHAR 00C4
ENCODING 196
SWIDTH 697 0
DWIDTH 31 0
BBX 30 38 1 0
BITMAP
01F07C00
03F8FE00
03F8FE00
03F8FE00
03F0FC00
00E03800
00000000
00000000
00070000
000F0000
000F8000
000F8000
001FC000
001FC000
003FE000
003FE000
0037F000
0077F000
0067F000
00E3F800
00E3F800
01C1FC00
01C1FC00
01C1FE00
0380FE00
0380FF00
07007F00
07FFFF00
07FFFF80
0FFFBF80
0E003FC0
1C001FC0
1C001FE0
3C000FE0
3C000FF0
FF003FFC
FF007FFC
FF007FFC
ENDCHAR
STARTCHAR 00C5
ENCODING 197
SWIDTH 697 0
DWIDTH 31 0
BBX 30 39 1 0
BITMAP
001FC000
0039E000
0078E000
0078E000
0078E000
003FC000
001F8000
00000000
00000000
00070000
000F0000
000F8000
000F8000
001FC000
001FC000
003FE000
003FE000
0037F000
0077F000
0067F000
00E3F800
00E3F800
01C1FC00
01C1FC00
01C1FE00
0380FE00
0380FF00
07007F00
07FFFF00
07FFFF80
0FFFBF80
0E003FC0
1C001FC0
1C001FE0
3C000FE0
3C000FF0
FF003FFC
FF007FFC
FF007FFC
ENDCHAR
STARTCHAR 00C6
ENCODING 198
SWIDTH 945 0
DWIDTH 42 0
BBX 40 30 1 0
BITMAP
0007FFFFFC
0007FFFFFC
0007FFFFFC
0001EFC07C
0001FFC03C
0001DFC01C
0003DFC01E
00039FC01C
00079FC000
00071FC000
000E1FC000
000E1FC1C0
001C1FC1C0
003C1FC1C0
00381FCFC0
007FFFFFC0
007FFFFFC0
00F01FC3C0
01E01FC1C0
01C01FC1C0
03C01FC1C0
03801FC000
07001FC007
07001FC00F
0F001FC00F
1E001FC01F
3F001FE03E
FF807FFFFE
FFC0FFFFFE
FFC0FFFFFE
ENDCHAR
STARTCHAR 00C7
ENCODING 199
SWIDTH 630 0
DWIDTH 28 0
BBX 25 41 2 -11
BITMAP
007FF800
01FFFF00
07F87F00
0FE01F00
1F800F00
3F800F00
3F000F00
7F000F00
7E000F00
FE000000
FE000000
FE000000
FE000000
FE000000
FE000000
FE000000
FE000000
FE000000
FE000000
FE000000
FF000000
7F000000
7F800000
3F800000
3FC00000
1FF00180
0FFC0F80
07FFFF00
01FFFC00
007FF000
000E0000
000E0000
001F0000
001F8000
001FC000
0003C000
0003C000
0003C000
00078000
001F0000
001C0000
ENDCHAR
STARTCHAR 00C8
ENCODING 200
SWIDTH 607 0
DWIDTH 27 0
BBX 24 39 2 0
BITMAP
01E000
03F000
01F000
00F000
007800
003C00
000000
000000
000000
FFFFFC
FFFFFC
FFFFFC
1FC07C
1FC03C
1FC01E
1FC01E
1FC01C
1FC000
1FC000
1FC1C0
1FC1C0
1FC1C0
1FC7C0
1FFFC0
1FFFC0
1FC7C0
1FC1C0
1FC1C0
1FC1C0
1FC000
1FC000
1FC007
1FC00F
1FC00F
1FC01F
3FE03F
FFFFFE
FFFFFE
FFFFFE
ENDCHAR
STARTCHAR 00C9
ENCODING 201
SWIDTH 607 0
DWIDTH 27 0
BBX 24 39 2 0
BITMAP
000F80
001F00
001E00
003E00
003C00
007800
000000
000000
000000
FFFFFC
FFFFFC
FFFFFC
1FC07C
1FC03C
1FC01E
1FC01E
1FC01C
1FC000
1FC000
1FC1C0
1FC1C0
1FC1C0
1FC7C0
1FFFC0
1FFFC0
1FC7C0
1FC1C0
1FC1C0
1FC1C0
1FC000
1FC000
1FC007
1FC00F
1FC00F
1FC01F
3FE03F
FFFFFE
FFFFFE
FFFFFE
ENDCHAR
STARTCHAR 00CA
ENCODING 202
SWIDTH 607 0
DWIDTH 27 0
BBX 24 39 2 0
BITMAP
003C00
00FE00
01FF00
03FF80
0FCFE0
0F03E0
040080
000000
000000
FFFFFC
FFFFFC
FFFFFC
1FC07C
1FC03C
1FC01E
1FC01E
1FC01C
1FC000
1FC000
1FC1C0
1FC1C0
1FC1C0
1FC7C0
1FFFC0
1FFFC0
1FC7C0
1FC1C0
1FC1C0
1FC1C0
1FC000
1FC000
1FC007
1FC00F
1FC00F
1FC01F
3FE03F
FFFFFE
FFFFFE
FFFFFE
ENDCHAR
STARTCHAR 00CB
ENCODING 203
SWIDTH 607 0
DWIDTH 27 0
BBX 24 38 2 0
BITMAP
0F83E0
1FC7F0
1FC7F0
1FC7F0
0F83E0
0701C0
000000
000000
FFFFFC
FFFFFC
FFFFFC
1FC07C
1FC03C
1FC01E
1FC01E
1FC01C
1FC000
1FC000
1FC1C0
1FC1C0
1FC1C0
1FC7C0
1FFFC0
1FFFC0
1FC7C0
1FC1C0
1FC1C0
1FC1C0
1FC000
1FC000
1FC007
1FC00F
1FC00F
1FC01F
3FE03F
FFFFFE
FFFFFE
FFFFFE
ENDCHAR
STARTCHAR 00CC
ENCODING 204
SWIDTH 360 0
DWIDTH 16 0
BBX 13 39 2 0
BITMAP
3C00
7E00
3E00
1F00
0F00
0780
0000
0000
0000
FFF8
FFF8
FFF8
1FC0
1FC0
1FC0
1FC0
1FC0
1FC0
1FC0
1FC0
1FC0
1FC0
1FC0
1FC0
1FC0
1FC0
1FC0
1FC0
1FC0
1FC0
1FC0
1FC0
1FC0
1FC0
1FC0
1FC0
FFF8
FFF8
FFF8
ENDCHAR
STARTCHAR 00CD
ENCODING 205
SWIDTH 360 0
DWIDTH 16 0
BBX 13 39 2 0
BITMAP
01F0
03E0
03C0
07C0
0780
0F00
0000
0000
0000
FFF8
FFF8
FFF8
1FC0
1FC0
1FC0
1FC0
1FC0
1FC0
1FC0
1FC0
1FC0
1FC0
1FC0
1FC0
1FC0
1FC0
1FC0
1FC0
1FC0
1FC0
1FC0
1FC0
1FC0
1FC0
1FC0
1FC0
FFF8
FFF8
FFF8
ENDCHAR
STARTCHAR 00CE
ENCODING 206
SWIDTH 360 0
DWIDTH 16 0
BBX 13 39 2 0
BITMAP
0700
0F80
1FC0
3FE0
7FF0
F1F8
E078
0000
0000
FFF8
FFF8
FFF8
1FC0
1FC0
1FC0
1FC0
1FC0
1FC0
1FC0
1FC0
1FC0
1FC0
1FC0
1FC0
1FC0
1FC0
1FC0
1FC0
1FC0
1FC0
1FC0
1FC0
1FC0
1FC0
1FC0
1FC0
FFF8
FFF8
FFF8
ENDCHAR
STARTCHAR 00CF
ENCODING 207
SWIDTH 360 0
DWIDTH 16 0
BBX 15 38 1 0
BITMAP
787C
FC7E
FEFE
FEFE
FC7E
783C
0000
0000
7FFC
7FFC
7FFC
0FE0
0FE0
0FE0
0FE0
0FE0
0FE0
0FE0
0FE0
0FE0
0FE0
0FE0
0FE0
0FE0
0FE0
0FE0
0FE0
0FE0
0FE0
0FE0
0FE0
0FE0
0FE0
0FE0
0FE0
7FFC
7FFC
7FFC
ENDCHAR
STARTCHAR 00D0
ENCODING 208
SWIDTH 720 0
DWIDTH 32 0
BBX 30 30 1 0
BITMAP
7FFFF000
7FFFFE00
7FF9FF80
0FE03FC0
0FE01FE0
0FE007F0
0FE007F8
0FE003F8
0FE003F8
0FE001FC
0FE001FC
0FE001FC
0FE001FC
7FFF81FC
FFFF81FC
FFFF81FC
FFE001FC
0FE001FC
0FE001FC
0FE001F8
0FE001F8
0FE003F8
0FE003F0
0FE007F0
0FE007E0
0FE00FC0
1FF03F80
7FFFFF00
7FFFFC00
7FFFC000
ENDCHAR
STARTCHAR 00D1
ENCODING 209
SWIDTH 720 0
DWIDTH 32 0
BBX 29 39 2 0
BITMAP
00100000
00FF0C00
01FFFC00
03FFFC00
038FF800
0103E000
00000000
00000000
00000000
FF801FF8
FF801FF8
FFC01FF0
3FE003C0
1FF003C0
1FF001C0
1FF801C0
1FFC01C0
1FFE01C0
1DFE01C0
1CFF01C0
1CFF81C0
1C7FC1C0
1C3FC1C0
1C1FE1C0
1C1FF1C0
1C0FF9C0
1C07F9C0
1C03FDC0
1C03FFC0
1C01FFC0
1C00FFC0
1C007FC0
1C007FC0
1C003FC0
1C001FC0
3E000FC0
FF800FC0
FF8007C0
FFC003C0
ENDCHAR
STARTCHAR 00D2
ENCODING 210
SWIDTH 742 0
DWIDTH 33 0
BBX 30 39 2 0
BITMAP
003C0000
007E0000
003E0000
001F0000
000F0000
00078000
00000000
00000000
00000000
007FF000
01FFFE00
07F1FF00
0FC03F80
1F801FC0
3F000FE0
3F000FF0
7E0007F0
7E0007F8
FE0003F8
FE0003F8
FE0003F8
FC0003FC
FC0001FC
FC0001FC
FE0001FC
FE0001FC
FE0001F8
FE0003F8
FE0003F8
FE0003F8
7F0003F0
7F0003F0
3F8007E0
3F800FE0
1FC00FC0
0FF01F80
07FEFF00
01FFFC00
007FF000
ENDCHAR
STARTCHAR 00D3
ENCODING 211
SWIDTH 742 0
DWIDTH 33 0
BBX 30 39 2 0
BITMAP
0001F000
0003E000
0003E000
0007C000
00078000
000F0000
00000000
00000000
00000000
007FF000
01FFFE00
07F1FF00
0FC03F80
1F801FC0
3F000FE0
3F000FF0
7E0007F0
7E0007F8
FE0003F8
FE0003F8
FE0003F8
FC0003FC
FC0001FC
FC0001FC
FE0001FC
FE0001FC
FE0001F8
FE0003F8
FE0003F8
FE0003F8
7F0003F0
7F0003F0
3F8007E0
3F800FE0
1FC00FC0
0FF01F80
07FEFF00
01FFFC00
007FF000
ENDCHAR
STARTCHAR 00D4
ENCODING 212
SWIDTH 742 0
DWIDTH 33 0
BBX 30 39 2 0
BITMAP
00078000
001FC000
003FE000
007FF000
01F9FC00
01E07C00
00801000
00000000
00000000
007FF000
01FFFE00
07F1FF00
0FC03F80
1F801FC0
3F000FE0
3F000FF0
7E0007F0
7E0007F8
FE0003F8
FE0003F8
FE0003F8
FC0003FC
FC0001FC
FC0001FC
FE0001FC
FE0001FC
FE0001F8
FE0003F8
FE0003F8
FE0003F8
7F0003F0
7F0003F0
3F8007E0
3F800FE0
1FC00FC0
0FF01F80
07FEFF00
01FFFC00
007FF000
ENDCHAR
STARTCHAR 00D5
ENCODING 213
SWIDTH 742 0
DWIDTH 33 0
BBX 30 39 2 0
BITMAP
00180000
00FF0E00
01FFFE00
03FFFC00
03CFF800
0103F000
00000000
00000000
00000000
007FF000
01FFFE00
07F1FF00
0FC03F80
1F801FC0
3F000FE0
3F000FF0
7E0007F0
7E0007F8
FE0003F8
FE0003F8
FE0003F8
FC0003FC
FC0001FC
FC0001FC
FE0001FC
FE0001FC
FE0001F8
FE0003F8
FE0003F8
FE0003F8
7F0003F0
7F0003F0
3F8007E0
3F800FE0
1FC00FC0
0FF01F80
07FEFF00
01FFFC00
007FF000
ENDCHAR
STARTCHAR 00D6
ENCODING 214
SWIDTH 742 0
DWIDTH 33 0
BBX 30 38 2 0
BITMAP
01F07C00
03F8FE00
03F8FE00
03F8FE00
01F07C00
00E03800
00000000
00000000
007FF000
01FFFE00
07F1FF00
0FC03F80
1F801FC0
3F000FE0
3F000FF0
7E0007F0
7E0007F8
FE0003F8
FE0003F8
FE0003F8
FC0003FC
FC0001FC
FC0001FC
FE0001FC
FE0001FC
FE0001F8
FE0003F8
FE0003F8
FE0003F8
7F0003F0
7F0003F0
3F8007E0
3F800FE0
1FC00FC0
0FF01F80
07FEFF00
01FFFC00
007FF000
ENDCHAR
STARTCHAR 00D7
ENCODING 215
SWIDTH 540 0
DWIDTH 24 0
BBX 21 21 2 1
BITMAP
600070
F000F0
7801E0
7C03C0
3E07C0
1F0780
0F8F00
079E00
03FC00
01F800
00F000
01F800
03FC00
079E00
078F00
0F0780
1E03C0
3C03E0
7801F0
F000F8
E00070
ENDCHAR
STARTCHAR 00D8
ENCODING 216
SWIDTH 742 0
DWIDTH 33 0
BBX 30 32 2 -1
BITMAP
00000070
007FF0F0
01FFFFF0
07F1FFE0
0FC03FC0
1F801FC0
3F000FE0
3F001FF0
7E003FF0
7E003FF8
FE007BF8
FE00F3F8
FE01E3F8
FC01E3FC
FC03C1FC
FC0781FC
FE0F01FC
FE0F01FC
FE1E01F8
FE3C03F8
FE7803F8
FEF803F8
7FF003F0
7FE003F0
3FC007E0
3F800FE0
1FC00FC0
0FF01F80
1FFEFF00
3DFFFC00
787FF000
70000000
ENDCHAR
STARTCHAR 00D9
ENCODING 217
SWIDTH 675 0
DWIDTH 30 0
BBX 28 39 1 0
BITMAP
001F0000
001F0000
000F8000
00078000
0003C000
0003C000
00000000
00000000
00000000
FFF81FF0
FFF81FF0
7FF81FF0
1FE007C0
1FC00380
1FC00380
1FC00380
1FC00380
1FC00380
1FC00380
1FC00380
1FC00380
1FC00380
1FC00380
1FC00380
1FC00380
1FC00380
1FC00380
1FC00380
1FC00380
1FC00380
1FC00380
0FC00380
0FE00380
0FE00700
0FF00700
07F81E00
03FFFE00
01FFFC00
007FF000
ENDCHAR
STARTCHAR 00DA
ENCODING 218
SWIDTH 675 0
DWIDTH 30 0
BBX 28 39 1 0
BITMAP
0000FC00
0000F800
0001F000
0001E000
0003C000
0003C000
00000000
00000000
00000000
FFF81FF0
FFF81FF0
7FF81FF0
1FE007C0
1FC00380
1FC00380
1FC00380
1FC00380
1FC00380
1FC00380
1FC00380
1FC00380
1FC00380
1FC00380
1FC00380
1FC00380
1FC00380
1FC00380
1FC00380
1FC00380
1FC00380
1FC00380
0FC00380
0FE00380
0FE00700
0FF00700
07F81E00
03FFFE00
01FFFC00
007FF000
ENDCHAR
STARTCHAR 00DB
ENCODING 219
SWIDTH 675 0
DWIDTH 30 0
BBX 28 39 1 0
BITMAP
0003C000
0007F000
000FF800
003FFC00
007C7E00
00701E00
00200000
00000000
00000000
FFF81FF0
FFF81FF0
7FF81FF0
1FE007C0
1FC00380
1FC00380
1FC00380
1FC00380
1FC00380
1FC00380
1FC00380
1FC00380
1FC00380
1FC00380
1FC00380
1FC00380
1FC00380
1FC00380
1FC00380
1FC00380
1FC00380
1FC00380
0FC00380
0FE00380
0FE00700
0FF00700
07F81E00
03FFFE00
01FFFC00
007FF000
ENDCHAR
STARTCHAR 00DC
ENCODING 220
SWIDTH 675 0
DWIDTH 30 0
BBX 28 38 1 0
BITMAP
00FC3F00
00FC3F00
00FC3F00
00FC3F00
00FC3F00
00780E00
00000000
00000000
FFF81FF0
FFF81FF0
7FF81FF0
1FE007C0
1FC00380
1FC00380
1FC00380
1FC00380
1FC00380
1FC00380
1FC00380
1FC00380
1FC00380
1FC00380
1FC00380
1FC00380
1FC00380
1FC00380
1FC00380
1FC00380
1FC00380
1FC00380
0FC00380
0FE00380
0FE00700
0FF00700
07F81E00
03FFFE00
01FFFC00
007FF000
ENDCHAR
STARTCHAR 00DD
ENCODING 221
SWIDTH 630 0
DWIDTH 28 0
BBX 26 39 1 0
BITMAP
0001F800
0001F000
0003E000
0003C000
00078000
00078000
00000000
00000000
00000000
FFF83FC0
FFF83FC0
FFF03FC0
3FE00F00
1FE00F00
1FE00E00
0FE01C00
0FF01C00
07F03800
07F83800
03F83000
03FC7000
01FC7000
01FEE000
00FEE000
00FFC000
007FC000
007F8000
003F8000
003F8000
003F8000
003F8000
003F8000
003F8000
003F8000
003F8000
007F8000
03FFF800
07FFF800
07FFF800
ENDCHAR
STARTCHAR 00DE
ENCODING 222
SWIDTH 630 0
DWIDTH 28 0
BBX 25 30 2 0
BITMAP
FFF80000
FFF80000
FFF80000
1FC00000
1FC00000
1FC00000
1FFFE000
1FFFFC00
1FFFFE00
1FC0FE00
1FC07F00
1FC03F00
1FC03F80
1FC03F80
1FC03F80
1FC03F80
1FC03F00
1FC03F00
1FC03F00
1FC07E00
1FC3FC00
1FDFF800
1FDFE000
1FC00000
1FC00000
1FC00000
1FE00000
FFFC0000
FFFC0000
FFFE0000
ENDCHAR
STARTCHAR 00DF
ENCODING 223
SWIDTH 675 0
DWIDTH 30 0
BBX 28 32 1 0
BITMAP
000FC000
007FF800
01FFFC00
03F0FE00
07E07E00
07C03F00
07C03F00
0FC01F00
0FC03E00
0FC03E00
0FC07C00
0FC0F000
7FC3E000
FFC7E000
FFC7E000
0FC7E000
0FC7F800
0FC7FC00
0FC7FF00
0FC3FFC0
0FC1FFC0
0FC0FFE0
0FC03FF0
0FC01FF0
0FC00FF0
0FC707F0
0FC703F0
0FC703E0
1FC787E0
7FC7CFC0
7FC7FF80
7FC3FE00
ENDCHAR
STARTCHAR 00E0
ENCODING 224
SWIDTH 540 0
DWIDTH 24 0
BBX 21 32 3 0
BITMAP
0F0000
3F0000
1F0000
0F8000
078000
03C000
03C000
01E000
000000
000000
000000
00F800
03FE00
0FFF00
1CFF80
3C3F80
7C1FC0
FC1FC0
FC1FC0
301FC0
007FC0
01FFC0
07DFC0
3F1FC0
7C1F80
FC1F80
FC1FC0
FC1FC0
FE1FF8
FFFFF8
7FFFF8
3F8FE0
ENDCHAR
STARTCHAR 00E1
ENCODING 225
SWIDTH 540 0
DWIDTH 24 0
BBX 21 32 3 0
BITMAP
007E00
007C00
007C00
00F800
00F000
00E000
01E000
01C000
000000
000000
000000
00F800
03FE00
0FFF00
1CFF80
3C3F80
7C1FC0
FC1FC0
FC1FC0
301FC0
007FC0
01FFC0
07DFC0
3F1FC0
7C1F80
FC1F80
FC1FC0
FC1FC0
FE1FF8
FFFFF8
7FFFF8
3F8FE0
ENDCHAR
STARTCHAR 00E2
ENCODING 226
SWIDTH 540 0
DWIDTH 24 0
BBX 21 32 3 0
BITMAP
00E000
01E000
03F000
07F800
1FFC00
3E7E00
7C1F00
700F80
600300
000000
000000
00F800
03FE00
0FFF00
1CFF80
3C3F80
7C1FC0
FC1FC0
FC1FC0
301FC0
007FC0
01FFC0
07DFC0
3F1FC0
7C1F80
FC1F80
FC1FC0
FC1FC0
FE1FF8
FFFFF8
7FFFF8
3F8FE0
ENDCHAR
STARTCHAR 00E3
ENCODING 227
SWIDTH 540 0
DWIDTH 24 0
BBX 21 30 3 0
BITMAP
1F0100
3FC780
7FFF00
FFFE00
C1FC00
003800
000000
000000
000000
00F800
03FE00
0FFF00
1CFF80
3C3F80
7C1FC0
FC1FC0
FC1FC0
301FC0
007FC0
01FFC0
07DFC0
3F1FC0
7C1F80
FC1F80
FC1FC0
FC1FC0
FE1FF8
FFFFF8
7FFFF8
3F8FE0
ENDCHAR
STARTCHAR 00E4
ENCODING 228
SWIDTH 540 0
DWIDTH 24 0
BBX 21 29 3 0
BITMAP
7C1F00
FE3F80
FE3F80
FE3F80
FC3F00
381F00
000000
000000
00F800
03FE00
0FFF00
1CFF80
3C3F80
7C1FC0
FC1FC0
FC1FC0
301FC0
007FC0
01FFC0
07DFC0
3F1FC0
7C1F80
FC1F80
FC1FC0
FC1FC0
FE1FF8
FFFFF8
7FFFF8
3F8FE0
ENDCHAR
STARTCHAR 00E5
ENCODING 229
SWIDTH 540 0
DWIDTH 24 0
BBX 21 32 3 0
BITMAP
03E000
0FF800
0E7800
1E3C00
1E3C00
1E3C00
0F7800
0FF000
03E000
000000
000000
00F800
03FE00
0FFF00
1CFF80
3C3F80
7C1FC0
FC1FC0
FC1FC0
301FC0
007FC0
01FFC0
07DFC0
3F1FC0
7C1F80
FC1F80
FC1FC0
FC1FC0
FE1FF8
FFFFF8
7FFFF8
3F8FE0
ENDCHAR
STARTCHAR 00E6
ENCODING 230
SWIDTH 720 0
DWIDTH 32 0
BBX 29 21 2 0
BITMAP
01E01E00
3FF8FF80
7FFDFFC0
7C3FE3E0
7C3FC3F0
781FC1F0
781F81F0
381F81F8
001F81F8
01FFFFF8
0FFFFFF0
3FFFC000
7E1F8000
FC1F8000
F81FC000
F83FC000
F83FE010
FC77F070
FFF3FFF0
7FE1FFE0
3F80FF80
ENDCHAR
STARTCHAR 00E7
ENCODING 231
SWIDTH 450 0
DWIDTH 20 0
BBX 18 32 2 -11
BITMAP
00F000
07FF00
1FFF80
3F0F80
7E0F80
7E0780
FC0780
FC0780
FC0000
FC0000
FC0000
FC0000
FC0000
FC0000
FE0000
FE0000
7F0080
7F8180
3FFFC0
1FFF80
07FE00
006000
00E000
01F000
01F800
01FC00
003C00
003C00
003C00
007800
01F000
01C000
ENDCHAR
STARTCHAR 00E8
ENCODING 232
SWIDTH 495 0
DWIDTH 22 0
BBX 19 32 2 0
BITMAP
078000
0F8000
07C000
07C000
03E000
01E000
00F000
00F000
000000
000000
000000
01F000
07FE00
1FFF00
3F1F80
7E0FC0
7E07C0
FC07E0
FC07E0
FC07E0
FFFFE0
FFFFE0
FFFFC0
FC0000
FC0000
FE0000
FE0000
7F0040
7F81E0
3FFFE0
1FFF80
07FE00
ENDCHAR
STARTCHAR 00E9
ENCODING 233
SWIDTH 495 0
DWIDTH 22 0
BBX 19 32 2 0
BITMAP
001F00
003F00
003E00
003C00
007800
007800
00F000
00E000
000000
000000
000000
01F000
07FE00
1FFF00
3F1F80
7E0FC0
7E07C0
FC07E0
FC07E0
FC07E0
FFFFE0
FFFFE0
FFFFC0
FC0000
FC0000
FE0000
FE0000
7F0040
7F81E0
3FFFE0
1FFF80
07FE00
ENDCHAR
STARTCHAR 00EA
ENCODING 234
SWIDTH 495 0
DWIDTH 22 0
BBX 19 32 2 0
BITMAP
003000
00F800
01FC00
03FE00
07FF00
0F9F80
3E0FC0
3C03C0
100180
000000
000000
01F000
07FE00
1FFF00
3F1F80
7E0FC0
7E07C0
FC07E0
FC07E0
FC07E0
FFFFE0
FFFFE0
FFFFC0
FC0000
FC0000
FE0000
FE0000
7F0040
7F81E0
3FFFE0
1FFF80
07FE00
ENDCHAR
STARTCHAR 00EB
ENCODING 235
SWIDTH 495 0
DWIDTH 22 0
BBX 19 29 2 0
BITMAP
3E0F80
3F0FC0
7F1FC0
7F1FC0
3F0FC0
1E0780
000000
000000
01F000
07FE00
1FFF00
3F1F80
7E0FC0
7E07C0
FC07E0
FC07E0
FC07E0
FFFFE0
FFFFE0
FFFFC0
FC0000
FC0000
FE0000
FE0000
7F0040
7F81E0
3FFFE0
1FFF80
07FE00
ENDCHAR
STARTCHAR 00EC
ENCODING 236
SWIDTH 337 0
DWIDTH 15 0
BBX 13 32 1 0
BITMAP
3C00
FC00
7E00
3E00
1E00
0F00
0700
0780
0000
0000
0000
0080
1FC0
7FC0
7FC0
3FC0
1FC0
0FC0
0FC0
0FC0
0FC0
0FC0
0FC0
0FC0
0FC0
0FC0
0FC0
0FC0
1FE0
7FF8
7FF8
7FF8
ENDCHAR
STARTCHAR 00ED
ENCODING 237
SWIDTH 337 0
DWIDTH 15 0
BBX 12 32 2 0
BITMAP
01F0
03F0
03E0
03C0
0780
0780
0F00
0E00
0000
0000
0000
0100
3F80
FF80
FF80
7F80
3F80
1F80
1F80
1F80
1F80
1F80
1F80
1F80
1F80
1F80
1F80
1F80
3FC0
FFF0
FFF0
FFF0
ENDCHAR
STARTCHAR 00EE
ENCODING 238
SWIDTH 337 0
DWIDTH 15 0
BBX 13 32 1 0
BITMAP
0300
0780
0FC0
1FC0
3FE0
79F0
F0F8
E078
6030
0000
0000
0080
1FC0
7FC0
7FC0
3FC0
1FC0
0FC0
0FC0
0FC0
0FC0
0FC0
0FC0
0FC0
0FC0
0FC0
0FC0
0FC0
1FE0
7FF8
7FF8
7FF8
ENDCHAR
STARTCHAR 00EF
ENCODING 239
SWIDTH 337 0
DWIDTH 15 0
BBX 15 29 0 0
BITMAP
7C7C
FC7E
FEFE
FEFE
FC7E
783C
0000
0000
0040
0FE0
3FE0
3FE0
1FE0
0FE0
07E0
07E0
07E0
07E0
07E0
07E0
07E0
07E0
07E0
07E0
07E0
0FF0
3FFC
3FFC
3FFC
ENDCHAR
STARTCHAR 00F0
ENCODING 240
SWIDTH 562 0
DWIDTH 25 0
BBX 22 32 2 0
BITMAP
006000
0FF000
0FFC30
0FFFF0
03FFF0
00FFC0
007F80
01FFC0
03EFE0
038FE0
0207F0
0027F0
07FFF0
1FFFF8
3F87F8
7F01F8
7E01F8
FE01F8
FC01FC
FC01FC
FC01FC
FC01F8
FC01F8
FC01F8
FC01F8
FC01F8
FE03F0
7E03F0
7F07E0
3FFFC0
1FFF80
07FE00
ENDCHAR
STARTCHAR 00F1
ENCODING 241
SWIDTH 652 0
DWIDTH 29 0
BBX 26 30 2 0
BITMAP
00F81000
03FE3800
07FFF800
0FFFF000
060FE000
04038000
00000000
00000000
00000000
01018000
3F8FF000
FF9FFC00
FFFFFC00
7FFBFE00
3F80FE00
1F80FE00
1F807E00
1F807E00
1F807E00
1F807E00
1F807E00
1F807E00
1F807E00
1F807E00
1F807E00
1F807E00
3FC0FF00
FFF3FFC0
FFF3FFC0
FFF3FFC0
ENDCHAR
STARTCHAR 00F2
ENCODING 242
SWIDTH 562 0
DWIDTH 25 0
BBX 22 32 2 0
BITMAP
03C000
0FC000
07E000
03E000
01E000
00F000
00F000
007800
000000
000000
000000
00FC00
07FF80
1FFFC0
3F0FE0
7E07F0
7E03F8
FC03F8
FC01F8
FC01FC
FC01FC
FC01FC
FC01FC
FC01FC
FC01FC
FE01F8
FE01F8
7F03F0
7F03F0
3FCFE0
1FFFC0
07FF00
ENDCHAR
STARTCHAR 00F3
ENCODING 243
SWIDTH 562 0
DWIDTH 25 0
BBX 22 32 2 0
BITMAP
000F80
001F00
001F00
003E00
003C00
003800
007800
007000
000000
000000
000000
00FC00
07FF80
1FFFC0
3F0FE0
7E07F0
7E03F8
FC03F8
FC01F8
FC01FC
FC01FC
FC01FC
FC01FC
FC01FC
FC01FC
FE01F8
FE01F8
7F03F0
7F03F0
3FCFE0
1FFFC0
07FF00
ENDCHAR
STARTCHAR 00F4
ENCODING 244
SWIDTH 562 0
DWIDTH 25 0
BBX 22 32 2 0
BITMAP
003800
007C00
00FC00
01FE00
03FF00
0FDF80
1F07C0
1C03E0
1800C0
000000
000000
00FC00
07FF80
1FFFC0
3F0FE0
7E07F0
7E03F8
FC03F8
FC01F8
FC01FC
FC01FC
FC01FC
FC01FC
FC01FC
FC01FC
FE01F8
FE01F8
7F03F0
7F03F0
3FCFE0
1FFFC0
07FF00
ENDCHAR
STARTCHAR 00F5
ENCODING 245
SWIDTH 562 0
DWIDTH 25 0
BBX 22 30 2 0
BITMAP
07C040
0FF0E0
1FFFC0
3FFFC0
303F80
000E00
000000
000000
000000
00FC00
07FF80
1FFFC0
3F0FE0
7E07F0
7E03F8
FC03F8
FC01F8
FC01FC
FC01FC
FC01FC
FC01FC
FC01FC
FC01FC
FE01F8
FE01F8
7F03F0
7F03F0
3FCFE0
1FFFC0
07FF00
ENDCHAR
STARTCHAR 00F6
ENCODING 246
SWIDTH 562 0
DWIDTH 25 0
BBX 22 29 2 0
BITMAP
1F07C0
3F8FE0
3F8FE0
3F8FE0
1F07E0
0E03C0
000000
000000
00FC00
07FF80
1FFFC0
3F0FE0
7E07F0
7E03F8
FC03F8
FC01F8
FC01FC
FC01FC
FC01FC
FC01FC
FC01FC
FC01FC
FE01F8
FE01F8
7F03F0
7F03F0
3FCFE0
1FFFC0
07FF00
ENDCHAR
STARTCHAR 00F7
ENCODING 247
SWIDTH 540 0
DWIDTH 24 0
BBX 21 21 2 1
BITMAP
00F000
01F800
01F800
01F800
00F800
007000
000000
000000
000000
FFFFF8
FFFFF8
FFFFF0
000000
000000
000000
00F000
01F800
01F800
01F800
00F800
006000
ENDCHAR
STARTCHAR 00F8
ENCODING 248
SWIDTH 562 0
DWIDTH 25 0
BBX 23 23 1 -1
BITMAP
00000C
007E1E
03FFFC
0FFFF8
1F87F0
3F03F8
3F03FC
7E07FC
7E0FFC
7E1FFE
7E1EFE
7E3CFE
7E78FE
7EF0FE
7FE0FE
7FC0FC
7FC0FC
3F81F8
3F81F8
1FE7F0
3FFFE0
7BFF80
F00000
ENDCHAR
STARTCHAR 00F9
ENCODING 249
SWIDTH 607 0
DWIDTH 27 0
BBX 25 32 1 0
BITMAP
00F00000
03F00000
01F00000
00F80000
00780000
00780000
003C0000
001C0000
00000000
00000000
00000000
01000800
3F87FC00
FF87FC00
FF87FC00
7F81FC00
3F80FC00
3F80FC00
1F80FC00
1F80FC00
1F80FC00
1F80FC00
1F80FC00
1F80FC00
1F80FC00
1F80FC00
1F80FC00
1FC0FE00
1FE0FF80
1FFFFF80
0FFEFF80
07F8F000
ENDCHAR
STARTCHAR 00FA
ENCODING 250
SWIDTH 607 0
DWIDTH 27 0
BBX 25 32 1 0
BITMAP
0007E000
0007C000
00078000
000F8000
000F0000
001E0000
001E0000
003C0000
00000000
00000000
00000000
01000800
3F87FC00
FF87FC00
FF87FC00
7F81FC00
3F80FC00
3F80FC00
1F80FC00
1F80FC00
1F80FC00
1F80FC00
1F80FC00
1F80FC00
1F80FC00
1F80FC00
1F80FC00
1FC0FE00
1FE0FF80
1FFFFF80
0FFEFF80
07F8F000
ENDCHAR
STARTCHAR 00FB
ENCODING 251
SWIDTH 607 0
DWIDTH 27 0
BBX 25 32 1 0
BITMAP
000C0000
001E0000
003F0000
007F8000
01FFC000
03E7E000
07C1F000
0F00F800
06003000
00000000
00000000
01000800
3F87FC00
FF87FC00
FF87FC00
7F81FC00
3F80FC00
3F80FC00
1F80FC00
1F80FC00
1F80FC00
1F80FC00
1F80FC00
1F80FC00
1F80FC00
1F80FC00
1F80FC00
1FC0FE00
1FE0FF80
1FFFFF80
0FFEFF80
07F8F000
ENDCHAR
STARTCHAR 00FC
ENCODING 252
SWIDTH 607 0
DWIDTH 27 0
BBX 25 29 1 0
BITMAP
07C1F000
0FC3F000
0FE3F800
0FE3F800
0FC3F000
0781E000
00000000
00000000
01000800
3F87FC00
FF87FC00
FF87FC00
7F81FC00
3F80FC00
3F80FC00
1F80FC00
1F80FC00
1F80FC00
1F80FC00
1F80FC00
1F80FC00
1F80FC00
1F80FC00
1F80FC00
1FC0FE00
1FE0FF80
1FFFFF80
0FFEFF80
07F8F000
ENDCHAR
STARTCHAR 00FD
ENCODING 253
SWIDTH 540 0
DWIDTH 24 0
BBX 23 43 1 -11
BITMAP
0003F0
0003E0
0003C0
0007C0
000780
000F00
000F00
001E00
000000
000000
000000
000000
FFF1FE
FFF1FE
7FE0FC
3FC078
1FC070
1FC070
0FE070
0FE0E0
07E0E0
07F1C0
07F1C0
03F980
03FB80
01FF80
01FF00
00FF00
00FE00
007E00
007C00
003C00
003C00
003800
003800
007000
007000
41E000
7FE000
7FC000
7FC000
7F8000
3F0000
ENDCHAR
STARTCHAR 00FE
ENCODING 254
SWIDTH 607 0
DWIDTH 27 0
BBX 25 43 1 -11
BITMAP
00800000
3FC00000
FFC00000
FFC00000
3FC00000
1FC00000
1FC00000
0FC00000
0FC00000
0FC00000
0FC00000
0FC1E000
0FCFF800
0FDFFE00
0FFFFF00
0FF07F00
0FE07F80
0FE03F80
0FC03F80
0FC03F80
0FC01F80
0FC01F80
0FC01F80
0FC01F80
0FC03F80
0FC03F00
0FC03F00
0FC07E00
0FC0FC00
0FF1F800
0FFFF000
0FFFC000
0FC00000
0FC00000
0FC00000
0FC00000
0FC00000
1FC00000
1FC00000
1FF00000
FFFC0000
FFFE0000
FFFE0000
ENDCHAR
STARTCHAR 00FF
ENCODING 255
SWIDTH 540 0
DWIDTH 24 0
BBX 23 40 1 -11
BITMAP
03E0F8
07E1F8
07F1FC
07F1FC
07E1F8
03C0F0
000000
000000
000000
FFF1FE
FFF1FE
7FE0FC
3FC078
1FC070
1FC070
0FE070
0FE0E0
07E0E0
07F1C0
07F1C0
03F980
03FB80
01FF80
01FF00
00FF00
00FE00
007E00
007C00
003C00
003C00
003800
003800
007000
007000
41E000
7FE000
7FC000
7FC000
7F8000
3F0000
ENDCHAR
STARTCHAR 0100
ENCODING 256
SWIDTH 697 0
DWIDTH 31 0
BBX 30 36 1 0
BITMAP
03FFFE00
03FFFE00
00000000
00000000
00000000
00000000
00070000
000F0000
000F8000
000F8000
001FC000
001FC000
003FE000
003FE000
0037F000
0077F000
0067F000
00E3F800
00E3F800
01C1FC00
01C1FC00
01C1FE00
0380FE00
0380FF00
07007F00
07FFFF00
07FFFF80
0FFFBF80
0E003FC0
1C001FC0
1C001FE0
3C000FE0
3C000FF0
FF003FFC
FF007FFC
FF007FFC
ENDCHAR
STARTCHAR 0101
ENCODING 257
SWIDTH 540 0
DWIDTH 24 0
BBX 21 28 3 0
BITMAP
FFFF80
FFFF80
800000
000000
000000
000000
000000
00F800
03FE00
0FFF00
1CFF80
3C3F80
7C1FC0
FC1FC0
FC1FC0
301FC0
007FC0
01FFC0
07DFC0
3F1FC0
7C1F80
FC1F80
FC1FC0
FC1FC0
FE1FF8
FFFFF8
7FFFF8
3F8FE0
ENDCHAR
STARTCHAR 0102
ENCODING 258
SWIDTH 697 0
DWIDTH 31 0
BBX 30 39 1 0
BITMAP
01C01C00
01E03C00
01F07800
01FFF800
00FFF000
007FE000
000F8000
00000000
00000000
00070000
000F0000
000F8000
000F8000
001FC000
001FC000
003FE000
003FE000
0037F000
0077F000
0067F000
00E3F800
00E3F800
01C1FC00
01C1FC00
01C1FE00
0380FE00
0380FF00
07007F00
07FFFF00
07FFFF80
0FFFBF80
0E003FC0
1C001FC0
1C001FE0
3C000FE0
3C000FF0
FF003FFC
FF007FFC
FF007FFC
ENDCHAR
STARTCHAR 0103
ENCODING 259
SWIDTH 540 0
DWIDTH 24 0
BBX 21 32 3 0
BITMAP
200300
F00380
F00780
F80F00
7F3F00
7FFF00
3FFE00
1FFC00
03E000
000000
000000
00F800
03FE00
0FFF00
1CFF80
3C3F80
7C1FC0
FC1FC0
FC1FC0
301FC0
007FC0
01FFC0
07DFC0
3F1FC0
7C1F80
FC1F80
FC1FC0
FC1FC0
FE1FF8
FFFFF8
7FFFF8
3F8FE0
ENDCHAR
STARTCHAR 0104
ENCODING 260
SWIDTH 697 0
DWIDTH 31 0
BBX 30 41 1 -11
BITMAP
00070000
000F0000
000F8000
000F8000
001FC000
001FC000
003FE000
003FE000
0037F000
0077F000
0067F000
00E3F800
00E3F800
01C1FC00
01C1FC00
01C1FE00
0380FE00
0380FF00
07007F00
07FFFF00
07FFFF80
0FFFBF80
0E003FC0
1C001FC0
1C001FE0
3C000FE0
3C000FF0
FF003FFC
FF007FFC
FF007FFC
00000780
00001E00
00003C00
00007C00
00007C00
0000FC00
0000FFE0
0000FFE0
00007FE0
00003FC0
00001E00
ENDCHAR
STARTCHAR 0105
ENCODING 261
SWIDTH 540 0
DWIDTH 24 0
BBX 21 32 3 -11
BITMAP
00F800
03FE00
0FFF00
1CFF80
3C3F80
7C1FC0
FC1FC0
FC1FC0
301FC0
007FC0
01FFC0
07DFC0
3F1FC0
7C1F80
FC1F80
FC1FC0
FC1FC0
FE1FF8
FFFFF8
7FFFF8
3F8FE0
000700
001E00
003E00
003C00
007E00
007E00
007FE0
007FF0
003FF0
003FC0
000F00
ENDCHAR
STARTCHAR 0106
ENCODING 262
SWIDTH 630 0
DWIDTH 28 0
BBX 25 39 2 0
BITMAP
0001F000
0003F000
0003E000
0003C000
00078000
00070000
00000000
00000000
00000000
007FF800
01FFFF00
07F87F00
0FE01F00
1F800F00
3F800F00
3F000F00
7F000F00
7E000F00
FE000000
FE000000
FE000000
FE000000
FE000000
FE000000
FE000000
FE000000
FE000000
FE000000
FE000000
FF000000
7F000000
7F800000
3F800000
3FC00000
1FF00180
0FFC0F80
07FFFF00
01FFFC00
007FF000
ENDCHAR
STARTCHAR 0107
ENCODING 263
SWIDTH 450 0
DWIDTH 20 0
BBX 18 32 2 0
BITMAP
001F00
003F00
003E00
003C00
007800
007800
00F000
00E000
000000
000000
000000
00F000
07FF00
1FFF80
3F0F80
7E0F80
7E0780
FC0780
FC0780
FC0000
FC0000
FC0000
FC0000
FC0000
FC0000
FE0000
FE0000
7F0080
7F8180
3FFFC0
1FFF80
07FE00
ENDCHAR
STARTCHAR 0108
ENCODING 264
SWIDTH 630 0
DWIDTH 28 0
BBX 25 39 2 0
BITMAP
00078000
000FC000
003FE000
007FF800
01F8FC00
01E07C00
00001000
00000000
00000000
007FF800
01FFFF00
07F87F00
0FE01F00
1F800F00
3F800F00
3F000F00
7F000F00
7E000F00
FE000000
FE000000
FE000000
FE000000
FE000000
FE000000
FE000000
FE000000
FE000000
FE000000
FE000000
FF000000
7F000000
7F800000
3F800000
3FC00000
1FF00180
0FFC0F80
07FFFF00
01FFFC00
007FF000
ENDCHAR
STARTCHAR 0109
ENCODING 265
SWIDTH 450 0
DWIDTH 20 0
BBX 18 32 2 0
BITMAP
007000
00F800
01FC00
03FC00
07FE00
0FBF00
3E0F80
3C03C0
100180
000000
000000
00F000
07FF00
1FFF80
3F0F80
7E0F80
7E0780
FC0780
FC0780
FC0000
FC0000
FC0000
FC0000
FC0000
FC0000
FE0000
FE0000
7F0080
7F8180
3FFFC0
1FFF80
07FE00
ENDCHAR
STARTCHAR 010A
ENCODING 266
SWIDTH 630 0
DWIDTH 28 0
BBX 25 38 2 0
BITMAP
000F8000
001FC000
001FC000
001FC000
001FC000
000F8000
00000000
00000000
007FF800
01FFFF00
07F87F00
0FE01F00
1F800F00
3F800F00
3F000F00
7F000F00
7E000F00
FE000000
FE000000
FE000000
FE000000
FE000000
FE000000
FE000000
FE000000
FE000000
FE000000
FE000000
FF000000
7F000000
7F800000
3F800000
3FC00000
1FF00180
0FFC0F80
07FFFF00
01FFFC00
007FF000
ENDCHAR
STARTCHAR 010B
ENCODING 267
SWIDTH 450 0
DWIDTH 20 0
BBX 18 30 2 0
BITMAP
006000
01F800
03F800
03F800
03F800
03F800
00E000
000000
000000
00F000
07FF00
1FFF80
3F0F80
7E0F80
7E0780
FC0780
FC0780
FC0000
FC0000
FC0000
FC0000
FC0000
FC0000
FE0000
FE0000
7F0080
7F8180
3FFFC0
1FFF80
07FE00
ENDCHAR
STARTCHAR 010C
ENCODING 268
SWIDTH 630 0
DWIDTH 28 0
BBX 25 39 2 0
BITMAP
00E01800
01F87C00
00FFF800
007FE000
003FC000
000F0000
00040000
00000000
00000000
007FF800
01FFFF00
07F87F00
0FE01F00
1F800F00
3F800F00
3F000F00
7F000F00
7E000F00
FE000000
FE000000
FE000000
FE000000
FE000000
FE000000
FE000000
FE000000
FE000000
FE000000
FE000000
FF000000
7F000000
7F800000
3F800000
3FC00000
1FF00180
0FFC0F80
07FFFF00
01FFFC00
007FF000
ENDCHAR
STARTCHAR 010D
ENCODING 269
SWIDTH 450 0
DWIDTH 20 0
BBX 18 32 2 0
BITMAP
100000
380380
3E0780
1F9F00
0FFE00
07FC00
03F800
01F000
00E000
000000
000000
00F000
07FF00
1FFF80
3F0F80
7E0F80
7E0780
FC0780
FC0780
FC0000
FC0000
FC0000
FC0000
FC0000
FC0000
FE0000
FE0000
7F0080
7F8180
3FFFC0
1FFF80
07FE00
ENDCHAR
STARTCHAR 010E
ENCODING 270
SWIDTH 720 0
DWIDTH 32 0
BBX 29 39 2 0
BITMAP
03C03000
03F0F800
01FFF000
00FFC000
007F8000
001E0000
00080000
00000000
00000000
FFFFE000
FFFFFC00
FFF3FF00
1FC07F80
1FC03FC0
1FC00FE0
1FC00FF0
1FC007F0
1FC007F0
1FC003F8
1FC003F8
1FC003F8
1FC003F8
1FC003F8
1FC003F8
1FC003F8
1FC003F8
1FC003F8
1FC003F8
1FC003F0
1FC003F0
1FC007F0
1FC007E0
1FC00FE0
1FC00FC0
1FC01F80
3FE07F00
FFFFFE00
FFFFF800
FFFF8000
ENDCHAR
STARTCHAR 010F
ENCODING 271
SWIDTH 742 0
DWIDTH 33 0
BBX 30 32 2 0
BITMAP
0000181C
0007F8FC
000FF9FC
000FF9FC
0007F9FC
0001F87C
0001F83C
0001F83C
0001F838
0001F878
0001F870
007DF8E0
03FFF800
0FFFF800
1F83F800
3F01F800
7E01F800
7E01F800
FC01F800
FC01F800
FC01F800
FC01F800
FC01F800
FC01F800
FC01F800
FE03F800
FE03F800
FF07FC00
7F9EFF00
7FFFFF00
3FFDFF00
0FF0F000
ENDCHAR
STARTCHAR 0110
ENCODING 272
SWIDTH 720 0
DWIDTH 32 0
BBX 30 30 1 0
BITMAP
7FFFF000
7FFFFE00
7FF9FF80
0FE03FC0
0FE01FE0
0FE007F0
0FE007F8
0FE003F8
0FE003F8
0FE001FC
0FE001FC
0FE001FC
0FE001FC
7FFF81FC
FFFF81FC
FFFF81FC
FFE001FC
0FE001FC
0FE001FC
0FE001F8
0FE001F8
0FE003F8
0FE003F0
0FE007F0
0FE007E0
0FE00FC0
1FF03F80
7FFFFF00
7FFFFC00
7FFFC000
ENDCHAR
STARTCHAR 0111
ENCODING 273
SWIDTH 607 0
DWIDTH 27 0
BBX 24 32 2 0
BITMAP
000018
0007F8
000FF8
000FF8
0007F8
0001F8
0001F8
003FFF
003FFE
0001F8
0001F8
007DF8
03FFF8
0FFFF8
1F83F8
3F01F8
7E01F8
7E01F8
FC01F8
FC01F8
FC01F8
FC01F8
FC01F8
FC01F8
FE01F8
FE01F8
FE01F8
FF01FC
7F81FF
7FFFFF
3FFDFF
0FF1E0
ENDCHAR
STARTCHAR 0112
ENCODING 274
SWIDTH 607 0
DWIDTH 27 0
BBX 24 36 2 0
BITMAP
1FFFF0
1FFFF0
100000
000000
000000
000000
FFFFFC
FFFFFC
FFFFFC
1FC07C
1FC03C
1FC01E
1FC01E
1FC01C
1FC000
1FC000
1FC1C0
1FC1C0
1FC1C0
1FC7C0
1FFFC0
1FFFC0
1FC7C0
1FC1C0
1FC1C0
1FC1C0
1FC000
1FC000
1FC007
1FC00F
1FC00F
1FC01F
3FE03F
FFFFFE
FFFFFE
FFFFFE
ENDCHAR
STARTCHAR 0113
ENCODING 275
SWIDTH 495 0
DWIDTH 22 0
BBX 19 28 2 0
BITMAP
3FFFC0
3FFFC0
600000
000000
000000
000000
000000
01F000
07FE00
1FFF00
3F1F80
7E0FC0
7E07C0
FC07E0
FC07E0
FC07E0
FFFFE0
FFFFE0
FFFFC0
FC0000
FC0000
FE0000
FE0000
7F0040
7F81E0
3FFFE0
1FFF80
07FE00
ENDCHAR
STARTCHAR 0114
ENCODING 276
SWIDTH 607 0
DWIDTH 27 0
BBX 24 39 2 0
BITMAP
0E00E0
0F01E0
0F83C0
07FFC0
07FFC0
03FF00
007C00
000000
000000
FFFFFC
FFFFFC
FFFFFC
1FC07C
1FC03C
1FC01E
1FC01E
1FC01C
1FC000
1FC000
1FC1C0
1FC1C0
1FC1C0
1FC7C0
1FFFC0
1FFFC0
1FC7C0
1FC1C0
1FC1C0
1FC1C0
1FC000
1FC000
1FC007
1FC00F
1FC00F
1FC01F
3FE03F
FFFFFE
FFFFFE
FFFFFE
ENDCHAR
STARTCHAR 0115
ENCODING 277
SWIDTH 495 0
DWIDTH 22 0
BBX 19 32 2 0
BITMAP
000180
7801C0
3C01C0
3C03C0
3F9F80
1FFF80
1FFF00
07FE00
01F000
000000
000000
01F000
07FE00
1FFF00
3F1F80
7E0FC0
7E07C0
FC07E0
FC07E0
FC07E0
FFFFE0
FFFFE0
FFFFC0
FC0000
FC0000
FE0000
FE0000
7F0040
7F81E0
3FFFE0
1FFF80
07FE00
ENDCHAR
STARTCHAR 0116
ENCODING 278
SWIDTH 607 0
DWIDTH 27 0
BBX 24 38 2 0
BITMAP
007C00
00FE00
00FE00
00FE00
00FE00
007C00
000000
000000
FFFFFC
FFFFFC
FFFFFC
1FC07C
1FC03C
1FC01E
1FC01E
1FC01C
1FC000
1FC000
1FC1C0
1FC1C0
1FC1C0
1FC7C0
1FFFC0
1FFFC0
1FC7C0
1FC1C0
1FC1C0
1FC1C0
1FC000
1FC000
1FC007
1FC00F
1FC00F
1FC01F
3FE03F
FFFFFE
FFFFFE
FFFFFE
ENDCHAR
STARTCHAR 0117
ENCODING 279
SWIDTH 495 0
DWIDTH 22 0
BBX 19 30 2 0
BITMAP
006000
01F800
03F800
03FC00
03F800
01F800
00E000
000000
000000
01F000
07FE00
1FFF00
3F1F80
7E0FC0
7E07C0
FC07E0
FC07E0
FC07E0
FFFFE0
FFFFE0
FFFFC0
FC0000
FC0000
FE0000
FE0000
7F0040
7F81E0
3FFFE0
1FFF80
07FE00
ENDCHAR
STARTCHAR 0118
ENCODING 280
SWIDTH 607 0
DWIDTH 27 0
BBX 24 41 2 -11
BITMAP
FFFFFC
FFFFFC
FFFFFC
1FC07C
1FC03C
1FC01E
1FC01E
1FC01C
1FC000
1FC000
1FC1C0
1FC1C0
1FC1C0
1FC7C0
1FFFC0
1FFFC0
1FC7C0
1FC1C0
1FC1C0
1FC1C0
1FC000
1FC000
1FC007
1FC00F
1FC00F
1FC01F
3FE03F
FFFFFE
FFFFFE
FFFFFE
0000F0
0003C0
000780
000F80
001F80
001F80
001FF8
001FFC
001FFC
000FF0
0003C0
ENDCHAR
STARTCHAR 0119
ENCODING 281
SWIDTH 495 0
DWIDTH 22 0
BBX 19 32 2 -11
BITMAP
01F000
07FE00
1FFF00
3F1F80
7E0FC0
7E07C0
FC07E0
FC07E0
FC07E0
FFFFE0
FFFFE0
FFFFC0
FC0000
FC0000
FE0000
FE0000
7F0040
7F81E0
3FFFE0
1FFF80
07FF00
001E00
003C00
007800
00F800
00F800
00FC00
00FFC0
00FFC0
00FFC0
007F80
003E00
ENDCHAR
STARTCHAR 011A
ENCODING 282
SWIDTH 607 0
DWIDTH 27 0
BBX 24 39 2 0
BITMAP
0F01C0
1FC7E0
07FF80
03FF00
01FC00
00F800
006000
000000
000000
FFFFFC
FFFFFC
FFFFFC
1FC07C
1FC03C
1FC01E
1FC01E
1FC01C
1FC000
1FC000
1FC1C0
1FC1C0
1FC1C0
1FC7C0
1FFFC0
1FFFC0
1FC7C0
1FC1C0
1FC1C0
1FC1C0
1FC000
1FC000
1FC007
1FC00F
1FC00F
1FC01F
3FE03F
FFFFFE
FFFFFE
FFFFFE
ENDCHAR
STARTCHAR 011B
ENCODING 283
SWIDTH 495 0
DWIDTH 22 0
BBX 19 32 2 0
BITMAP
100000
3803C0
3E0780
1F9F00
0FFE00
07FC00
03F800
01F000
00E000
000000
000000
01F000
07FE00
1FFF00
3F1F80
7E0FC0
7E07C0
FC07E0
FC07E0
FC07E0
FFFFE0
FFFFE0
FFFFC0
FC0000
FC0000
FE0000
FE0000
7F0040
7F81E0
3FFFE0
1FFF80
07FE00
ENDCHAR
STARTCHAR 011C
ENCODING 284
SWIDTH 697 0
DWIDTH 31 0
BBX 28 39 2 0
BITMAP
00078000
000FE000
001FF000
007FF800
00F8FC00
00E03C00
00000000
00000000
00000000
007FFC00
01FFFF80
07FC7FC0
0FE00FC0
1FC00780
3F800780
3F000780
7F000380
7E000380
FE000000
FE000000
FE000000
FE000000
FE000000
FE000000
FE00FFF0
FE00FFF0
FE00FFF0
FE001FC0
FE000FC0
FE000FC0
7F000FC0
7F000FC0
3F800FC0
3FC00FC0
1FC00FC0
0FF01FC0
07FEFFC0
01FFFF00
007FF800
ENDCHAR
STARTCHAR 011D
ENCODING 285
SWIDTH 540 0
DWIDTH 24 0
BBX 22 43 1 -11
BITMAP
003000
007800
00FC00
01FE00
07FF00
0F9F80
1F07C0
3C03E0
1800C0
000000
000000
01F000
0FFFFC
1FFFFC
3F0FCC
3F07E0
7E07E0
7E03F0
7E03F0
7E03F0
7F03F0
3F07E0
3F87E0
1FFFC0
0FFF00
1FF800
3E0000
3E0000
3FFC00
3FFFE0
3FFFF8
3FFFF8
1FFFFC
1FFFFC
7C07FC
7C00FC
F800F8
FC00F8
FC01F0
7E03E0
7FFFC0
3FFF00
0FF800
ENDCHAR
STARTCHAR 011E
ENCODING 286
SWIDTH 697 0
DWIDTH 31 0
BBX 28 39 2 0
BITMAP
00E01C00
00F01C00
00F83C00
00FFFC00
007FF800
003FF000
000F8000
00000000
00000000
007FFC00
01FFFF80
07FC7FC0
0FE00FC0
1FC00780
3F800780
3F000780
7F000380
7E000380
FE000000
FE000000
FE000000
FE000000
FE000000
FE000000
FE00FFF0
FE00FFF0
FE00FFF0
FE001FC0
FE000FC0
FE000FC0
7F000FC0
7F000FC0
3F800FC0
3FC00FC0
1FC00FC0
0FF01FC0
07FEFFC0
01FFFF00
007FF800
ENDCHAR
STARTCHAR 011F
ENCODING 287
SWIDTH 540 0
DWIDTH 24 0
BBX 22 43 1 -11
BITMAP
000080
3800E0
3C01C0
3E03C0
1FCFC0
1FFF80
0FFF80
07FF00
00F800
000000
000000
01F000
0FFFFC
1FFFFC
3F0FCC
3F07E0
7E07E0
7E03F0
7E03F0
7E03F0
7F03F0
3F07E0
3F87E0
1FFFC0
0FFF00
1FF800
3E0000
3E0000
3FFC00
3FFFE0
3FFFF8
3FFFF8
1FFFFC
1FFFFC
7C07FC
7C00FC
F800F8
FC00F8
FC01F0
7E03E0
7FFFC0
3FFF00
0FF800
ENDCHAR
STARTCHAR 0120
ENCODING 288
SWIDTH 697 0
DWIDTH 31 0
BBX 28 38 2 0
BITMAP
000FC000
000FC000
001FE000
001FE000
000FC000
000F8000
00000000
00000000
007FFC00
01FFFF80
07FC7FC0
0FE00FC0
1FC00780
3F800780
3F000780
7F000380
7E000380
FE000000
FE000000
FE000000
FE000000
FE000000
FE000000
FE00FFF0
FE00FFF0
FE00FFF0
FE001FC0
FE000FC0
FE000FC0
7F000FC0
7F000FC0
3F800FC0
3FC00FC0
1FC00FC0
0FF01FC0
07FEFFC0
01FFFF00
007FF800
ENDCHAR
STARTCHAR 0121
ENCODING 289
SWIDTH 540 0
DWIDTH 24 0
BBX 22 41 1 -11
BITMAP
007000
01F800
01FC00
03FC00
01FC00
01F800
00F000
000000
000000
01F000
0FFFFC
1FFFFC
3F0FCC
3F07E0
7E07E0
7E03F0
7E03F0
7E03F0
7F03F0
3F07E0
3F87E0
1FFFC0
0FFF00
1FF800
3E0000
3E0000
3FFC00
3FFFE0
3FFFF8
3FFFF8
1FFFFC
1FFFFC
7C07FC
7C00FC
F800F8
FC00F8
FC01F0
7E03E0
7FFFC0
3FFF00
0FF800
ENDCHAR
STARTCHAR 0122
ENCODING 290
SWIDTH 697 0
DWIDTH 31 0
BBX 28 43 2 -13
BITMAP
007FFC00
01FFFF80
07FC7FC0
0FE00FC0
1FC00780
3F800780
3F000780
7F000380
7E000380
FE000000
FE000000
FE000000
FE000000
FE000000
FE000000
FE00FFF0
FE00FFF0
FE00FFF0
FE001FC0
FE000FC0
FE000FC0
7F000FC0
7F000FC0
3F800FC0
3FC00FC0
1FC00FC0
0FF01FC0
07FEFFC0
01FFFF00
007FF800
00000000
00000000
0001C000
000FC000
001FC000
001FC000
001FC000
0007C000
0003C000
00078000
00078000
000F0000
001E0000
ENDCHAR
STARTCHAR 0123
ENCODING 291
SWIDTH 540 0
DWIDTH 24 0
BBX 22 43 1 -11
BITMAP
003800
007000
00F000
01E000
01F000
01FC00
01FC00
01F800
01F800
008000
000000
01F000
0FFFFC
1FFFFC
3F0FCC
3F07E0
7E07E0
7E03F0
7E03F0
7E03F0
7F03F0
3F07E0
3F87E0
1FFFC0
0FFF00
1FF800
3E0000
3E0000
3FFC00
3FFFE0
3FFFF8
3FFFF8
1FFFFC
1FFFFC
7C07FC
7C00FC
F800F8
FC00F8
FC01F0
7E03E0
7FFFC0
3FFF00
0FF800
ENDCHAR
STARTCHAR 0124
ENCODING 292
SWIDTH 765 0
DWIDTH 34 0
BBX 31 39 2 0
BITMAP
0007C000
000FE000
001FF000
007FF800
00FCFE00
00F03C00
00400800
00000000
00000000
FFF83FFE
FFF83FFE
FFF83FFC
1FC00FF0
1FC007F0
1FC007E0
1FC007E0
1FC007E0
1FC007E0
1FC007E0
1FC007E0
1FC007E0
1FC007E0
1FFFFFE0
1FFFFFE0
1FFFFFE0
1FC007E0
1FC007E0
1FC007E0
1FC007E0
1FC007E0
1FC007E0
1FC007E0
1FC007E0
1FC007E0
1FC007F0
1FC00FF0
FFF83FFC
FFF83FFE
FFF83FFE
ENDCHAR
STARTCHAR 0125
ENCODING 293
SWIDTH 630 0
DWIDTH 28 0
BBX 27 39 1 0
BITMAP
001E0000
007F0000
00FF8000
01FFC000
07E7F000
0781F000
02004000
00800000
3FC00000
FFC00000
FFC00000
3FC00000
1FC00000
1FC00000
0FC00000
0FC00000
0FC00000
0FC00000
0FC00000
0FC7F800
0FDFFC00
0FFFFE00
0FFFFE00
0FC07F00
0FC07F00
0FC07F00
0FC03F00
0FC03F00
0FC03F00
0FC03F00
0FC03F00
0FC03F00
0FC03F00
1FC03F00
1FC07F00
1FC07F00
7FF1FFC0
FFF9FFC0
FFF9FFE0
ENDCHAR
STARTCHAR 0126
ENCODING 294
SWIDTH 765 0
DWIDTH 34 0
BBX 31 30 2 0
BITMAP
FFF83FFE
FFF83FFE
FFF83FFC
1FC00FF0
1FC007F0
1FC007E0
1FC007E0
7FFFFFFC
FFFFFFFC
FFFFFFFC
1FC007E0
1FC007E0
1FC007E0
1FFFFFE0
1FFFFFE0
1FFFFFE0
1FC007E0
1FC007E0
1FC007E0
1FC007E0
1FC007E0
1FC007E0
1FC007E0
1FC007E0
1FC007E0
1FC007F0
1FC00FF0
FFF83FFC
FFF83FFE
FFF83FFE
ENDCHAR
STARTCHAR 0127
ENCODING 295
SWIDTH 630 0
DWIDTH 28 0
BBX 28 32 0 0
BITMAP
00400000
1FE00000
7FE00000
7FE00000
1FE00000
0FE00000
0FE00000
7FFE0000
FFFE0000
FFFE0000
07E00000
07E00000
07E3FC00
07EFFE00
07FFFF00
07FFFF00
07E03F80
07E03F80
07E03F80
07E01F80
07E01F80
07E01F80
07E01F80
07E01F80
07E01F80
07E01F80
0FE01F80
0FE03F80
0FE03F80
3FF8FFE0
7FFCFFE0
7FFCFFF0
ENDCHAR
STARTCHAR 0128
ENCODING 296
SWIDTH 360 0
DWIDTH 16 0
BBX 15 38 1 0
BITMAP
1F0C
3FFE
7FFC
FFFC
E1F8
0040
0000
0000
7FFC
7FFC
7FFC
0FE0
0FE0
0FE0
0FE0
0FE0
0FE0
0FE0
0FE0
0FE0
0FE0
0FE0
0FE0
0FE0
0FE0
0FE0
0FE0
0FE0
0FE0
0FE0
0FE0
0FE0
0FE0
0FE0
0FE0
7FFC
7FFC
7FFC
ENDCHAR
STARTCHAR 0129
ENCODING 297
SWIDTH 337 0
DWIDTH 15 0
BBX 15 30 0 0
BITMAP
0E00
1F86
3FFE
7FFE
FFFC
E1F8
40F0
0000
0000
0040
0FE0
3FE0
3FE0
1FE0
0FE0
07E0
07E0
07E0
07E0
07E0
07E0
07E0
07E0
07E0
07E0
07E0
0FF0
3FFC
3FFC
3FFC
ENDCHAR
STARTCHAR 012A
ENCODING 298
SWIDTH 360 0
DWIDTH 16 0
BBX 14 36 1 0
BITMAP
7FFC
FFFC
FC00
0000
0000
0000
7FFC
7FFC
7FFC
0FE0
0FE0
0FE0
0FE0
0FE0
0FE0
0FE0
0FE0
0FE0
0FE0
0FE0
0FE0
0FE0
0FE0
0FE0
0FE0
0FE0
0FE0
0FE0
0FE0
0FE0
0FE0
0FE0
0FE0
7FFC
7FFC
7FFC
ENDCHAR
STARTCHAR 012B
ENCODING 299
SWIDTH 337 0
DWIDTH 15 0
BBX 13 28 1 0
BITMAP
7FF0
FFF0
FFF0
0000
0000
0000
0000
0080
1FC0
7FC0
7FC0
3FC0
1FC0
0FC0
0FC0
0FC0
0FC0
0FC0
0FC0
0FC0
0FC0
0FC0
0FC0
0FC0
1FE0
7FF8
7FF8
7FF8
ENDCHAR
STARTCHAR 012C
ENCODING 300
SWIDTH 360 0
DWIDTH 16 0
BBX 13 39 2 0
BITMAP
4018
E018
F038
FDF8
FFF0
7FF0
1FC0
0000
0000
FFF8
FFF8
FFF8
1FC0
1FC0
1FC0
1FC0
1FC0
1FC0
1FC0
1FC0
1FC0
1FC0
1FC0
1FC0
1FC0
1FC0
1FC0
1FC0
1FC0
1FC0
1FC0
1FC0
1FC0
1FC0
1FC0
1FC0
FFF8
FFF8
FFF8
ENDCHAR
STARTCHAR 012D
ENCODING 301
SWIDTH 337 0
DWIDTH 15 0
BBX 15 32 0 0
BITMAP
000C
F00E
F00E
781E
7E7C
7FFC
3FF8
1FF0
07C0
0000
0000
0040
0FE0
3FE0
3FE0
1FE0
0FE0
07E0
07E0
07E0
07E0
07E0
07E0
07E0
07E0
07E0
07E0
07E0
0FF0
3FFC
3FFC
3FFC
ENDCHAR
STARTCHAR 012E
ENCODING 302
SWIDTH 360 0
DWIDTH 16 0
BBX 13 41 2 -11
BITMAP
FFF8
FFF8
FFF8
1FC0
1FC0
1FC0
1FC0
1FC0
1FC0
1FC0
1FC0
1FC0
1FC0
1FC0
1FC0
1FC0
1FC0
1FC0
1FC0
1FC0
1FC0
1FC0
1FC0
1FC0
1FC0
1FC0
1FC0
FFF8
FFF8
FFF8
0780
1E00
3E00
7C00
7C00
7C00
7FE0
7FE0
7FE0
3FC0
1F00
ENDCHAR
STARTCHAR 012F
ENCODING 303
SWIDTH 337 0
DWIDTH 15 0
BBX 12 42 2 -11
BITMAP
0E00
1F80
3F80
3F80
3F80
3F80
0E00
0000
0000
0000
0100
3F80
FF80
FF80
7F80
3F80
1F80
1F80
1F80
1F80
1F80
1F80
1F80
1F80
1F80
1F80
1F80
3FC0
FFF0
FFF0
FFF0
0F00
1E00
3C00
7C00
FC00
FC00
FFE0
FFE0
7FE0
7F80
1E00
ENDCHAR
STARTCHAR 0130
ENCODING 304
SWIDTH 360 0
DWIDTH 16 0
BBX 13 38 2 0
BITMAP
0F80
1FC0
1FC0
1FC0
1FC0
0F80
0000
0000
FFF8
FFF8
FFF8
1FC0
1FC0
1FC0
1FC0
1FC0
1FC0
1FC0
1FC0
1FC0
1FC0
1FC0
1FC0
1FC0
1FC0
1FC0
1FC0
1FC0
1FC0
1FC0
1FC0
1FC0
1FC0
1FC0
1FC0
FFF8
FFF8
FFF8
ENDCHAR
STARTCHAR 0131
ENCODING 305
SWIDTH 337 0
DWIDTH 15 0
BBX 12 21 2 0
BITMAP
0100
3F80
FF80
FF80
7F80
3F80
1F80
1F80
1F80
1F80
1F80
1F80
1F80
1F80
1F80
1F80
1F80
3FC0
FFF0
FFF0
FFF0
ENDCHAR
STARTCHAR 0132
ENCODING 306
SWIDTH 675 0
DWIDTH 30 0
BBX 27 41 2 -11
BITMAP
FFFBFFE0
FFFBFFE0
FFFBFFE0
1FC07F80
1FC07F00
1FC07F00
1FC07F00
1FC07F00
1FC07F00
1FC07F00
1FC07F00
1FC07F00
1FC07F00
1FC07F00
1FC07F00
1FC07F00
1FC07F00
1FC07F00
1FC07F00
1FC07F00
1FC07F00
1FC07F00
1FC07F00
1FC07F00
1FC07F00
1FC07F00
1FC07F00
FFF87F00
FFF87F00
FFF87F00
00007E00
00007E00
00007E00
0000FC00
0000FC00
0001F800
0001F000
0003E000
0007C000
000F8000
00060000
ENDCHAR
STARTCHAR 0133
ENCODING 307
SWIDTH 585 0
DWIDTH 26 0
BBX 22 42 2 -11
BITMAP
0E0070
1F81F8
3F81FC
3F83FC
3F81FC
3F81F8
0E0070
000000
000000
000000
010008
3F81FC
FF8FFC
FF8FFC
7F83FC
3F81FC
1F81FC
1F81FC
1F81FC
1F81FC
1F81FC
1F81FC
1F81FC
1F81FC
1F81FC
1F81FC
1F81FC
3FC1FC
FFF1FC
FFF1FC
FFF1FC
0001F8
0001F8
0001F8
0001F0
0003F0
0003E0
0007C0
000FC0
000F80
000E00
000C00
ENDCHAR
STARTCHAR 0134
ENCODING 308
SWIDTH 360 0
DWIDTH 16 0
BBX 15 50 0 -11
BITMAP
01C0
03E0
0FF0
1FF0
3FF8
7C7C
383C
0000
0000
7FFE
7FFC
3FFC
0FF0
0FE0
07E0
07E0
07E0
07E0
07E0
07E0
07E0
07E0
07E0
07E0
07E0
07E0
07E0
07E0
07E0
07E0
07E0
07E0
07E0
07E0
07E0
07E0
07E0
07E0
07E0
0FE0
0FC0
0FC0
0FC0
1F80
1F80
3F00
7E00
FC00
F000
C000
ENDCHAR
STARTCHAR 0135
ENCODING 309
SWIDTH 292 0
DWIDTH 13 0
BBX 13 43 1 -11
BITMAP
0300
0F80
0FC0
1FC0
3FE0
7BF0
F0F8
E078
4030
0000
0000
0080
1FC0
7FC0
FFC0
3FC0
1FC0
0FC0
0FC0
0FC0
0FC0
0FC0
0FC0
0FC0
0FC0
0FC0
0FC0
0FC0
0FC0
0FC0
0FC0
0FC0
0FC0
0F80
1F80
1F80
1F00
3E00
7E00
7C00
F800
F000
C000
ENDCHAR
STARTCHAR 0136
ENCODING 310
SWIDTH 720 0
DWIDTH 32 0
BBX 29 43 2 -13
BITMAP
FFF87FF0
FFF87FF0
FFF87FE0
1FC01F00
1FC01E00
1FC03C00
1FC07800
1FC0F000
1FC1E000
1FC3C000
1FC78000
1FCF0000
1FDE0000
1FFF0000
1FFF8000
1FFFC000
1FFFE000
1FDFE000
1FCFF000
1FC7F800
1FC7FC00
1FC3FC00
1FC1FE00
1FC0FF00
1FC0FF00
1FC07F80
1FC03FE0
FFF83FF8
FFF81FF8
FFF81FF8
00000000
00000000
00038000
001F8000
001FC000
003FC000
003F8000
000F8000
00078000
000F0000
000F0000
001E0000
001C0000
ENDCHAR
STARTCHAR 0137
ENCODING 311
SWIDTH 585 0
DWIDTH 26 0
BBX 26 45 1 -13
BITMAP
00800000
3FC00000
FFC00000
FFC00000
3FC00000
1FC00000
1FC00000
0FC00000
0FC00000
0FC00000
0FC00000
0FC00000
0FC1FF80
0FC1FF80
0FC0FE00
0FC0F800
0FC1E000
0FC3C000
0FC78000
0FCF0000
0FDF8000
0FFFC000
0FDFC000
0FCFE000
0FC7F000
0FC3F800
1FC3FC00
1FC1FE00
1FC0FF00
7FF07FC0
FFF07FC0
FFF03FC0
00000000
00000000
000E0000
007F0000
007F0000
007F0000
007F0000
001F0000
001E0000
001E0000
003C0000
00780000
00700000
ENDCHAR
STARTCHAR 0138
ENCODING 312
SWIDTH 607 0
DWIDTH 27 0
BBX 24 21 2 0
BITMAP
010000
3F87FE
FF87FE
FF83F8
7F83E0
3F87C0
1F8F00
1F9E00
1FBC00
1FFE00
1FFF00
1FFF80
1FBFC0
1F9FE0
1F8FF0
1F87F0
1F87F8
3FC3FC
FFE1FF
FFF0FF
FFF0FF
ENDCHAR
STARTCHAR 0139
ENCODING 313
SWIDTH 585 0
DWIDTH 26 0
BBX 24 39 2 0
BITMAP
01F000
03E000
03C000
07C000
078000
0F0000
000000
000000
000000
FFF800
FFF800
FFF800
1FC000
1FC000
1FC000
1FC000
1FC000
1FC000
1FC000
1FC000
1FC000
1FC000
1FC000
1FC000
1FC000
1FC000
1FC000
1FC000
1FC000
1FC000
1FC000
1FC00F
1FC00F
1FC00F
1FC01E
3FE03E
FFFFFE
FFFFFE
FFFFFE
ENDCHAR
STARTCHAR 013A
ENCODING 314
SWIDTH 337 0
DWIDTH 15 0
BBX 13 41 1 0
BITMAP
0020
01F0
03E0
03C0
0780
0780
0F00
0000
0000
0080
3FC0
FFC0
FFC0
3FC0
1FC0
1FC0
0FC0
0FC0
0FC0
0FC0
0FC0
0FC0
0FC0
0FC0
0FC0
0FC0
0FC0
0FC0
0FC0
0FC0
0FC0
0FC0
0FC0
0FC0
0FC0
1FC0
1FC0
1FC0
7FF8
FFF8
FFF8
ENDCHAR
STARTCHAR 013B
ENCODING 315
SWIDTH 585 0
DWIDTH 26 0
BBX 24 43 2 -13
BITMAP
FFF800
FFF800
FFF800
1FC000
1FC000
1FC000
1FC000
1FC000
1FC000
1FC000
1FC000
1FC000
1FC000
1FC000
1FC000
1FC000
1FC000
1FC000
1FC000
1FC000
1FC000
1FC000
1FC00F
1FC00F
1FC00F
1FC01E
3FE03E
FFFFFE
FFFFFE
FFFFFE
000000
000000
000C00
00FE00
00FE00
00FE00
00FE00
003E00
003C00
003C00
007800
007000
00E000
ENDCHAR
STARTCHAR 013C
ENCODING 316
SWIDTH 337 0
DWIDTH 15 0
BBX 13 45 1 -13
BITMAP
0080
3FC0
FFC0
FFC0
3FC0
1FC0
1FC0
0FC0
0FC0
0FC0
0FC0
0FC0
0FC0
0FC0
0FC0
0FC0
0FC0
0FC0
0FC0
0FC0
0FC0
0FC0
0FC0
0FC0
0FC0
0FC0
1FC0
1FC0
1FC0
7FF8
FFF8
FFF8
0000
0000
0180
1FC0
1FC0
1FC0
1FC0
07C0
0780
0780
0F00
0E00
1C00
ENDCHAR
STARTCHAR 013D
ENCODING 317
SWIDTH 585 0
DWIDTH 26 0
BBX 24 32 2 0
BITMAP
00000E
00007E
FFF87F
FFF87F
FFF87F
1FC03F
1FC01E
1FC01E
1FC01E
1FC01C
1FC038
1FC078
1FC010
1FC000
1FC000
1FC000
1FC000
1FC000
1FC000
1FC000
1FC000
1FC000
1FC000
1FC000
1FC00F
1FC00F
1FC00F
1FC01E
3FE03E
FFFFFE
FFFFFE
FFFFFE
ENDCHAR
STARTCHAR 013E
ENCODING 318
SWIDTH 472 0
DWIDTH 21 0
BBX 20 32 1 0
BITMAP
0080E0
3FC7E0
FFC7F0
FFC7F0
3FC7F0
1FC3F0
1FC1E0
0FC1E0
0FC1E0
0FC1C0
0FC380
0FC780
0FC100
0FC000
0FC000
0FC000
0FC000
0FC000
0FC000
0FC000
0FC000
0FC000
0FC000
0FC000
0FC000
0FC000
1FC000
1FC000
1FC000
7FF800
FFF800
FFF800
ENDCHAR
STARTCHAR 013F
ENCODING 319
SWIDTH 585 0
DWIDTH 26 0
BBX 24 30 2 0
BITMAP
FFF800
FFF800
FFF800
1FC000
1FC000
1FC000
1FC000
1FC000
1FC000
1FC000
1FC000
1FC018
1FC07C
1FC07E
1FC07E
1FC07C
1FC018
1FC000
1FC000
1FC000
1FC000
1FC000
1FC00F
1FC00F
1FC00F
1FC01E
3FE03E
FFFFFE
FFFFFE
FFFFFE
ENDCHAR
STARTCHAR 0140
ENCODING 320
SWIDTH 337 0
DWIDTH 15 0
BBX 17 32 1 0
BITMAP
008000
3FC000
FFC000
FFC000
3FC000
1FC000
1FC000
0FC000
0FC000
0FC000
0FC000
0FC000
0FC000
0FC000
0FCF80
0FCF80
0FDF80
0FCF80
0FCF00
0FC000
0FC000
0FC000
0FC000
0FC000
0FC000
0FC000
1FC000
1FC000
1FC000
7FF800
FFF800
FFF800
ENDCHAR
STARTCHAR 0141
ENCODING 321
SWIDTH 585 0
DWIDTH 26 0
BBX 25 30 1 0
BITMAP
7FFC0000
7FFC0000
7FFC0000
0FE00000
0FE00000
0FE00000
0FE00000
0FE00000
0FE00000
0FE00000
0FE60000
0FFE0000
0FFE0000
0FFC0000
0FF80000
0FE00000
3FE00000
7FE00000
FFE00000
FFE00000
4FE00000
0FE00000
0FE00780
0FE00780
0FE00780
0FE00F00
1FF01F00
7FFFFF00
7FFFFF00
7FFFFF00
ENDCHAR
STARTCHAR 0142
ENCODING 322
SWIDTH 337 0
DWIDTH 15 0
BBX 16 32 0 0
BITMAP
0040
1FE0
7FE0
7FE0
1FE0
0FE0
0FE0
07E0
07E0
07E0
07E0
07E0
07E6
07FE
07FF
07FC
07F8
0FE0
3FE0
7FE0
FFE0
F7E0
47E0
07E0
07E0
07E0
0FE0
0FE0
0FE0
3FFC
7FFC
7FFC
ENDCHAR
STARTCHAR 0143
ENCODING 323
SWIDTH 720 0
DWIDTH 32 0
BBX 29 39 2 0
BITMAP
0003F000
0003E000
0003C000
00078000
00078000
000F0000
00000000
00000000
00000000
FF801FF8
FF801FF8
FFC01FF0
3FE003C0
1FF003C0
1FF001C0
1FF801C0
1FFC01C0
1FFE01C0
1DFE01C0
1CFF01C0
1CFF81C0
1C7FC1C0
1C3FC1C0
1C1FE1C0
1C1FF1C0
1C0FF9C0
1C07F9C0
1C03FDC0
1C03FFC0
1C01FFC0
1C00FFC0
1C007FC0
1C007FC0
1C003FC0
1C001FC0
3E000FC0
FF800FC0
FF8007C0
FFC003C0
ENDCHAR
STARTCHAR 0144
ENCODING 324
SWIDTH 652 0
DWIDTH 29 0
BBX 26 32 2 0
BITMAP
0003E000
0007E000
0007C000
00078000
000F0000
000F0000
001E0000
001C0000
00000000
00000000
00000000
01018000
3F8FF000
FF9FFC00
FFFFFC00
7FFBFE00
3F80FE00
1F80FE00
1F807E00
1F807E00
1F807E00
1F807E00
1F807E00
1F807E00
1F807E00
1F807E00
1F807E00
1F807E00
3FC0FF00
FFF3FFC0
FFF3FFC0
FFF3FFC0
ENDCHAR
STARTCHAR 0145
ENCODING 325
SWIDTH 720 0
DWIDTH 32 0
BBX 29 43 2 -13
BITMAP
FF801FF8
FF801FF8
FFC01FF0
3FE003C0
1FF003C0
1FF001C0
1FF801C0
1FFC01C0
1FFE01C0
1DFE01C0
1CFF01C0
1CFF81C0
1C7FC1C0
1C3FC1C0
1C1FE1C0
1C1FF1C0
1C0FF9C0
1C07F9C0
1C03FDC0
1C03FFC0
1C01FFC0
1C00FFC0
1C007FC0
1C007FC0
1C003FC0
1C001FC0
3E000FC0
FF800FC0
FF8007C0
FFC003C0
00000000
00000000
0001C000
000FE000
000FE000
000FE000
000FE000
0003E000
0003C000
0003C000
00078000
000F0000
000E0000
ENDCHAR
STARTCHAR 0146
ENCODING 326
SWIDTH 652 0
DWIDTH 29 0
BBX 26 34 2 -13
BITMAP
01018000
3F8FF000
FF9FFC00
FFFFFC00
7FFBFE00
3F80FE00
1F80FE00
1F807E00
1F807E00
1F807E00
1F807E00
1F807E00
1F807E00
1F807E00
1F807E00
1F807E00
1F807E00
3FC0FF00
FFF3FFC0
FFF3FFC0
FFF3FFC0
00000000
00000000
00060000
007F0000
007F0000
007F0000
007F0000
001F0000
001F0000
001E0000
001C0000
00380000
00700000
ENDCHAR
STARTCHAR 0147
ENCODING 327
SWIDTH 720 0
DWIDTH 32 0
BBX 29 39 2 0
BITMAP
01E03800
03F8FC00
00FFF000
007FE000
003F8000
001F0000
000E0000
00000000
00000000
FF801FF8
FF801FF8
FFC01FF0
3FE003C0
1FF003C0
1FF001C0
1FF801C0
1FFC01C0
1FFE01C0
1DFE01C0
1CFF01C0
1CFF81C0
1C7FC1C0
1C3FC1C0
1C1FE1C0
1C1FF1C0
1C0FF9C0
1C07F9C0
1C03FDC0
1C03FFC0
1C01FFC0
1C00FFC0
1C007FC0
1C007FC0
1C003FC0
1C001FC0
3E000FC0
FF800FC0
FF8007C0
FFC003C0
ENDCHAR
STARTCHAR 0148
ENCODING 328
SWIDTH 652 0
DWIDTH 29 0
BBX 26 32 2 0
BITMAP
02000000
07007800
07C0F000
03F3E000
01FFC000
00FF8000
007F0000
003E0000
001C0000
00000000
00000000
01018000
3F8FF000
FF9FFC00
FFFFFC00
7FFBFE00
3F80FE00
1F80FE00
1F807E00
1F807E00
1F807E00
1F807E00
1F807E00
1F807E00
1F807E00
1F807E00
1F807E00
1F807E00
3FC0FF00
FFF3FFC0
FFF3FFC0
FFF3FFC0
ENDCHAR
STARTCHAR 0149
ENCODING 329
SWIDTH 832 0
DWIDTH 37 0
BBX 33 32 3 0
BITMAP
0C00000000
FE00000000
FE00000000
FE00000000
FE00000000
7E00000000
3E00000000
1C00000000
1C00000000
3C00000000
3800000000
7001010000
F03F1FF000
61FF3FF800
01FF7FFC00
007FFFFC00
003F01FC00
003F00FC00
003F00FE00
003F00FE00
003F00FE00
003F00FE00
003F00FE00
003F00FE00
003F00FC00
003F00FC00
003F00FE00
003F80FE00
003F80FE00
01FFE3FF80
01FFE7FF80
01FFE7FF80
ENDCHAR
STARTCHAR 014A
ENCODING 330
SWIDTH 675 0
DWIDTH 30 0
BBX 27 41 2 -11
BITMAP
07C3FE00
FFCFFF00
FFDFFF80
FFFFFFC0
1FF83FC0
1FF01FC0
1FE00FE0
1FE00FE0
1FC00FE0
1FC00FE0
1FC00FE0
1FC00FE0
1FC00FE0
1FC00FE0
1FC00FE0
1FC00FE0
1FC00FE0
1FC00FE0
1FC00FE0
1FC00FE0
1FC00FE0
1FC00FE0
1FC00FE0
1FC00FE0
1FC00FE0
1FC00FE0
1FC00FE0
FFF80FE0
FFF80FE0
FFF80FC0
00000FC0
00000FC0
00000FC0
00000F80
00001F80
00043F00
000FFF00
000FFE00
000FFC00
000FF800
0003E000
ENDCHAR
STARTCHAR 014B
ENCODING 331
SWIDTH 630 0
DWIDTH 28 0
BBX 23 32 2 -11
BITMAP
010080
1F8FF0
FF9FF8
FFBFFC
7FFBFE
3FE0FE
1FC0FE
1FC07E
1F807E
1F807E
1F807E
1F807E
1F807E
1F807E
1F807E
1F807E
1F807E
3FC07E
FFF07E
FFF07E
FFF07E
00007E
00007C
00007C
0000FC
0000F8
0041F8
007FF0
007FE0
007FE0
007F80
003F00
ENDCHAR
STARTCHAR 014C
ENCODING 332
SWIDTH 742 0
DWIDTH 33 0
BBX 30 36 2 0
BITMAP
03FFFE00
03FFFE00
02000000
00000000
00000000
00000000
007FF000
01FFFE00
07F1FF00
0FC03F80
1F801FC0
3F000FE0
3F000FF0
7E0007F0
7E0007F8
FE0003F8
FE0003F8
FE0003F8
FC0003FC
FC0001FC
FC0001FC
FE0001FC
FE0001FC
FE0001F8
FE0003F8
FE0003F8
FE0003F8
7F0003F0
7F0003F0
3F8007E0
3F800FE0
1FC00FC0
0FF01F80
07FEFF00
01FFFC00
007FF000
ENDCHAR
STARTCHAR 014D
ENCODING 333
SWIDTH 562 0
DWIDTH 25 0
BBX 22 28 2 0
BITMAP
3FFFE0
3FFFE0
200000
000000
000000
000000
000000
00FC00
07FF80
1FFFC0
3F0FE0
7E07F0
7E03F8
FC03F8
FC01F8
FC01FC
FC01FC
FC01FC
FC01FC
FC01FC
FC01FC
FE01F8
FE01F8
7F03F0
7F03F0
3FCFE0
1FFFC0
07FF00
ENDCHAR
STARTCHAR 014E
ENCODING 334
SWIDTH 742 0
DWIDTH 33 0
BBX 30 39 2 0
BITMAP
00E01C00
01E01C00
01F03C00
00FFF800
00FFF800
007FF000
000FC000
00000000
00000000
007FF000
01FFFE00
07F1FF00
0FC03F80
1F801FC0
3F000FE0
3F000FF0
7E0007F0
7E0007F8
FE0003F8
FE0003F8
FE0003F8
FC0003FC
FC0001FC
FC0001FC
FE0001FC
FE0001FC
FE0001F8
FE0003F8
FE0003F8
FE0003F8
7F0003F0
7F0003F0
3F8007E0
3F800FE0
1FC00FC0
0FF01F80
07FEFF00
01FFFC00
007FF000
ENDCHAR
STARTCHAR 014F
ENCODING 335
SWIDTH 562 0
DWIDTH 25 0
BBX 22 32 2 0
BITMAP
0800C0
3C00E0
3C01E0
3E01E0
1FCFC0
1FFFC0
0FFF80
07FF00
00F800
000000
000000
00FC00
07FF80
1FFFC0
3F0FE0
7E07F0
7E03F8
FC03F8
FC01F8
FC01FC
FC01FC
FC01FC
FC01FC
FC01FC
FC01FC
FE01F8
FE01F8
7F03F0
7F03F0
3FCFE0
1FFFC0
07FF00
ENDCHAR
STARTCHAR 0150
ENCODING 336
SWIDTH 742 0
DWIDTH 33 0
BBX 30 39 2 0
BITMAP
003F3F00
003E3E00
003C3C00
007C7C00
00787800
00F0F000
00000000
00000000
00000000
007FF000
01FFFE00
07F1FF00
0FC03F80
1F801FC0
3F000FE0
3F000FF0
7E0007F0
7E0007F8
FE0003F8
FE0003F8
FE0003F8
FC0003FC
FC0001FC
FC0001FC
FE0001FC
FE0001FC
FE0001F8
FE0003F8
FE0003F8
FE0003F8
7F0003F0
7F0003F0
3F8007E0
3F800FE0
1FC00FC0
0FF01F80
07FEFF00
01FFFC00
007FF000
ENDCHAR
STARTCHAR 0151
ENCODING 337
SWIDTH 562 0
DWIDTH 25 0
BBX 22 32 2 0
BITMAP
01F9F8
01F1F0
03E1E0
03E3E0
03C3C0
078780
078780
0F0F00
000000
000000
000000
00FC00
07FF80
1FFFC0
3F0FE0
7E07F0
7E03F8
FC03F8
FC01F8
FC01FC
FC01FC
FC01FC
FC01FC
FC01FC
FC01FC
FE01F8
FE01F8
7F03F0
7F03F0
3FCFE0
1FFFC0
07FF00
ENDCHAR
STARTCHAR 0152
ENCODING 338
SWIDTH 990 0
DWIDTH 44 0
BBX 41 30 2 0
BITMAP
007FFFFFFE00
03FFFFFFFE00
07FBFE03FE00
0FC07F003E00
1F803F801E00
3F001FC00E00
3F000FC00E00
7E000FE00E00
7E000FE00000
FE0007F00000
FE0007F0F000
FC0007F0E000
FC0007F0E000
FC0007F1E000
FC0007FFE000
FC0007FFE000
FC0007F7E000
FE0007F0E000
FE0007F0E000
FE0007F07000
FE0007E00000
7E0007E00000
7F000FE00780
7F000FC00780
3F800F800F80
1FC01F800F00
0FE03F001F00
07FDFFFFFF00
03FFFFFFFF00
007FFFFFFF00
ENDCHAR
STARTCHAR 0153
ENCODING 339
SWIDTH 810 0
DWIDTH 36 0
BBX 33 21 2 0
BITMAP
00F803E000
07FF1FF800
1FFFBFFC00
3F0FFE7E00
7E07FC3F00
7E07F81F00
FC03F81F80
FC03F81F80
FC03F81F80
FC03FFFF80
FC03FFFF80
FC03FFFF00
FC03F80000
FC03F80000
FE03F80000
FE03FC0000
7F03FE0100
7F07FF0780
3FDFFFFF80
1FFFBFFE00
07FE0FFC00
ENDCHAR
STARTCHAR 0154
ENCODING 340
SWIDTH 697 0
DWIDTH 31 0
BBX 28 39 2 0
BITMAP
0007C000
000F8000
000F0000
001F0000
001E0000
003C0000
00000000
00000000
00000000
FFFFF000
FFFFFC00
FFFFFE00
1FC0FF00
1FC07F80
1FC03F80
1FC03F80
1FC03F80
1FC03F80
1FC03F80
1FC03F80
1FC03F00
1FC07F00
1FC0FE00
1FC7FC00
1FFFF800
1FFFC000
1FCFF000
1FC7F800
1FC3F800
1FC1FC00
1FC1FE00
1FC0FE00
1FC0FF00
1FC07F00
1FC07F80
1FC03FC0
FFF03FF0
FFF81FF0
FFF81FF0
ENDCHAR
STARTCHAR 0155
ENCODING 341
SWIDTH 472 0
DWIDTH 21 0
BBX 18 32 2 0
BITMAP
003F00
003E00
003C00
007C00
007800
00F000
00F000
01E000
000000
000000
000000
010000
3F8FC0
FF9FC0
FFBFC0
7F7FC0
3F7FC0
1FC3C0
1F83C0
1F8300
1F8000
1F8000
1F8000
1F8000
1F8000
1F8000
1F8000
1FC000
3FC000
FFFC00
FFFC00
FFFC00
ENDCHAR
STARTCHAR 0156
ENCODING 342
SWIDTH 697 0
DWIDTH 31 0
BBX 28 43 2 -13
BITMAP
FFFFF000
FFFFFC00
FFFFFE00
1FC0FF00
1FC07F80
1FC03F80
1FC03F80
1FC03F80
1FC03F80
1FC03F80
1FC03F80
1FC03F00
1FC07F00
1FC0FE00
1FC7FC00
1FFFF800
1FFFC000
1FCFF000
1FC7F800
1FC3F800
1FC1FC00
1FC1FE00
1FC0FE00
1FC0FF00
1FC07F00
1FC07F80
1FC03FC0
FFF03FF0
FFF81FF0
FFF81FF0
00000000
00000000
00018000
001FC000
001FC000
001FC000
001FC000
0007C000
00078000
00078000
000F0000
000E0000
001C0000
ENDCHAR
STARTCHAR 0157
ENCODING 343
SWIDTH 472 0
DWIDTH 21 0
BBX 18 34 2 -13
BITMAP
010000
3F8FC0
FF9FC0
FFBFC0
7F7FC0
3F7FC0
1FC3C0
1F83C0
1F8300
1F8000
1F8000
1F8000
1F8000
1F8000
1F8000
1F8000
1FC000
3FC000
FFFC00
FFFC00
FFFC00
000000
000000
018000
1FC000
1FC000
1FC000
1FC000
07C000
078000
078000
070000
0E0000
1C0000
ENDCHAR
STARTCHAR 0158
ENCODING 344
SWIDTH 697 0
DWIDTH 31 0
BBX 28 39 2 0
BITMAP
0780E000
0FE3F000
03FFC000
01FF8000
00FE0000
007C0000
00300000
00000000
00000000
FFFFF000
FFFFFC00
FFFFFE00
1FC0FF00
1FC07F80
1FC03F80
1FC03F80
1FC03F80
1FC03F80
1FC03F80
1FC03F80
1FC03F00
1FC07F00
1FC0FE00
1FC7FC00
1FFFF800
1FFFC000
1FCFF000
1FC7F800
1FC3F800
1FC1FC00
1FC1FE00
1FC0FE00
1FC0FF00
1FC07F00
1FC07F80
1FC03FC0
FFF03FF0
FFF81FF0
FFF81FF0
ENDCHAR
STARTCHAR 0159
ENCODING 345
SWIDTH 472 0
DWIDTH 21 0
BBX 18 32 2 0
BITMAP
000100
380380
7C0F80
3F1F00
1FFE00
0FFC00
07F800
03F000
01E000
000000
000000
010000
3F8FC0
FF9FC0
FFBFC0
7F7FC0
3F7FC0
1FC3C0
1F83C0
1F8300
1F8000
1F8000
1F8000
1F8000
1F8000
1F8000
1F8000
1FC000
3FC000
FFFC00
FFFC00
FFFC00
ENDCHAR
STARTCHAR 015A
ENCODING 346
SWIDTH 540 0
DWIDTH 24 0
BBX 21 39 2 0
BITMAP
001F00
003E00
003E00
007C00
007800
00F000
000000
000000
000000
07FF80
0FFFE0
1F9FE0
3E07E0
7C03E0
7C01E0
7C01E0
7E01E0
7E0100
7F0000
7FC000
7FF000
3FFC00
3FFF00
1FFFC0
0FFFE0
03FFF0
00FFF0
003FF8
000FF8
1807F8
7803F8
7801F8
7801F8
F801F8
FC01F0
FE03F0
FFFFE0
7FFFC0
0FFF00
ENDCHAR
STARTCHAR 015B
ENCODING 347
SWIDTH 450 0
DWIDTH 20 0
BBX 17 32 2 0
BITMAP
007E00
007C00
00F800
00F000
00F000
01E000
01C000
03C000
000000
000000
000000
03E000
1FFE00
7FFE00
FC3E00
FC1E00
FC0E00
FC0E00
FF0000
FFC000
7FF800
3FFC00
1FFF00
07FF00
00FF80
E03F80
F03F80
F01F80
F83F00
FEFF00
FFFE00
7FF800
ENDCHAR
STARTCHAR 015C
ENCODING 348
SWIDTH 540 0
DWIDTH 24 0
BBX 21 39 2 0
BITMAP
007800
01FC00
03FE00
07FF00
1F9FC0
1E07C0
080100
000000
000000
07FF80
0FFFE0
1F9FE0
3E07E0
7C03E0
7C01E0
7C01E0
7E01E0
7E0100
7F0000
7FC000
7FF000
3FFC00
3FFF00
1FFFC0
0FFFE0
03FFF0
00FFF0
003FF8
000FF8
1807F8
7803F8
7801F8
7801F8
F801F8
FC01F0
FE03F0
FFFFE0
7FFFC0
0FFF00
ENDCHAR
STARTCHAR 015D
ENCODING 349
SWIDTH 450 0
DWIDTH 20 0
BBX 17 32 2 0
BITMAP
00C000
03E000
07F000
0FF800
1FFC00
3E7E00
783F00
F00F80
400600
000000
000000
03E000
1FFE00
7FFE00
FC3E00
FC1E00
FC0E00
FC0E00
FF0000
FFC000
7FF800
3FFC00
1FFF00
07FF00
00FF80
E03F80
F03F80
F01F80
F83F00
FEFF00
FFFE00
7FF800
ENDCHAR
STARTCHAR 015E
ENCODING 350
SWIDTH 540 0
DWIDTH 24 0
BBX 21 41 2 -11
BITMAP
07FF80
0FFFE0
1F9FE0
3E07E0
7C03E0
7C01E0
7C01E0
7E01E0
7E0100
7F0000
7FC000
7FF000
3FFC00
3FFF00
1FFFC0
0FFFE0
03FFF0
00FFF0
003FF8
000FF8
1807F8
7803F8
7801F8
7801F8
F801F8
FC01F0
FE03F0
FFFFE0
3FFFC0
0FFF00
007000
00E000
01F000
01F800
00FC00
003C00
001C00
003C00
007C00
01F000
01C000
ENDCHAR
STARTCHAR 015F
ENCODING 351
SWIDTH 450 0
DWIDTH 20 0
BBX 17 32 2 -11
BITMAP
03E000
1FFE00
7FFE00
FC3E00
FC1E00
FC0E00
FC0E00
FF0000
FFC000
7FF800
3FFC00
1FFF00
07FF00
00FF80
E03F80
F03F80
F01F80
F83F00
FEFF00
FFFE00
7FF800
038000
070000
078000
07E000
07E000
01F000
00F000
00E000
03E000
07C000
060000
ENDCHAR
STARTCHAR 0160
ENCODING 352
SWIDTH 540 0
DWIDTH 24 0
BBX 21 39 2 0
BITMAP
1E0180
1F87C0
0FFF80
07FE00
03FC00
00F000
004000
000000
000000
07FF80
0FFFE0
1F9FE0
3E07E0
7C03E0
7C01E0
7C01E0
7E01E0
7E0100
7F0000
7FC000
7FF000
3FFC00
3FFF00
1FFFC0
0FFFE0
03FFF0
00FFF0
003FF8
000FF8
1807F8
7803F8
7801F8
7801F8
F801F8
FC01F0
FE03F0
FFFFE0
7FFFC0
0FFF00
ENDCHAR
STARTCHAR 0161
ENCODING 353
SWIDTH 450 0
DWIDTH 20 0
BBX 17 32 2 0
BITMAP
000200
F00F00
F81F00
7E7E00
3FF800
1FF000
0FE000
07C000
038000
000000
000000
03E000
1FFE00
7FFE00
FC3E00
FC1E00
FC0E00
FC0E00
FF0000
FFC000
7FF800
3FFC00
1FFF00
07FF00
00FF80
E03F80
F03F80
F01F80
F83F00
FEFF00
FFFE00
7FF800
ENDCHAR
STARTCHAR 0162
ENCODING 354
SWIDTH 652 0
DWIDTH 29 0
BBX 27 41 1 -11
BITMAP
7FFFFFC0
7FFFFFC0
7FFFFFC0
7C3F87C0
783F83E0
F03F81E0
F03F81E0
F03F81E0
003F8000
003F8000
003F8000
003F8000
003F8000
003F8000
003F8000
003F8000
003F8000
003F8000
003F8000
003F8000
003F8000
003F8000
003F8000
003F8000
003F8000
003F8000
007FC000
03FFF800
03FFF800
03FFF800
000C0000
001C0000
003E0000
003F0000
003F8000
00078000
00078000
00078000
000F0000
003E0000
00380000
ENDCHAR
STARTCHAR 0163
ENCODING 355
SWIDTH 360 0
DWIDTH 16 0
BBX 15 38 1 -10
BITMAP
0380
1F80
1F80
1F80
1F80
1F80
1F80
FFFE
FFFC
FFFC
1F80
1F80
1F80
1F80
1F80
1F80
1F80
1F80
1F80
1F80
1F80
1F80
1F80
1FC0
0FFE
0FFE
07FC
01C0
0380
07C0
07E0
03F0
00F0
0070
00F0
01F0
07C0
0700
ENDCHAR
STARTCHAR 0164
ENCODING 356
SWIDTH 652 0
DWIDTH 29 0
BBX 27 39 1 0
BITMAP
03C03000
03F0F800
01FFF000
00FFC000
007F8000
001E0000
00080000
00000000
00000000
7FFFFFC0
7FFFFFC0
7FFFFFC0
7C3F87C0
783F83E0
F03F81E0
F03F81E0
F03F81E0
003F8000
003F8000
003F8000
003F8000
003F8000
003F8000
003F8000
003F8000
003F8000
003F8000
003F8000
003F8000
003F8000
003F8000
003F8000
003F8000
003F8000
003F8000
007FC000
03FFF800
03FFF800
03FFF800
ENDCHAR
STARTCHAR 0165
ENCODING 357
SWIDTH 517 0
DWIDTH 23 0
BBX 23 32 1 0
BITMAP
00001C
0000FC
0000FE
0000FE
0001FE
03807C
1F803C
1F803C
1F803C
1F8038
1F8070
1F80F0
FFFE60
FFFC00
FFFC00
1F8000
1F8000
1F8000
1F8000
1F8000
1F8000
1F8000
1F8000
1F8000
1F8000
1F8000
1F8000
1F8000
1FC000
0FFE00
0FFE00
07F800
ENDCHAR
STARTCHAR 0166
ENCODING 358
SWIDTH 652 0
DWIDTH 29 0
BBX 27 30 1 0
BITMAP
7FFFFFC0
7FFFFFC0
7FFFFFC0
7C3F87C0
783F83E0
F03F81E0
F03F81E0
F03F81E0
003F8000
003F8000
003F8000
003F8000
003F8000
07FFFC00
07FFFC00
07FFFC00
003F8000
003F8000
003F8000
003F8000
003F8000
003F8000
003F8000
003F8000
003F8000
003F8000
007FC000
03FFF800
03FFF800
03FFF800
ENDCHAR
STARTCHAR 0167
ENCODING 359
SWIDTH 360 0
DWIDTH 16 0
BBX 16 27 0 1
BITMAP
01C0
0FC0
0FC0
0FC0
0FC0
0FC0
0FC0
7FFF
7FFE
7FFE
0FC0
0FC0
0FC0
0FC0
0FC0
FFFC
FFFC
0FC0
0FC0
0FC0
0FC0
0FC0
0FC0
0FE0
07FF
07FF
03FC
ENDCHAR
STARTCHAR 0168
ENCODING 360
SWIDTH 675 0
DWIDTH 30 0
BBX 28 39 1 0
BITMAP
00040000
003F8700
007FFF00
00FFFE00
00E3FC00
0000F800
00000000
00000000
00000000
FFF81FF0
FFF81FF0
7FF81FF0
1FE007C0
1FC00380
1FC00380
1FC00380
1FC00380
1FC00380
1FC00380
1FC00380
1FC00380
1FC00380
1FC00380
1FC00380
1FC00380
1FC00380
1FC00380
1FC00380
1FC00380
1FC00380
1FC00380
0FC00380
0FE00380
0FE00700
0FF00700
07F81E00
03FFFE00
01FFFC00
007FF000
ENDCHAR
STARTCHAR 0169
ENCODING 361
SWIDTH 607 0
DWIDTH 27 0
BBX 25 30 1 0
BITMAP
01F02000
07FC7800
0FFFF000
0FFFE000
0C1FC000
00078000
00000000
00000000
00000000
01000800
3F87FC00
FF87FC00
FF87FC00
7F81FC00
3F80FC00
3F80FC00
1F80FC00
1F80FC00
1F80FC00
1F80FC00
1F80FC00
1F80FC00
1F80FC00
1F80FC00
1F80FC00
1FC0FE00
1FE0FF80
1FFFFF80
0FFEFF80
07F8F000
ENDCHAR
STARTCHAR 016A
ENCODING 362
SWIDTH 675 0
DWIDTH 30 0
BBX 28 36 1 0
BITMAP
00FFFF00
00FFFF00
00000000
00000000
00000000
00000000
FFF81FF0
FFF81FF0
7FF81FF0
1FE007C0
1FC00380
1FC00380
1FC00380
1FC00380
1FC00380
1FC00380
1FC00380
1FC00380
1FC00380
1FC00380
1FC00380
1FC00380
1FC00380
1FC00380
1FC00380
1FC00380
1FC00380
1FC00380
0FC00380
0FE00380
0FE00700
0FF00700
07F81E00
03FFFE00
01FFFC00
007FF000
ENDCHAR
STARTCHAR 016B
ENCODING 363
SWIDTH 607 0
DWIDTH 27 0
BBX 25 28 1 0
BITMAP
0FFFF800
0FFFF000
08000000
00000000
00000000
00000000
00000000
01000800
3F87FC00
FF87FC00
FF87FC00
7F81FC00
3F80FC00
3F80FC00
1F80FC00
1F80FC00
1F80FC00
1F80FC00
1F80FC00
1F80FC00
1F80FC00
1F80FC00
1F80FC00
1FC0FE00
1FE0FF80
1FFFFF80
0FFEFF80
07F8F000
ENDCHAR
STARTCHAR 016C
ENCODING 364
SWIDTH 675 0
DWIDTH 30 0
BBX 28 39 1 0
BITMAP
00700600
00780E00
007C1E00
007FFE00
003FFC00
001FF800
0007E000
00000000
00000000
FFF81FF0
FFF81FF0
7FF81FF0
1FE007C0
1FC00380
1FC00380
1FC00380
1FC00380
1FC00380
1FC00380
1FC00380
1FC00380
1FC00380
1FC00380
1FC00380
1FC00380
1FC00380
1FC00380
1FC00380
1FC00380
1FC00380
1FC00380
0FC00380
0FE00380
0FE00700
0FF00700
07F81E00
03FFFE00
01FFFC00
007FF000
ENDCHAR
STARTCHAR 016D
ENCODING 365
SWIDTH 607 0
DWIDTH 27 0
BBX 25 32 1 0
BITMAP
00002000
0E003800
0F007000
0F80F000
07F3F000
07FFE000
03FFE000
01FFC000
003E0000
00000000
00000000
01000800
3F87FC00
FF87FC00
FF87FC00
7F81FC00
3F80FC00
3F80FC00
1F80FC00
1F80FC00
1F80FC00
1F80FC00
1F80FC00
1F80FC00
1F80FC00
1F80FC00
1F80FC00
1FC0FE00
1FE0FF80
1FFFFF80
0FFEFF80
07F8F000
ENDCHAR
STARTCHAR 016E
ENCODING 366
SWIDTH 675 0
DWIDTH 30 0
BBX 28 39 1 0
BITMAP
0007F000
000E7800
001E3800
001C3800
001E3800
000FF000
0007E000
00000000
00000000
FFF81FF0
FFF81FF0
7FF81FF0
1FE007C0
1FC00380
1FC00380
1FC00380
1FC00380
1FC00380
1FC00380
1FC00380
1FC00380
1FC00380
1FC00380
1FC00380
1FC00380
1FC00380
1FC00380
1FC00380
1FC00380
1FC00380
1FC00380
0FC00380
0FE00380
0FE00700
0FF00700
07F81E00
03FFFE00
01FFFC00
007FF000
ENDCHAR
STARTCHAR 016F
ENCODING 367
SWIDTH 607 0
DWIDTH 27 0
BBX 25 32 1 0
BITMAP
003E0000
00FF8000
01E78000
01E3C000
01E3C000
01E38000
01F78000
00FF0000
003C0000
00000000
00000000
01000800
3F87FC00
FF87FC00
FF87FC00
7F81FC00
3F80FC00
3F80FC00
1F80FC00
1F80FC00
1F80FC00
1F80FC00
1F80FC00
1F80FC00
1F80FC00
1F80FC00
1F80FC00
1FC0FE00
1FE0FF80
1FFFFF80
0FFEFF80
07F8F000
ENDCHAR
STARTCHAR 0170
ENCODING 368
SWIDTH 675 0
DWIDTH 30 0
BBX 28 39 1 0
BITMAP
000FCFC0
000F8F80
001F1F00
001E1E00
003C3C00
00383C00
00000000
00000000
00000000
FFF81FF0
FFF81FF0
7FF81FF0
1FE007C0
1FC00380
1FC00380
1FC00380
1FC00380
1FC00380
1FC00380
1FC00380
1FC00380
1FC00380
1FC00380
1FC00380
1FC00380
1FC00380
1FC00380
1FC00380
1FC00380
1FC00380
1FC00380
0FC00380
0FE00380
0FE00700
0FF00700
07F81E00
03FFFE00
01FFFC00
007FF000
ENDCHAR
STARTCHAR 0171
ENCODING 369
SWIDTH 607 0
DWIDTH 27 0
BBX 25 32 1 0
BITMAP
007E7E00
007C7C00
00F8F800
00F0F000
01F1F000
01E1E000
01C1C000
03C3C000
00000000
00000000
00000000
01000800
3F87FC00
FF87FC00
FF87FC00
7F81FC00
3F80FC00
3F80FC00
1F80FC00
1F80FC00
1F80FC00
1F80FC00
1F80FC00
1F80FC00
1F80FC00
1F80FC00
1F80FC00
1FC0FE00
1FE0FF80
1FFFFF80
0FFEFF80
07F8F000
ENDCHAR
STARTCHAR 0172
ENCODING 370
SWIDTH 675 0
DWIDTH 30 0
BBX 28 41 1 -11
BITMAP
FFF81FF0
FFF81FF0
7FF81FF0
1FE007C0
1FC00380
1FC00380
1FC00380
1FC00380
1FC00380
1FC00380
1FC00380
1FC00380
1FC00380
1FC00380
1FC00380
1FC00380
1FC00380
1FC00380
1FC00380
1FC00380
1FC00380
1FC00380
0FC00380
0FE00380
0FE00700
0FF00700
07F81E00
03FFFE00
01FFFC00
007FF000
0000E000
0003C000
0007C000
00078000
000F8000
000FC000
000FFC00
000FFE00
0007FE00
0007F800
0001E000
ENDCHAR
STARTCHAR 0173
ENCODING 371
SWIDTH 607 0
DWIDTH 27 0
BBX 25 32 1 -11
BITMAP
01000800
3F87FC00
FF87FC00
FF87FC00
7F81FC00
3F80FC00
3F80FC00
1F80FC00
1F80FC00
1F80FC00
1F80FC00
1F80FC00
1F80FC00
1F80FC00
1F80FC00
1F80FC00
1FC0FE00
1FE0FF80
1FFFFF80
0FFEFF80
07F8FE00
00003800
0000F000
0001F000
0001E000
0003E000
0003F000
0003FF00
0003FF80
0003FF80
0001FE00
00007800
ENDCHAR
STARTCHAR 0174
ENCODING 372
SWIDTH 990 0
DWIDTH 44 0
BBX 42 39 1 0
BITMAP
000007800000
00000FC00000
00003FE00000
00007FF80000
0001F8FC0000
0001E03C0000
000000100000
000000000000
000000000000
FFF807807FC0
FFF807807FC0
FFF00F807FC0
3FC00FC00F80
3FC00FC00F00
1FC01FC00E00
1FC01FE00E00
1FC01FE00E00
0FE03FF00C00
0FE03FF01C00
0FE03FF01C00
07F077F81C00
07F073F83800
07F073F83800
03F8E1FC3800
03F8E1FC3000
03F8E1FE7000
01FDC0FE7000
01FDC0FE6000
01FD80FFE000
01FF807FE000
00FF807FE000
00FF003FC000
00FF003FC000
007F003FC000
007E001F8000
007E001F8000
003E001F8000
003C000F0000
003C000F0000
ENDCHAR
STARTCHAR 0175
ENCODING 373
SWIDTH 765 0
DWIDTH 34 0
BBX 33 32 1 0
BITMAP
0000300000
0000780000
0001FC0000
0003FE0000
0007FF0000
000F9F8000
001F07C000
003C03E000
001800C000
0000000000
0000000000
0000100000
FFE0707F80
FFE0F87F80
7FC0F83F00
3F80F81E00
3F81FC0E00
1FC1FC1C00
1FC3FE1C00
1FC3FE1C00
0FE3FE1800
0FE77F3800
07E73F3800
07EE3FB000
07FE1FF000
03FC1FF000
03FC1FE000
03FC0FE000
01F80FE000
01F807C000
01F007C000
00F007C000
ENDCHAR
STARTCHAR 0176
ENCODING 374
SWIDTH 630 0
DWIDTH 28 0
BBX 26 39 1 0
BITMAP
0007C000
000FE000
001FF000
007FF800
00F8FC00
00E03C00
00400000
00000000
00000000
FFF83FC0
FFF83FC0
FFF03FC0
3FE00F00
1FE00F00
1FE00E00
0FE01C00
0FF01C00
07F03800
07F83800
03F83000
03FC7000
01FC7000
01FEE000
00FEE000
00FFC000
007FC000
007F8000
003F8000
003F8000
003F8000
003F8000
003F8000
003F8000
003F8000
003F8000
007F8000
03FFF800
07FFF800
07FFF800
ENDCHAR
STARTCHAR 0177
ENCODING 375
SWIDTH 540 0
DWIDTH 24 0
BBX 23 43 1 -11
BITMAP
000600
000F00
001F80
007FC0
00FFE0
01F3F0
03E0F8
07807C
030018
000000
000000
000000
FFF1FE
FFF1FE
7FE0FC
3FC078
1FC070
1FC070
0FE070
0FE0E0
07E0E0
07F1C0
07F1C0
03F980
03FB80
01FF80
01FF00
00FF00
00FE00
007E00
007C00
003C00
003C00
003800
003800
007000
007000
41E000
7FE000
7FC000
7FC000
7F8000
3F0000
ENDCHAR
STARTCHAR 0178
ENCODING 376
SWIDTH 630 0
DWIDTH 28 0
BBX 26 38 1 0
BITMAP
01F87E00
01F87E00
01F87F00
01F87E00
01F87E00
00701C00
00000000
00000000
FFF83FC0
FFF83FC0
FFF03FC0
3FE00F00
1FE00F00
1FE00E00
0FE01C00
0FF01C00
07F03800
07F83800
03F83000
03FC7000
01FC7000
01FEE000
00FEE000
00FFC000
007FC000
007F8000
003F8000
003F8000
003F8000
003F8000
003F8000
003F8000
003F8000
003F8000
007F8000
03FFF800
07FFF800
07FFF800
ENDCHAR
STARTCHAR 0179
ENCODING 377
SWIDTH 607 0
DWIDTH 27 0
BBX 23 39 2 0
BITMAP
000FC0
000F80
001F00
001E00
003C00
003C00
000000
000000
000000
3FFFFC
3FFFFC
3FFFFC
3E03FC
7C07F8
7807F8
780FF0
780FF0
301FE0
001FC0
003FC0
007F80
007F80
00FF00
00FF00
01FE00
01FE00
03FC00
07F800
07F800
0FF000
0FF000
1FE01E
3FC01E
3FC03E
7F803C
7F807C
FFFFFC
FFFFFC
FFFFFC
ENDCHAR
STARTCHAR 017A
ENCODING 378
SWIDTH 495 0
DWIDTH 22 0
BBX 19 32 2 0
BITMAP
001F00
003E00
003C00
007C00
007800
00F000
00F000
00E000
000000
000000
000000
000000
7FFFC0
7FFFC0
7C1FC0
783F80
F07F80
F07F00
70FE00
01FE00
01FC00
03F800
07F800
0FF000
0FE1C0
1FE1E0
3FC1E0
7F81E0
7F03E0
FFFFE0
FFFFE0
FFFFE0
ENDCHAR
STARTCHAR 017B
ENCODING 379
SWIDTH 607 0
DWIDTH 27 0
BBX 23 38 2 0
BITMAP
007E00
00FE00
00FF00
00FF00
007E00
007C00
000000
000000
3FFFFC
3FFFFC
3FFFFC
3E03FC
7C07F8
7807F8
780FF0
780FF0
301FE0
001FC0
003FC0
007F80
007F80
00FF00
00FF00
01FE00
01FE00
03FC00
07F800
07F800
0FF000
0FF000
1FE01E
3FC01E
3FC03E
7F803C
7F807C
FFFFFC
FFFFFC
FFFFFC
ENDCHAR
STARTCHAR 017C
ENCODING 380
SWIDTH 495 0
DWIDTH 22 0
BBX 19 30 2 0
BITMAP
00C000
03F000
03F800
03F800
03F800
03F000
00E000
000000
000000
000000
7FFFC0
7FFFC0
7C1FC0
783F80
F07F80
F07F00
70FE00
01FE00
01FC00
03F800
07F800
0FF000
0FE1C0
1FE1E0
3FC1E0
7F81E0
7F03E0
FFFFE0
FFFFE0
FFFFE0
ENDCHAR
STARTCHAR 017D
ENCODING 381
SWIDTH 607 0
DWIDTH 27 0
BBX 23 39 2 0
BITMAP
0700E0
0FC3E0
07FFC0
01FF00
00FE00
007C00
002000
000000
000000
3FFFFC
3FFFFC
3FFFFC
3E03FC
7C07F8
7807F8
780FF0
780FF0
301FE0
001FC0
003FC0
007F80
007F80
00FF00
00FF00
01FE00
01FE00
03FC00
07F800
07F800
0FF000
0FF000
1FE01E
3FC01E
3FC03E
7F803C
7F807C
FFFFFC
FFFFFC
FFFFFC
ENDCHAR
STARTCHAR 017E
ENCODING 382
SWIDTH 495 0
DWIDTH 22 0
BBX 19 32 2 0
BITMAP
000100
380380
7C0F80
3F1F00
1FFE00
07FC00
07F800
03F000
01E000
000000
000000
000000
7FFFC0
7FFFC0
7C1FC0
783F80
F07F80
F07F00
70FE00
01FE00
01FC00
03F800
07F800
0FF000
0FE1C0
1FE1E0
3FC1E0
7F81E0
7F03E0
FFFFE0
FFFFE0
FFFFE0
ENDCHAR
STARTCHAR 017F
ENCODING 383
SWIDTH 360 0
DWIDTH 16 0
BBX 20 32 1 0
BITMAP
001F80
007FF0
01FFF0
03E3E0
07E1E0
07C1E0
0FC1E0
0FC180
0FC000
0FC000
0FC000
0FC000
7FC000
FFC000
FFC000
0FC000
0FC000
0FC000
0FC000
0FC000
0FC000
0FC000
0FC000
0FC000
0FC000
0FC000
0FC000
0FE000
1FE000
7FFE00
7FFE00
7FFE00
ENDCHAR
STARTCHAR 018E
ENCODING 398
SWIDTH 607 0
DWIDTH 27 0
BBX 25 30 1 0
BITMAP
1FFFFF80
1FFFFF80
1FFFFF80
3F01FC00
3C01FC00
3C01FC00
3801FC00
3801FC00
0001FC00
0001FC00
0381FC00
0381FC00
03C1FC00
03F1FC00
03FFFC00
03FFFC00
03E1FC00
03C1FC00
0381FC00
0381FC00
0001FC00
1001FC00
7001FC00
F001FC00
7801FC00
7801FC00
7E03FC00
7FFFFF80
7FFFFF80
7FFFFF80
ENDCHAR
STARTCHAR 018F
ENCODING 399
SWIDTH 652 0
DWIDTH 29 0
BBX 26 30 2 0
BITMAP
0FFF8000
7FFFF000
7F8FF800
7C01FC00
7C00FE00
78007F00
78007F00
78003F80
10003F80
00001FC0
00001FC0
00001FC0
00001FC0
00001FC0
FFFFFFC0
FFFFFFC0
FFFFFFC0
FC001FC0
FC001FC0
FC001FC0
FE001F80
FE001F80
7E003F00
7E003F00
3F003E00
3F007E00
1F80FC00
0FF7F800
07FFE000
01FF8000
ENDCHAR
STARTCHAR 0192
ENCODING 402
SWIDTH 405 0
DWIDTH 18 0
BBX 31 43 -8 -11
BITMAP
000001F0
00000FFE
00003FFC
00007E7C
0000FC3C
0000FC3C
0001FC3C
0001F820
0001F800
0003F800
0003F800
0003F000
003FFF80
003FFF00
003FFF00
0007F000
0007E000
0007E000
0007E000
0007E000
000FE000
000FE000
000FC000
000FC000
000FC000
000FC000
000FC000
000FC000
001FC000
001F8000
001F8000
001F8000
001F8000
001F0000
003F0000
003F0000
783E0000
787E0000
787C0000
78F80000
7FF80000
FFE00000
7F800000
ENDCHAR
STARTCHAR 019D
ENCODING 413
SWIDTH 720 0
DWIDTH 32 0
BBX 36 41 -5 -11
BITMAP
01FF003FF0
01FF003FF0
01FF803FE0
007FC00780
003FE00780
003FE00380
003FF00380
003FF80380
003FFC0380
003BFC0380
0039FE0380
0038FF0380
0038FF8380
00387F8380
00383FC380
00381FE380
00381FF380
00380FF380
003807FB80
003803FF80
003803FF80
003801FF80
003800FF80
0038007F80
0038007F80
0038003F80
0038001F80
0038000F80
0038000F80
0038000780
0038000000
0038000000
0070000000
0070000000
00F0000000
83E0000000
FFE0000000
FFC0000000
FFC0000000
FF80000000
7E00000000
ENDCHAR
STARTCHAR 01A0
ENCODING 416
SWIDTH 742 0
DWIDTH 33 0
BBX 30 35 2 1
BITMAP
00000078
00000078
00000078
000000F8
000001F8
007FFFF0
01FFFFC0
07F1FF00
0FC03F80
1F801FC0
3F000FE0
3F000FF0
7E0007F0
7E0007F8
FE0003F8
FE0003F8
FE0003F8
FC0003FC
FC0001FC
FC0001FC
FE0001FC
FE0001FC
FE0001F8
FE0003F8
FE0003F8
FE0003F8
7F0003F0
7F0003F0
3F8007E0
3F800FE0
1FC00FC0
0FF01F80
07FEFF00
01FFFC00
007FF000
ENDCHAR
STARTCHAR 01A1
ENCODING 417
SWIDTH 585 0
DWIDTH 26 0
BBX 23 25 2 0
BITMAP
00003C
00003C
00003E
00003C
00F87C
07FFF8
1FFFE0
3F0FE0
7E07F0
7E03F8
FC03F8
FC01F8
FC01FC
FC01FC
FC01FC
FC01FC
FC01FC
FC01FC
FE01F8
FE01F8
7F03F0
7F03F0
3FCFE0
1FFFC0
07FF00
ENDCHAR
STARTCHAR 01AF
ENCODING 431
SWIDTH 765 0
DWIDTH 34 0
BBX 32 36 1 0
BITMAP
00000006
0000000F
0000000F
0000000F
0000000F
0000003F
FFF81FFE
FFF81FFC
7FF81FF0
1FE007C0
1FC00380
1FC00380
1FC00380
1FC00380
1FC00380
1FC00380
1FC00380
1FC00380
1FC00380
1FC00380
1FC00380
1FC00380
1FC00380
1FC00380
1FC00380
1FC00380
1FC00380
1FC00380
0FC00380
0FE00380
0FE00700
0FF00700
07F81E00
03FFFE00
01FFFC00
007FF000
ENDCHAR
STARTCHAR 01B0
ENCODING 432
SWIDTH 652 0
DWIDTH 29 0
BBX 26 26 1 0
BITMAP
000003C0
000003C0
000003C0
000003C0
000003C0
01000FC0
3F87FF80
FF87FE00
FF87FC00
7F81FC00
3F80FC00
3F80FC00
1F80FC00
1F80FC00
1F80FC00
1F80FC00
1F80FC00
1F80FC00
1F80FC00
1F80FC00
1F80FC00
1FC0FE00
1FE0FF80
1FFFFF80
0FFEFF80
07F8F000
ENDCHAR
STARTCHAR 01B7
ENCODING 439
SWIDTH 607 0
DWIDTH 27 0
BBX 23 30 2 0
BITMAP
7FFFFC
7FFFFC
7FFFFC
7C03F8
7807F8
780FF0
780FE0
F01FE0
303FC0
003F80
007F80
00FF00
01FE00
01FE00
01FFE0
01FFF0
000FFC
0003FC
0001FE
0000FE
0000FE
F000FE
F000FE
7000FE
7800FE
7801FC
7C03F8
7FFFF0
7FFFE0
1FFF80
ENDCHAR
STARTCHAR 01C4
ENCODING 452
SWIDTH 1327 0
DWIDTH 59 0
BBX 56 39 2 0
BITMAP
00000000078060
0000000007E1F0
0000000003FFE0
0000000001FF80
0000000000FF00
00000000007C00
00000000003000
00000000000000
00000000000000
FFFFE0003FFFFE
FFFFFC003FFFFE
FFF3FF003FFFFE
1FC07F803E03FC
1FC03FC03C03FC
1FC00FE03C07F8
1FC00FF03C07F8
1FC007F0380FF0
1FC007F0180FF0
1FC003F8001FE0
1FC003F8001FE0
1FC003F8003FC0
1FC003F8007F80
1FC003F8007F80
1FC003F800FF00
1FC003F800FF00
1FC003F801FE00
1FC003F801FE00
1FC003F803FC00
1FC003F007F800
1FC003F007F800
1FC007F00FF000
1FC007E00FF00F
1FC00FE01FE01E
1FC00FC01FC01E
1FC01F803FC03E
3FE07F007F807E
FFFFFE007FFFFE
FFFFF8007FFFFE
FFFF80007FFFFE
ENDCHAR
STARTCHAR 01C5
ENCODING 453
SWIDTH 1237 0
DWIDTH 55 0
BBX 52 31 2 1
BITMAP
000000003C03C0
FFFFE0003E07C0
FFFFFC001F9F00
FFF3FF000FFE00
1FC07F8007FC00
1FC03FC003F800
1FC00FE001F000
1FC00FF000E000
1FC007F0000000
1FC007F0000000
1FC003F8000000
1FC003F87FFFE0
1FC003F87FFFE0
1FC003F87E1FE0
1FC003F87C1FC0
1FC003F8783F80
1FC003F8787F80
1FC003F8787F00
1FC003F800FE00
1FC003F801FE00
1FC003F003FC00
1FC003F003F800
1FC007F007F800
1FC007E00FF0E0
1FC00FE00FE0F0
1FC00FC01FE0F0
1FC01F803FC0F0
3FE07F007F81F0
FFFFFE007FFFF0
FFFFF8007FFFF0
FFFF80007FFFF0
ENDCHAR
STARTCHAR 01C6
ENCODING 454
SWIDTH 1102 0
DWIDTH 49 0
BBX 46 32 2 0
BITMAP
000018020020
0007F8070070
000FF807C1F0
000FF803E3E0
0007F801FFC0
0001F800FF80
0001F800FF00
0001F8007E00
0001F8003C00
0001F8000000
0001F8000000
007DF8000000
03FFF80FFFF8
0FFFF80FFFFC
1F83F80F83F8
3F01F80F07F0
7E01F80E0FF0
7E01F81E0FE0
FC01F80E1FC0
FC01F8003FC0
FC01F8003F80
FC01F8007F00
FC01F800FF00
FC01F801FE00
FE01F801FC18
FE01F803FC3C
FE01F807F83C
FF01FC07F03C
7F81FF0FE07C
7FFFFF1FFFFC
3FFDFF1FFFFC
0FF1E00FFFFC
ENDCHAR
STARTCHAR 01C7
ENCODING 455
SWIDTH 945 0
DWIDTH 42 0
BBX 39 41 2 -11
BITMAP
FFF8003FFE
FFF8003FFE
FFF8003FFE
1FC00007F8
1FC00007F0
1FC00007F0
1FC00007F0
1FC00007F0
1FC00007F0
1FC00007F0
1FC00007F0
1FC00007F0
1FC00007F0
1FC00007F0
1FC00007F0
1FC00007F0
1FC00007F0
1FC00007F0
1FC00007F0
1FC00007F0
1FC00007F0
1FC00007F0
1FC00F07F0
1FC00F07F0
1FC00F07F0
1FC01E07F0
3FE03E07F0
FFFFFE07F0
FFFFFE07F0
FFFFFE07F0
00000007E0
00000007E0
00000007E0
00000007E0
0000000FC0
0000000F80
0000001F80
0000003F00
0000007C00
0000007800
0000006000
ENDCHAR
STARTCHAR 01C8
ENCODING 456
SWIDTH 900 0
DWIDTH 40 0
BBX 36 42 2 -11
BITMAP
00000001C0
FFF80007E0
FFF80007F0
FFF8000FF0
1FC00007F0
1FC00007E0
1FC00001C0
1FC0000000
1FC0000000
1FC0000000
1FC0000020
1FC00007F0
1FC0003FF0
1FC0003FF0
1FC0000FF0
1FC00007F0
1FC00007F0
1FC00007F0
1FC00007F0
1FC00007F0
1FC00007F0
1FC00007F0
1FC00007F0
1FC00F07F0
1FC00F07F0
1FC00F07F0
1FC01E07F0
3FE03E07F0
FFFFFE07F0
FFFFFE07F0
FFFFFE07F0
00000007E0
00000007E0
00000007E0
00000007C0
0000000FC0
0000000F80
0000001F00
0000003F00
0000003E00
0000003800
0000003000
ENDCHAR
STARTCHAR 01C9
ENCODING 457
SWIDTH 630 0
DWIDTH 28 0
BBX 25 43 1 -11
BITMAP
00800000
3FC00E00
FFC01F80
FFC03F80
3FC03F80
1FC03F80
1FC03F80
0FC00E00
0FC00000
0FC00000
0FC00000
0FC00100
0FC03F80
0FC0FF80
0FC0FF80
0FC07F80
0FC03F80
0FC01F80
0FC01F80
0FC01F80
0FC01F80
0FC01F80
0FC01F80
0FC01F80
0FC01F80
0FC01F80
1FC01F80
1FC01F80
1FC01F80
7FF81F80
FFF81F80
FFF81F80
00001F80
00001F00
00003F00
00003F00
00003E00
00007E00
00007C00
0000F800
0001F000
0001E000
00008000
ENDCHAR
STARTCHAR 01CA
ENCODING 458
SWIDTH 1080 0
DWIDTH 48 0
BBX 45 41 2 -11
BITMAP
FF801FF8FFF8
FF801FF8FFF8
FFC01FF0FFF0
3FE003C03FC0
1FF003C01FC0
1FF001C01FC0
1FF801C01FC0
1FFC01C01FC0
1FFE01C01FC0
1DFE01C01FC0
1CFF01C01FC0
1CFF81C01FC0
1C7FC1C01FC0
1C3FC1C01FC0
1C1FE1C01FC0
1C1FF1C01FC0
1C0FF9C01FC0
1C07F9C01FC0
1C03FDC01FC0
1C03FFC01FC0
1C01FFC01FC0
1C00FFC01FC0
1C007FC01FC0
1C007FC01FC0
1C003FC01F80
1C001FC01F80
3E000FC01F80
FF800FC01F80
FF8007C01F80
FFC003C01F80
000000001F80
000000001F80
000000003F00
000000003F00
000000003F00
000000007E00
00000000FC00
00000000F800
00000003F000
00000003C000
000000010000
ENDCHAR
STARTCHAR 01CB
ENCODING 459
SWIDTH 1035 0
DWIDTH 46 0
BBX 42 42 2 -11
BITMAP
000000000E00
FF801FF81F80
FF801FF83F80
FFC01FF03FC0
3FE003C03F80
1FF003C01F80
1FF001C00E00
1FF801C00000
1FFC01C00000
1FFE01C00000
1DFE01C00100
1CFF01C03F80
1CFF81C0FF80
1C7FC1C0FF80
1C3FC1C07F80
1C1FE1C01F80
1C1FF1C01F80
1C0FF9C01F80
1C07F9C01F80
1C03FDC01F80
1C03FFC01F80
1C01FFC01F80
1C00FFC01F80
1C007FC01F80
1C007FC01F80
1C003FC01F80
1C001FC01F80
3E000FC01F80
FF800FC01F80
FF8007C01F80
FFC003C01F80
000000001F80
000000001F80
000000001F00
000000003F00
000000003E00
000000007E00
000000007C00
00000000F800
00000001F000
00000001E000
000000008000
ENDCHAR
STARTCHAR 01CC
ENCODING 460
SWIDTH 967 0
DWIDTH 43 0
BBX 39 42 2 -11
BITMAP
0000000070
00000000FC
00000001FC
00000001FE
00000001FC
00000000FC
0000000070
0000000000
0000000000
0000000000
0101800008
3F8FF001FC
FF9FFC07FC
FFFFFC07FC
7FFBFE03FC
3F80FE00FC
1F80FE00FC
1F807E00FC
1F807E00FC
1F807E00FC
1F807E00FC
1F807E00FC
1F807E00FC
1F807E00FC
1F807E00FC
1F807E00FC
1F807E00FC
3FC0FF00FC
FFF3FFC0FC
FFF3FFC0FC
FFF3FFC0FC
00000000FC
00000000FC
00000000F8
00000001F8
00000001F0
00000003F0
00000003E0
00000007C0
0000000F80
0000000F00
0000000400
ENDCHAR
STARTCHAR 01CD
ENCODING 461
SWIDTH 697 0
DWIDTH 31 0
BBX 30 39 1 0
BITMAP
01E03800
03F8FC00
00FFF000
007FE000
003F8000
001F0000
000E0000
00000000
00000000
00070000
000F0000
000F8000
000F8000
001FC000
001FC000
003FE000
003FE000
0037F000
0077F000
0067F000
00E3F800
00E3F800
01C1FC00
01C1FC00
01C1FE00
0380FE00
0380FF00
07007F00
07FFFF00
07FFFF80
0FFFBF80
0E003FC0
1C001FC0
1C001FE0
3C000FE0
3C000FF0
FF003FFC
FF007FFC
FF007FFC
ENDCHAR
STARTCHAR 01CE
ENCODING 462
SWIDTH 540 0
DWIDTH 24 0
BBX 21 32 3 0
BITMAP
200200
700700
7C1F00
3E3E00
1FFC00
0FF800
07F000
07E000
03C000
000000
000000
00F800
03FE00
0FFF00
1CFF80
3C3F80
7C1FC0
FC1FC0
FC1FC0
301FC0
007FC0
01FFC0
07DFC0
3F1FC0
7C1F80
FC1F80
FC1FC0
FC1FC0
FE1FF8
FFFFF8
7FFFF8
3F8FE0
ENDCHAR
STARTCHAR 01CF
ENCODING 463
SWIDTH 360 0
DWIDTH 16 0
BBX 13 39 2 0
BITMAP
6030
F878
FCF8
7FF0
3FC0
1F80
0F00
0400
0000
FFF8
FFF8
FFF8
1FC0
1FC0
1FC0
1FC0
1FC0
1FC0
1FC0
1FC0
1FC0
1FC0
1FC0
1FC0
1FC0
1FC0
1FC0
1FC0
1FC0
1FC0
1FC0
1FC0
1FC0
1FC0
1FC0
1FC0
FFF8
FFF8
FFF8
ENDCHAR
STARTCHAR 01D0
ENCODING 464
SWIDTH 337 0
DWIDTH 15 0
BBX 13 32 1 0
BITMAP
2010
F038
F878
7CF0
3FE0
1FE0
1FC0
0F80
0700
0000
0000
0080
1FC0
7FC0
7FC0
3FC0
1FC0
0FC0
0FC0
0FC0
0FC0
0FC0
0FC0
0FC0
0FC0
0FC0
0FC0
0FC0
1FE0
7FF8
7FF8
7FF8
ENDCHAR
STARTCHAR 01D1
ENCODING 465
SWIDTH 742 0
DWIDTH 33 0
BBX 30 39 2 0
BITMAP
01E01800
01F87C00
00FFF800
007FE000
003FC000
001F0000
000C0000
00000000
00000000
007FF000
01FFFE00
07F1FF00
0FC03F80
1F801FC0
3F000FE0
3F000FF0
7E0007F0
7E0007F8
FE0003F8
FE0003F8
FE0003F8
FC0003FC
FC0001FC
FC0001FC
FE0001FC
FE0001FC
FE0001F8
FE0003F8
FE0003F8
FE0003F8
7F0003F0
7F0003F0
3F8007E0
3F800FE0
1FC00FC0
0FF01F80
07FEFF00
01FFFC00
007FF000
ENDCHAR
STARTCHAR 01D2
ENCODING 466
SWIDTH 562 0
DWIDTH 25 0
BBX 22 32 2 0
BITMAP
080080
1C01C0
1F07C0
0F8F80
07FF00
03FE00
01FC00
00F800
00F000
000000
000000
00FC00
07FF80
1FFFC0
3F0FE0
7E07F0
7E03F8
FC03F8
FC01F8
FC01FC
FC01FC
FC01FC
FC01FC
FC01FC
FC01FC
FE01F8
FE01F8
7F03F0
7F03F0
3FCFE0
1FFFC0
07FF00
ENDCHAR
STARTCHAR 01D3
ENCODING 467
SWIDTH 675 0
DWIDTH 30 0
BBX 28 39 1 0
BITMAP
00700E00
00FC3E00
007FFC00
001FF000
000FE000
0007C000
00020000
00000000
00000000
FFF81FF0
FFF81FF0
7FF81FF0
1FE007C0
1FC00380
1FC00380
1FC00380
1FC00380
1FC00380
1FC00380
1FC00380
1FC00380
1FC00380
1FC00380
1FC00380
1FC00380
1FC00380
1FC00380
1FC00380
1FC00380
1FC00380
1FC00380
0FC00380
0FE00380
0FE00700
0FF00700
07F81E00
03FFFE00
01FFFC00
007FF000
ENDCHAR
STARTCHAR 01D4
ENCODING 468
SWIDTH 607 0
DWIDTH 27 0
BBX 25 32 1 0
BITMAP
00002000
07007000
0F81F000
07E3E000
03FFC000
01FF8000
00FF0000
007E0000
003C0000
00000000
00000000
01000800
3F87FC00
FF87FC00
FF87FC00
7F81FC00
3F80FC00
3F80FC00
1F80FC00
1F80FC00
1F80FC00
1F80FC00
1F80FC00
1F80FC00
1F80FC00
1F80FC00
1F80FC00
1FC0FE00
1FE0FF80
1FFFFF80
0FFEFF80
07F8F000
ENDCHAR
STARTCHAR 01D5
ENCODING 469
SWIDTH 675 0
DWIDTH 30 0
BBX 28 44 1 0
BITMAP
00FFFF00
00FFFF00
00FFC000
00000000
00000000
00000000
00FC3F00
00FC3F00
00FC3F00
00FC3F00
00FC3F00
00780E00
00000000
00000000
FFF81FF0
FFF81FF0
7FF81FF0
1FE007C0
1FC00380
1FC00380
1FC00380
1FC00380
1FC00380
1FC00380
1FC00380
1FC00380
1FC00380
1FC00380
1FC00380
1FC00380
1FC00380
1FC00380
1FC00380
1FC00380
1FC00380
1FC00380
0FC00380
0FE00380
0FE00700
0FF00700
07F81E00
03FFFE00
01FFFC00
007FF000
ENDCHAR
STARTCHAR 01D6
ENCODING 470
SWIDTH 607 0
DWIDTH 27 0
BBX 25 34 1 0
BITMAP
0FFFF800
0FFFF000
00000000
00000000
00000000
0380E000
0FC3F000
0FE3F800
0FE3F800
0FC3F800
07C1F000
00000000
00000000
01000800
3F87FC00
FF87FC00
FF87FC00
7F81FC00
3F80FC00
3F80FC00
1F80FC00
1F80FC00
1F80FC00
1F80FC00
1F80FC00
1F80FC00
1F80FC00
1F80FC00
1F80FC00
1FC0FE00
1FE0FF80
1FFFFF80
0FFEFF80
07F8F000
ENDCHAR
STARTCHAR 01D7
ENCODING 471
SWIDTH 675 0
DWIDTH 30 0
BBX 28 47 1 0
BITMAP
0000FC00
0000F800
0001F000
0001E000
0001E000
0003C000
00018000
00000000
00000000
00FC3F00
00FC3F00
00FC3F00
00FC3F00
00FC3F00
00780E00
00000000
00000000
FFF81FF0
FFF81FF0
7FF81FF0
1FE007C0
1FC00380
1FC00380
1FC00380
1FC00380
1FC00380
1FC00380
1FC00380
1FC00380
1FC00380
1FC00380
1FC00380
1FC00380
1FC00380
1FC00380
1FC00380
1FC00380
1FC00380
1FC00380
0FC00380
0FE00380
0FE00700
0FF00700
07F81E00
03FFFE00
01FFFC00
007FF000
ENDCHAR
STARTCHAR 01D8
ENCODING 472
SWIDTH 607 0
DWIDTH 27 0
BBX 25 37 1 0
BITMAP
000FC000
000F8000
000F0000
001E0000
001E0000
003C0000
00000000
00000000
0380E000
0FC3F000
0FE3F800
0FE3F800
0FC3F800
07C1F000
00000000
00000000
01000800
3F87FC00
FF87FC00
FF87FC00
7F81FC00
3F80FC00
3F80FC00
1F80FC00
1F80FC00
1F80FC00
1F80FC00
1F80FC00
1F80FC00
1F80FC00
1F80FC00
1F80FC00
1FC0FE00
1FE0FF80
1FFFFF80
0FFEFF80
07F8F000
ENDCHAR
STARTCHAR 01D9
ENCODING 473
SWIDTH 675 0
DWIDTH 30 0
BBX 28 47 1 0
BITMAP
00700E00
00FC1E00
007FFC00
003FF800
000FE000
0007C000
00038000
00000000
00000000
00FC3F00
00FC3F00
00FC3F00
00FC3F00
00FC3F00
00780E00
00000000
00000000
FFF81FF0
FFF81FF0
7FF81FF0
1FE007C0
1FC00380
1FC00380
1FC00380
1FC00380
1FC00380
1FC00380
1FC00380
1FC00380
1FC00380
1FC00380
1FC00380
1FC00380
1FC00380
1FC00380
1FC00380
1FC00380
1FC00380
1FC00380
0FC00380
0FE00380
0FE00700
0FF00700
07F81E00
03FFFE00
01FFFC00
007FF000
ENDCHAR
STARTCHAR 01DA
ENCODING 474
SWIDTH 607 0
DWIDTH 27 0
BBX 25 37 1 0
BITMAP
0780E000
0FE3F000
03FFC000
01FF8000
00FE0000
007C0000
00200000
00000000
0380E000
0FC3F000
0FE3F800
0FE3F800
0FC3F800
07C1F000
00000000
00000000
01000800
3F87FC00
FF87FC00
FF87FC00
7F81FC00
3F80FC00
3F80FC00
1F80FC00
1F80FC00
1F80FC00
1F80FC00
1F80FC00
1F80FC00
1F80FC00
1F80FC00
1F80FC00
1FC0FE00
1FE0FF80
1FFFFF80
0FFEFF80
07F8F000
ENDCHAR
STARTCHAR 01DB
ENCODING 475
SWIDTH 675 0
DWIDTH 30 0
BBX 28 47 1 0
BITMAP
000F0000
001F0000
000F8000
00078000
0007C000
0003C000
00018000
00000000
00000000
00FC3F00
00FC3F00
00FC3F00
00FC3F00
00FC3F00
00780E00
00000000
00000000
FFF81FF0
FFF81FF0
7FF81FF0
1FE007C0
1FC00380
1FC00380
1FC00380
1FC00380
1FC00380
1FC00380
1FC00380
1FC00380
1FC00380
1FC00380
1FC00380
1FC00380
1FC00380
1FC00380
1FC00380
1FC00380
1FC00380
1FC00380
0FC00380
0FE00380
0FE00700
0FF00700
07F81E00
03FFFE00
01FFFC00
007FF000
ENDCHAR
STARTCHAR 01DC
ENCODING 476
SWIDTH 607 0
DWIDTH 27 0
BBX 25 37 1 0
BITMAP
01F00000
01F00000
00F80000
00780000
003C0000
001C0000
00000000
00000000
0380E000
0FC3F000
0FE3F800
0FE3F800
0FC3F800
07C1F000
00000000
00000000
01000800
3F87FC00
FF87FC00
FF87FC00
7F81FC00
3F80FC00
3F80FC00
1F80FC00
1F80FC00
1F80FC00
1F80FC00
1F80FC00
1F80FC00
1F80FC00
1F80FC00
1F80FC00
1FC0FE00
1FE0FF80
1FFFFF80
0FFEFF80
07F8F000
ENDCHAR
STARTCHAR 01DD
ENCODING 477
SWIDTH 495 0
DWIDTH 22 0
BBX 19 21 2 0
BITMAP
03E000
1FFC00
7FFF00
FFFF80
E03FC0
001FC0
000FE0
000FE0
000FE0
0007E0
FFFFE0
FFFFE0
FC07E0
FC07E0
FC0FE0
FC0FC0
FC0FC0
7E1F80
3F3F00
1FFE00
0FF800
ENDCHAR
STARTCHAR 01E4
ENCODING 484
SWIDTH 697 0
DWIDTH 31 0
BBX 29 30 2 0
BITMAP
007FFC00
01FFFF80
07FC7FC0
0FE00FC0
1FC00780
3F800780
3F000780
7F000380
7E000380
FE000000
FE000000
FE000000
FE000000
FE000000
FE000000
FE00FFF0
FE00FFF0
FE00FFF0
FE001FC0
FE000FC0
FE000FC0
7F03FFF8
7F03FFF8
3F83FFF8
3FC00FC0
1FC00FC0
0FF01FC0
07FEFFC0
01FFFF00
007FF800
ENDCHAR
STARTCHAR 01E5
ENCODING 485
SWIDTH 540 0
DWIDTH 24 0
BBX 26 32 -1 -11
BITMAP
007C0000
03FFFF00
07FFFF00
0FC3F300
0FC1F800
1F81F800
1F80FC00
1F80FC00
1F80FC00
1FC0FC00
0FC1F800
0FE1F800
07FFF000
03FFC000
07FE0000
0F800000
0F800000
0FFF0000
0FFFF800
0FFFFE00
0FFFFE00
07FFFF00
07FFFF00
1F00FF00
1F003F00
FFFFFFC0
FFFFFFC0
3F007C00
1F80F800
1FFFF000
0FFFC000
03FF0000
ENDCHAR
STARTCHAR 01E6
ENCODING 486
SWIDTH 697 0
DWIDTH 31 0
BBX 28 39 2 0
BITMAP
00E01C00
01F87C00
00FFF800
003FE000
001FC000
000F8000
00040000
00000000
00000000
007FFC00
01FFFF80
07FC7FC0
0FE00FC0
1FC00780
3F800780
3F000780
7F000380
7E000380
FE000000
FE000000
FE000000
FE000000
FE000000
FE000000
FE00FFF0
FE00FFF0
FE00FFF0
FE001FC0
FE000FC0
FE000FC0
7F000FC0
7F000FC0
3F800FC0
3FC00FC0
1FC00FC0
0FF01FC0
07FEFFC0
01FFFF00
007FF800
ENDCHAR
STARTCHAR 01E7
ENCODING 487
SWIDTH 540 0
DWIDTH 24 0
BBX 22 43 1 -11
BITMAP
000080
1C01C0
3E07C0
1F8F80
0FFF00
07FE00
03FC00
01F800
00F000
000000
000000
01F000
0FFFFC
1FFFFC
3F0FCC
3F07E0
7E07E0
7E03F0
7E03F0
7E03F0
7F03F0
3F07E0
3F87E0
1FFFC0
0FFF00
1FF800
3E0000
3E0000
3FFC00
3FFFE0
3FFFF8
3FFFF8
1FFFFC
1FFFFC
7C07FC
7C00FC
F800F8
FC00F8
FC01F0
7E03E0
7FFFC0
3FFF00
0FF800
ENDCHAR
STARTCHAR 01E8
ENCODING 488
SWIDTH 720 0
DWIDTH 32 0
BBX 29 39 2 0
BITMAP
01E01800
01F87C00
00FFF800
007FE000
003FC000
000F0000
00040000
00000000
00000000
FFF87FF0
FFF87FF0
FFF87FE0
1FC01F00
1FC01E00
1FC03C00
1FC07800
1FC0F000
1FC1E000
1FC3C000
1FC78000
1FCF0000
1FDE0000
1FFF0000
1FFF8000
1FFFC000
1FFFE000
1FDFE000
1FCFF000
1FC7F800
1FC7FC00
1FC3FC00
1FC1FE00
1FC0FF00
1FC0FF00
1FC07F80
1FC03FE0
FFF83FF8
FFF81FF8
FFF81FF8
ENDCHAR
STARTCHAR 01E9
ENCODING 489
SWIDTH 585 0
DWIDTH 26 0
BBX 26 39 1 0
BITMAP
03807000
07E1F000
03FFE000
01FF8000
007F0000
003E0000
00100000
00800000
3FC00000
FFC00000
FFC00000
3FC00000
1FC00000
1FC00000
0FC00000
0FC00000
0FC00000
0FC00000
0FC00000
0FC1FF80
0FC1FF80
0FC0FE00
0FC0F800
0FC1E000
0FC3C000
0FC78000
0FCF0000
0FDF8000
0FFFC000
0FDFC000
0FCFE000
0FC7F000
0FC3F800
1FC3FC00
1FC1FE00
1FC0FF00
7FF07FC0
FFF07FC0
FFF03FC0
ENDCHAR
STARTCHAR 01EA
ENCODING 490
SWIDTH 742 0
DWIDTH 33 0
BBX 30 41 2 -11
BITMAP
007FF000
01FFFE00
07F1FF00
0FC03F80
1F801FC0
3F000FE0
3F000FF0
7E0007F0
7E0007F8
FE0003F8
FE0003F8
FE0003F8
FC0003FC
FC0001FC
FC0001FC
FE0001FC
FE0001FC
FE0001F8
FE0003F8
FE0003F8
FE0003F8
7F0003F0
7F0003F0
3F8007E0
3F800FE0
1FC00FC0
0FF01F80
07FEFF00
01FFFC00
007FF000
0001E000
0003C000
0007C000
00078000
000F8000
000FC000
000FF400
000FFE00
000FFE00
0007F800
0003E000
ENDCHAR
STARTCHAR 01EB
ENCODING 491
SWIDTH 562 0
DWIDTH 25 0
BBX 22 32 2 -11
BITMAP
00FC00
07FF80
1FFFC0
3F0FE0
7E07F0
7E03F8
FC03F8
FC01F8
FC01FC
FC01FC
FC01FC
FC01FC
FC01FC
FC01FC
FE01F8
FE01F8
7F03F0
7F03F0
3FCFE0
1FFFC0
07FF00
007800
01E000
03C000
07C000
0FC000
0FC000
0FFC00
0FFE00
07FE00
07F800
01E000
ENDCHAR
STARTCHAR 01EE
ENCODING 494
SWIDTH 607 0
DWIDTH 27 0
BBX 23 39 2 0
BITMAP
0E01C0
1F87C0
0FFF80
03FF00
01FC00
00F800
004000
000000
000000
7FFFFC
7FFFFC
7FFFFC
7C03F8
7807F8
780FF0
780FE0
F01FE0
303FC0
003F80
007F80
00FF00
01FE00
01FE00
01FFE0
01FFF0
000FFC
0003FC
0001FE
0000FE
0000FE
F000FE
F000FE
7000FE
7800FE
7801FC
7C03F8
7FFFF0
7FFFE0
1FFF80
ENDCHAR
STARTCHAR 01EF
ENCODING 495
SWIDTH 495 0
DWIDTH 22 0
BBX 19 43 2 -11
BITMAP
100100
380380
3E0F80
1F1F00
0FFE00
07FC00
03F800
01F000
01E000
000000
000000
000000
7FFFC0
7FFFE0
7E1FC0
781FC0
783F80
F07F80
707F00
00FE00
00FE00
01FC00
03F800
03F800
07F000
0FFC00
0FFF00
07FF80
003FC0
000FE0
000FE0
0007E0
0007E0
0007E0
0007E0
7007E0
F007E0
F00FC0
F81FC0
FC3F80
FFFF00
FFFC00
1FF000
ENDCHAR
STARTCHAR 01F1
ENCODING 497
SWIDTH 1327 0
DWIDTH 59 0
BBX 56 30 2 0
BITMAP
FFFFE0003FFFFE
FFFFFC003FFFFE
FFF3FF003FFFFE
1FC07F803E03FC
1FC03FC03C03FC
1FC00FE03C07F8
1FC00FF03C07F8
1FC007F0380FF0
1FC007F0180FF0
1FC003F8001FE0
1FC003F8001FE0
1FC003F8003FC0
1FC003F8007F80
1FC003F8007F80
1FC003F800FF00
1FC003F800FF00
1FC003F801FE00
1FC003F801FE00
1FC003F803FC00
1FC003F007F800
1FC003F007F800
1FC007F00FF000
1FC007E00FF00F
1FC00FE01FE01E
1FC00FC01FC01E
1FC01F803FC03E
3FE07F007F807E
FFFFFE007FFFFE
FFFFF8007FFFFE
FFFF80007FFFFE
ENDCHAR
STARTCHAR 01F2
ENCODING 498
SWIDTH 1237 0
DWIDTH 55 0
BBX 52 30 2 0
BITMAP
FFFFE000000000
FFFFFC00000000
FFF3FF00000000
1FC07F80000000
1FC03FC0000000
1FC00FE0000000
1FC00FF0000000
1FC007F0000000
1FC007F0000000
1FC003F8000000
1FC003F87FFFE0
1FC003F87FFFE0
1FC003F87E1FE0
1FC003F87C1FC0
1FC003F8783F80
1FC003F8787F80
1FC003F8787F00
1FC003F800FE00
1FC003F801FE00
1FC003F003FC00
1FC003F003F800
1FC007F007F800
1FC007E00FF0E0
1FC00FE00FE0F0
1FC00FC01FE0F0
1FC01F803FC0F0
3FE07F007F81F0
FFFFFE007FFFF0
FFFFF8007FFFF0
FFFF80007FFFF0
ENDCHAR
STARTCHAR 01F3
ENCODING 499
SWIDTH 1102 0
DWIDTH 49 0
BBX 46 32 2 0
BITMAP
000018000000
0007F8000000
000FF8000000
000FF8000000
0007F8000000
0001F8000000
0001F8000000
0001F8000000
0001F8000000
0001F8000000
0001F8000000
007DF8000000
03FFF80FFFF8
0FFFF80FFFFC
1F83F80F83F8
3F01F80F07F0
7E01F80E0FF0
7E01F81E0FE0
FC01F80E1FC0
FC01F8003FC0
FC01F8003F80
FC01F8007F00
FC01F800FF00
FC01F801FE00
FE01F801FC18
FE01F803FC3C
FE01F807F83C
FF01FC07F03C
7F81FF0FE07C
7FFFFF1FFFFC
3FFDFF1FFFFC
0FF1E00FFFFC
ENDCHAR
STARTCHAR 01FA
ENCODING 506
SWIDTH 697 0
DWIDTH 31 0
BBX 30 48 1 0
BITMAP
0003F000
0003E000
0007C000
00078000
000F0000
000F0000
00000000
00000000
00000000
001FC000
0039E000
0078E000
0078E000
0078E000
003FC000
001F8000
00000000
00000000
00070000
000F0000
000F8000
000F8000
001FC000
001FC000
003FE000
003FE000
0037F000
0077F000
0067F000
00E3F800
00E3F800
01C1FC00
01C1FC00
01C1FE00
0380FE00
0380FF00
07007F00
07FFFF00
07FFFF80
0FFFBF80
0E003FC0
1C001FC0
1C001FE0
3C000FE0
3C000FF0
FF003FFC
FF007FFC
FF007FFC
ENDCHAR
STARTCHAR 01FB
ENCODING 507
SWIDTH 540 0
DWIDTH 24 0
BBX 21 39 3 0
BITMAP
007C00
00FC00
00F800
01F000
01E000
03C000
008000
000000
000000
01E000
07F000
0E3800
1E3800
1E3800
0E3800
0FF000
03C000
000000
00F800
03FE00
0FFF00
1CFF80
3C3F80
7C1FC0
FC1FC0
FC1FC0
301FC0
007FC0
01FFC0
07DFC0
3F1FC0
7C1F80
FC1F80
FC1FC0
FC1FC0
FE1FF8
FFFFF8
7FFFF8
3F8FE0
ENDCHAR
STARTCHAR 01FC
ENCODING 508
SWIDTH 945 0
DWIDTH 42 0
BBX 40 39 1 0
BITMAP
000001F800
000001F000
000003E000
000003C000
0000078000
0000070000
0000000000
0000000000
0000000000
0007FFFFFC
0007FFFFFC
0007FFFFFC
0001EFC07C
0001FFC03C
0001DFC01C
0003DFC01E
00039FC01C
00079FC000
00071FC000
000E1FC000
000E1FC1C0
001C1FC1C0
003C1FC1C0
00381FCFC0
007FFFFFC0
007FFFFFC0
00F01FC3C0
01E01FC1C0
01C01FC1C0
03C01FC1C0
03801FC000
07001FC007
07001FC00F
0F001FC00F
1E001FC01F
3F001FE03E
FF807FFFFE
FFC0FFFFFE
FFC0FFFFFE
ENDCHAR
STARTCHAR 01FD
ENCODING 509
SWIDTH 720 0
DWIDTH 32 0
BBX 29 32 2 0
BITMAP
0000F800
0001F000
0001F000
0003E000
0003C000
00038000
00078000
00070000
00000000
00000000
00000000
01E01E00
3FF8FF80
7FFDFFC0
7C3FE3E0
7C3FC3F0
781FC1F0
781F81F0
381F81F8
001F81F8
01FFFFF8
0FFFFFF0
3FFFC000
7E1F8000
FC1F8000
F81FC000
F83FC000
F83FE010
FC77F070
FFF3FFF0
7FE1FFE0
3F80FF80
ENDCHAR
STARTCHAR 01FE
ENCODING 510
SWIDTH 742 0
DWIDTH 33 0
BBX 30 40 2 -1
BITMAP
0001F000
0003E000
0003E000
0007C000
00078000
000F0000
00000000
00000000
00000070
007FF0F0
01FFFFF0
07F1FFE0
0FC03FC0
1F801FC0
3F000FE0
3F001FF0
7E003FF0
7E003FF8
FE007BF8
FE00F3F8
FE01E3F8
FC01E3FC
FC03C1FC
FC0781FC
FE0F01FC
FE0F01FC
FE1E01F8
FE3C03F8
FE7803F8
FEF803F8
7FF003F0
7FE003F0
3FC007E0
3F800FE0
1FC00FC0
0FF01F80
1FFEFF00
3DFFFC00
787FF000
70000000
ENDCHAR
STARTCHAR 01FF
ENCODING 511
SWIDTH 562 0
DWIDTH 25 0
BBX 23 33 1 -1
BITMAP
0007C0
000F80
000F80
001F00
001E00
001C00
003C00
003800
000000
000000
00000C
007E1E
03FFFC
0FFFF8
1F87F0
3F03F8
3F03FC
7E07FC
7E0FFC
7E1FFE
7E1EFE
7E3CFE
7E78FE
7EF0FE
7FE0FE
7FC0FC
7FC0FC
3F81F8
3F81F8
1FE7F0
3FFFE0
7BFF80
F00000
ENDCHAR
STARTCHAR 0200
ENCODING 512
SWIDTH 697 0
DWIDTH 31 0
BBX 30 38 1 0
BITMAP
07C7C000
07E3C000
03E3E000
01F1E000
00F0F000
00787000
00000000
00000000
00070000
000F0000
000F8000
000F8000
001FC000
001FC000
003FE000
003FE000
0037F000
0077F000
0067F000
00E3F800
00E3F800
01C1FC00
01C1FC00
01C1FE00
0380FE00
0380FF00
07007F00
07FFFF00
07FFFF80
0FFFBF80
0E003FC0
1C001FC0
1C001FE0
3C000FE0
3C000FF0
FF003FFC
FF007FFC
FF007FFC
ENDCHAR
STARTCHAR 0201
ENCODING 513
SWIDTH 540 0
DWIDTH 24 0
BBX 22 32 2 0
BITMAP
3C3C00
FC7C00
7C7C00
3E3E00
1E1E00
0F0F00
0F0F00
078780
000000
000000
000000
007C00
01FF00
07FF80
0E7FC0
1E1FC0
3E0FE0
7E0FE0
7E0FE0
180FE0
003FE0
00FFE0
03EFE0
1F8FE0
3E0FC0
7E0FC0
7E0FE0
7E0FE0
7F0FFC
7FFFFC
3FFFFC
1FC7F0
ENDCHAR
STARTCHAR 0202
ENCODING 514
SWIDTH 697 0
DWIDTH 31 0
BBX 30 39 1 0
BITMAP
001F8000
007FF000
00FFF800
00FFF800
01E07800
01C03C00
01C03800
00000000
00000000
00070000
000F0000
000F8000
000F8000
001FC000
001FC000
003FE000
003FE000
0037F000
0077F000
0067F000
00E3F800
00E3F800
01C1FC00
01C1FC00
01C1FE00
0380FE00
0380FF00
07007F00
07FFFF00
07FFFF80
0FFFBF80
0E003FC0
1C001FC0
1C001FE0
3C000FE0
3C000FF0
FF003FFC
FF007FFC
FF007FFC
ENDCHAR
STARTCHAR 0203
ENCODING 515
SWIDTH 540 0
DWIDTH 24 0
BBX 21 32 3 0
BITMAP
008000
0FF800
3FFE00
7FFF00
7FFF00
F81F00
F00F80
E00780
E00700
000000
000000
00F800
03FE00
0FFF00
1CFF80
3C3F80
7C1FC0
FC1FC0
FC1FC0
301FC0
007FC0
01FFC0
07DFC0
3F1FC0
7C1F80
FC1F80
FC1FC0
FC1FC0
FE1FF8
FFFFF8
7FFFF8
3F8FE0
ENDCHAR
STARTCHAR 0204
ENCODING 516
SWIDTH 607 0
DWIDTH 27 0
BBX 24 38 2 0
BITMAP
3E3E00
1F1E00
1F0F00
0F8F00
078780
03C3C0
000000
000000
FFFFFC
FFFFFC
FFFFFC
1FC07C
1FC03C
1FC01E
1FC01E
1FC01C
1FC000
1FC000
1FC1C0
1FC1C0
1FC1C0
1FC7C0
1FFFC0
1FFFC0
1FC7C0
1FC1C0
1FC1C0
1FC1C0
1FC000
1FC000
1FC007
1FC00F
1FC00F
1FC01F
3FE03F
FFFFFE
FFFFFE
FFFFFE
ENDCHAR
STARTCHAR 0205
ENCODING 517
SWIDTH 495 0
DWIDTH 22 0
BBX 19 32 2 0
BITMAP
3C3C00
7C7C00
3E3E00
1E1E00
1F1F00
0F0F00
070780
078780
000000
000000
000000
01F000
07FE00
1FFF00
3F1F80
7E0FC0
7E07C0
FC07E0
FC07E0
FC07E0
FFFFE0
FFFFE0
FFFFC0
FC0000
FC0000
FE0000
FE0000
7F0040
7F81E0
3FFFE0
1FFF80
07FE00
ENDCHAR
STARTCHAR 0206
ENCODING 518
SWIDTH 607 0
DWIDTH 27 0
BBX 24 39 2 0
BITMAP
00FC00
03FF80
07FFC0
07FFC0
0F03E0
0E01E0
0E01C0
000000
000000
FFFFFC
FFFFFC
FFFFFC
1FC07C
1FC03C
1FC01E
1FC01E
1FC01C
1FC000
1FC000
1FC1C0
1FC1C0
1FC1C0
1FC7C0
1FFFC0
1FFFC0
1FC7C0
1FC1C0
1FC1C0
1FC1C0
1FC000
1FC000
1FC007
1FC00F
1FC00F
1FC01F
3FE03F
FFFFFE
FFFFFE
FFFFFE
ENDCHAR
STARTCHAR 0207
ENCODING 519
SWIDTH 495 0
DWIDTH 22 0
BBX 19 32 2 0
BITMAP
006000
07FE00
0FFF00
1FFF80
3FFF80
3C07C0
3803C0
7003C0
3001C0
000000
000000
01F000
07FE00
1FFF00
3F1F80
7E0FC0
7E07C0
FC07E0
FC07E0
FC07E0
FFFFE0
FFFFE0
FFFFC0
FC0000
FC0000
FE0000
FE0000
7F0040
7F81E0
3FFFE0
1FFF80
07FE00
ENDCHAR
STARTCHAR 0208
ENCODING 520
SWIDTH 360 0
DWIDTH 16 0
BBX 15 38 0 0
BITMAP
F9F0
F8F8
7C78
3C3C
1E3C
0E1E
0000
0000
3FFE
3FFE
3FFE
07F0
07F0
07F0
07F0
07F0
07F0
07F0
07F0
07F0
07F0
07F0
07F0
07F0
07F0
07F0
07F0
07F0
07F0
07F0
07F0
07F0
07F0
07F0
07F0
3FFE
3FFE
3FFE
ENDCHAR
STARTCHAR 0209
ENCODING 521
SWIDTH 337 0
DWIDTH 15 0
BBX 15 32 -1 0
BITMAP
78F0
F9F0
78F8
7878
3C78
1C3C
1E3C
0E1C
0000
0000
0000
0020
07F0
1FF0
1FF0
0FF0
07F0
03F0
03F0
03F0
03F0
03F0
03F0
03F0
03F0
03F0
03F0
03F0
07F8
1FFE
1FFE
1FFE
ENDCHAR
STARTCHAR 020A
ENCODING 522
SWIDTH 360 0
DWIDTH 16 0
BBX 13 39 2 0
BITMAP
0F00
3FE0
7FF0
FFF8
F0F8
E038
C038
0000
0000
FFF8
FFF8
FFF8
1FC0
1FC0
1FC0
1FC0
1FC0
1FC0
1FC0
1FC0
1FC0
1FC0
1FC0
1FC0
1FC0
1FC0
1FC0
1FC0
1FC0
1FC0
1FC0
1FC0
1FC0
1FC0
1FC0
1FC0
FFF8
FFF8
FFF8
ENDCHAR
STARTCHAR 020B
ENCODING 523
SWIDTH 337 0
DWIDTH 15 0
BBX 15 32 0 0
BITMAP
0180
1FF0
3FF8
7FFC
7FFC
783E
F01E
E01E
E01C
0000
0000
0040
0FE0
3FE0
3FE0
1FE0
0FE0
07E0
07E0
07E0
07E0
07E0
07E0
07E0
07E0
07E0
07E0
07E0
0FF0
3FFC
3FFC
3FFC
ENDCHAR
STARTCHAR 020C
ENCODING 524
SWIDTH 742 0
DWIDTH 33 0
BBX 30 38 2 0
BITMAP
07C7C000
03E3E000
01E1E000
00F0F000
00F0F000
00787800
00000000
00000000
007FF000
01FFFE00
07F1FF00
0FC03F80
1F801FC0
3F000FE0
3F000FF0
7E0007F0
7E0007F8
FE0003F8
FE0003F8
FE0003F8
FC0003FC
FC0001FC
FC0001FC
FE0001FC
FE0001FC
FE0001F8
FE0003F8
FE0003F8
FE0003F8
7F0003F0
7F0003F0
3F8007E0
3F800FE0
1FC00FC0
0FF01F80
07FEFF00
01FFFC00
007FF000
ENDCHAR
STARTCHAR 020D
ENCODING 525
SWIDTH 562 0
DWIDTH 25 0
BBX 22 32 2 0
BITMAP
1E1E00
7E3E00
3E1F00
1F1F00
0F0F00
078780
078780
03C3C0
000000
000000
000000
00FC00
07FF80
1FFFC0
3F0FE0
7E07F0
7E03F8
FC03F8
FC01F8
FC01FC
FC01FC
FC01FC
FC01FC
FC01FC
FC01FC
FE01F8
FE01F8
7F03F0
7F03F0
3FCFE0
1FFFC0
07FF00
ENDCHAR
STARTCHAR 020E
ENCODING 526
SWIDTH 742 0
DWIDTH 33 0
BBX 30 39 2 0
BITMAP
000FC000
007FF000
00FFF800
00FFF800
01F07C00
01E03C00
01C01800
00000000
00000000
007FF000
01FFFE00
07F1FF00
0FC03F80
1F801FC0
3F000FE0
3F000FF0
7E0007F0
7E0007F8
FE0003F8
FE0003F8
FE0003F8
FC0003FC
FC0001FC
FC0001FC
FE0001FC
FE0001FC
FE0001F8
FE0003F8
FE0003F8
FE0003F8
7F0003F0
7F0003F0
3F8007E0
3F800FE0
1FC00FC0
0FF01F80
07FEFF00
01FFFC00
007FF000
ENDCHAR
STARTCHAR 020F
ENCODING 527
SWIDTH 562 0
DWIDTH 25 0
BBX 22 32 2 0
BITMAP
007000
03FE00
0FFF80
1FFFC0
1FFFC0
1E07C0
3C01E0
3801E0
3801C0
000000
000000
00FC00
07FF80
1FFFC0
3F0FE0
7E07F0
7E03F8
FC03F8
FC01F8
FC01FC
FC01FC
FC01FC
FC01FC
FC01FC
FC01FC
FE01F8
FE01F8
7F03F0
7F03F0
3FCFE0
1FFFC0
07FF00
ENDCHAR
STARTCHAR 0210
ENCODING 528
SWIDTH 697 0
DWIDTH 31 0
BBX 28 38 2 0
BITMAP
1F1F0000
0F8F0000
078F8000
07C78000
03C3C000
01E1E000
00000000
00000000
FFFFF000
FFFFFC00
FFFFFE00
1FC0FF00
1FC07F80
1FC03F80
1FC03F80
1FC03F80
1FC03F80
1FC03F80
1FC03F80
1FC03F00
1FC07F00
1FC0FE00
1FC7FC00
1FFFF800
1FFFC000
1FCFF000
1FC7F800
1FC3F800
1FC1FC00
1FC1FE00
1FC0FE00
1FC0FF00
1FC07F00
1FC07F80
1FC03FC0
FFF03FF0
FFF81FF0
FFF81FF0
ENDCHAR
STARTCHAR 0211
ENCODING 529
SWIDTH 472 0
DWIDTH 21 0
BBX 18 32 2 0
BITMAP
7C3C00
FCFC00
7C7C00
3E3E00
1E1E00
1E0E00
0F0F00
070700
000000
000000
000000
010000
3F8FC0
FF9FC0
FFBFC0
7F7FC0
3F7FC0
1FC3C0
1F83C0
1F8300
1F8000
1F8000
1F8000
1F8000
1F8000
1F8000
1F8000
1FC000
3FC000
FFFC00
FFFC00
FFFC00
ENDCHAR
STARTCHAR 0212
ENCODING 530
SWIDTH 697 0
DWIDTH 31 0
BBX 28 39 2 0
BITMAP
007E0000
01FFC000
03FFE000
03FFE000
0781F000
0700F000
0700E000
00000000
00000000
FFFFF000
FFFFFC00
FFFFFE00
1FC0FF00
1FC07F80
1FC03F80
1FC03F80
1FC03F80
1FC03F80
1FC03F80
1FC03F80
1FC03F00
1FC07F00
1FC0FE00
1FC7FC00
1FFFF800
1FFFC000
1FCFF000
1FC7F800
1FC3F800
1FC1FC00
1FC1FE00
1FC0FE00
1FC0FF00
1FC07F00
1FC07F80
1FC03FC0
FFF03FF0
FFF81FF0
FFF81FF0
ENDCHAR
STARTCHAR 0213
ENCODING 531
SWIDTH 472 0
DWIDTH 21 0
BBX 18 32 2 0
BITMAP
004000
0FFC00
1FFF00
3FFF00
3FFF80
7C0F80
700780
7003C0
700380
000000
000000
010000
3F8FC0
FF9FC0
FFBFC0
7F7FC0
3F7FC0
1FC3C0
1F83C0
1F8300
1F8000
1F8000
1F8000
1F8000
1F8000
1F8000
1F8000
1FC000
3FC000
FFFC00
FFFC00
FFFC00
ENDCHAR
STARTCHAR 0214
ENCODING 532
SWIDTH 675 0
DWIDTH 30 0
BBX 28 38 1 0
BITMAP
03F3F000
01F1F000
00F8F800
00787800
003C3C00
001C1C00
00000000
00000000
FFF81FF0
FFF81FF0
7FF81FF0
1FE007C0
1FC00380
1FC00380
1FC00380
1FC00380
1FC00380
1FC00380
1FC00380
1FC00380
1FC00380
1FC00380
1FC00380
1FC00380
1FC00380
1FC00380
1FC00380
1FC00380
1FC00380
1FC00380
0FC00380
0FE00380
0FE00700
0FF00700
07F81E00
03FFFE00
01FFFC00
007FF000
ENDCHAR
STARTCHAR 0215
ENCODING 533
SWIDTH 607 0
DWIDTH 27 0
BBX 25 32 1 0
BITMAP
0F878000
1F9F8000
0F8F8000
07C7C000
03C3C000
03C1C000
01E1E000
00E0E000
00000000
00000000
00000000
01000800
3F87FC00
FF87FC00
FF87FC00
7F81FC00
3F80FC00
3F80FC00
1F80FC00
1F80FC00
1F80FC00
1F80FC00
1F80FC00
1F80FC00
1F80FC00
1F80FC00
1F80FC00
1FC0FE00
1FE0FF80
1FFFFF80
0FFEFF80
07F8F000
ENDCHAR
STARTCHAR 0216
ENCODING 534
SWIDTH 675 0
DWIDTH 30 0
BBX 28 39 1 0
BITMAP
0007E000
001FF800
003FFC00
007FFE00
00783E00
00700E00
00700C00
00000000
00000000
FFF81FF0
FFF81FF0
7FF81FF0
1FE007C0
1FC00380
1FC00380
1FC00380
1FC00380
1FC00380
1FC00380
1FC00380
1FC00380
1FC00380
1FC00380
1FC00380
1FC00380
1FC00380
1FC00380
1FC00380
1FC00380
1FC00380
1FC00380
0FC00380
0FE00380
0FE00700
0FF00700
07F81E00
03FFFE00
01FFFC00
007FF000
ENDCHAR
STARTCHAR 0217
ENCODING 535
SWIDTH 607 0
DWIDTH 27 0
BBX 25 32 1 0
BITMAP
00080000
01FF8000
03FFE000
07FFE000
07FFF000
0F81F000
0E00F000
0E007800
0E007000
00000000
00000000
01000800
3F87FC00
FF87FC00
FF87FC00
7F81FC00
3F80FC00
3F80FC00
1F80FC00
1F80FC00
1F80FC00
1F80FC00
1F80FC00
1F80FC00
1F80FC00
1F80FC00
1F80FC00
1FC0FE00
1FE0FF80
1FFFFF80
0FFEFF80
07F8F000
ENDCHAR
STARTCHAR 0218
ENCODING 536
SWIDTH 540 0
DWIDTH 24 0
BBX 21 43 2 -13
BITMAP
07FF80
0FFFE0
1F9FE0
3E07E0
7C03E0
7C01E0
7C01E0
7E01E0
7E0100
7F0000
7FC000
7FF000
3FFC00
3FFF00
1FFFC0
0FFFE0
03FFF0
00FFF0
003FF8
000FF8
1807F8
7803F8
7801F8
7801F8
F801F8
FC01F0
FE03F0
FFFFE0
7FFFC0
0FFF00
000000
000000
001800
01FC00
01FC00
01FC00
01FC00
007C00
007800
007800
007000
00E000
01C000
ENDCHAR
STARTCHAR 0219
ENCODING 537
SWIDTH 450 0
DWIDTH 20 0
BBX 17 34 2 -13
BITMAP
03E000
1FFE00
7FFE00
FC3E00
FC1E00
FC0E00
FC0E00
FF0000
FFC000
7FF800
3FFC00
1FFF00
07FF00
00FF80
E03F80
F03F80
F01F80
F83F00
FEFF00
FFFE00
7FF800
000000
000000
00E000
07E000
07F000
0FF000
0FE000
03E000
01E000
03C000
03C000
078000
070000
ENDCHAR
STARTCHAR 021A
ENCODING 538
SWIDTH 652 0
DWIDTH 29 0
BBX 27 43 1 -13
BITMAP
7FFFFFC0
7FFFFFC0
7FFFFFC0
7C3F87C0
783F83E0
F03F81E0
F03F81E0
F03F81E0
003F8000
003F8000
003F8000
003F8000
003F8000
003F8000
003F8000
003F8000
003F8000
003F8000
003F8000
003F8000
003F8000
003F8000
003F8000
003F8000
003F8000
003F8000
007FC000
03FFF800
03FFF800
03FFF800
00000000
00000000
00070000
003F8000
003F8000
003F8000
003F8000
000F8000
000F0000
000F0000
001E0000
003C0000
00380000
ENDCHAR
STARTCHAR 021B
ENCODING 539
SWIDTH 360 0
DWIDTH 16 0
BBX 15 40 1 -12
BITMAP
0380
1F80
1F80
1F80
1F80
1F80
1F80
FFFE
FFFC
FFFC
1F80
1F80
1F80
1F80
1F80
1F80
1F80
1F80
1F80
1F80
1F80
1F80
1F80
1FC0
0FFE
0FFE
07F8
0000
0000
0060
07F0
07F0
07F0
07F0
01F0
01E0
01E0
01C0
0380
0700
ENDCHAR
STARTCHAR 021C
ENCODING 540
SWIDTH 562 0
DWIDTH 25 0
BBX 22 38 2 -8
BITMAP
1FFE00
7FFFC0
7E3FE0
7C0FE0
7807F0
7807F0
7007F0
F007F0
0007F0
0007F0
0007F0
0007E0
000FC0
001F80
003F00
00FC00
07FC00
0FFF80
0FFFE0
000FF0
0007F8
0003F8
0003F8
0001FC
0001FC
0001FC
0001FC
0001FC
0003F8
0003F8
0003F8
0007F0
000FE0
401FC0
F8FF80
FFFF00
3FFC00
038000
ENDCHAR
STARTCHAR 021D
ENCODING 541
SWIDTH 495 0
DWIDTH 22 0
BBX 19 32 2 -11
BITMAP
03E000
3FFE00
FFFF00
FC3F80
F81FC0
F00FC0
F00FC0
F00FC0
F00FC0
001FC0
001F80
003F00
007E00
01FC00
07E000
0FFE00
0FFF80
007FC0
001FC0
001FE0
000FE0
000FE0
000FE0
000FE0
000FE0
000FC0
001FC0
001F80
C07F80
FFFF00
7FFC00
1FF000
ENDCHAR
STARTCHAR 021E
ENCODING 542
SWIDTH 765 0
DWIDTH 34 0
BBX 31 39 2 0
BITMAP
00F01C00
01FC7E00
007FF800
003FF000
001FC000
000F8000
00070000
00000000
00000000
FFF83FFE
FFF83FFE
FFF83FFC
1FC00FF0
1FC007F0
1FC007E0
1FC007E0
1FC007E0
1FC007E0
1FC007E0
1FC007E0
1FC007E0
1FC007E0
1FFFFFE0
1FFFFFE0
1FFFFFE0
1FC007E0
1FC007E0
1FC007E0
1FC007E0
1FC007E0
1FC007E0
1FC007E0
1FC007E0
1FC007E0
1FC007F0
1FC00FF0
FFF83FFC
FFF83FFE
FFF83FFE
ENDCHAR
STARTCHAR 021F
ENCODING 543
SWIDTH 630 0
DWIDTH 28 0
BBX 27 39 1 0
BITMAP
0780E000
07E3F000
03FFC000
01FF8000
00FF0000
007C0000
00300000
00800000
3FC00000
FFC00000
FFC00000
3FC00000
1FC00000
1FC00000
0FC00000
0FC00000
0FC00000
0FC00000
0FC00000
0FC7F800
0FDFFC00
0FFFFE00
0FFFFE00
0FC07F00
0FC07F00
0FC07F00
0FC03F00
0FC03F00
0FC03F00
0FC03F00
0FC03F00
0FC03F00
0FC03F00
1FC03F00
1FC07F00
1FC07F00
7FF1FFC0
FFF9FFC0
FFF9FFE0
ENDCHAR
STARTCHAR 0228
ENCODING 552
SWIDTH 607 0
DWIDTH 27 0
BBX 24 41 2 -11
BITMAP
FFFFFC
FFFFFC
FFFFFC
1FC07C
1FC03C
1FC01E
1FC01E
1FC01C
1FC000
1FC000
1FC1C0
1FC1C0
1FC1C0
1FC7C0
1FFFC0
1FFFC0
1FC7C0
1FC1C0
1FC1C0
1FC1C0
1FC000
1FC000
1FC007
1FC00F
1FC00F
1FC01F
3FE03F
FFFFFE
FFFFFE
FFFFFE
001800
003800
007C00
007E00
007F00
000F00
000F00
000F00
001E00
007C00
007000
ENDCHAR
STARTCHAR 0229
ENCODING 553
SWIDTH 495 0
DWIDTH 22 0
BBX 19 32 2 -11
BITMAP
01F000
07FE00
1FFF00
3F1F80
7E0FC0
7E07C0
FC07E0
FC07E0
FC07E0
FFFFE0
FFFFE0
FFFFC0
FC0000
FC0000
FE0000
FE0000
7F0040
7F81E0
3FFFE0
1FFF80
07FE00
006000
00E000
01F000
01F800
00FC00
003C00
003C00
003C00
007800
01F000
01C000
ENDCHAR
STARTCHAR 022A
ENCODING 554
SWIDTH 742 0
DWIDTH 33 0
BBX 30 44 2 0
BITMAP
03FFFE00
03FFFE00
03FF8000
00000000
00000000
00000000
01F07C00
03F8FE00
03F8FE00
03F8FE00
01F07C00
00E03800
00000000
00000000
007FF000
01FFFE00
07F1FF00
0FC03F80
1F801FC0
3F000FE0
3F000FF0
7E0007F0
7E0007F8
FE0003F8
FE0003F8
FE0003F8
FC0003FC
FC0001FC
FC0001FC
FE0001FC
FE0001FC
FE0001F8
FE0003F8
FE0003F8
FE0003F8
7F0003F0
7F0003F0
3F8007E0
3F800FE0
1FC00FC0
0FF01F80
07FEFF00
01FFFC00
007FF000
ENDCHAR
STARTCHAR 022B
ENCODING 555
SWIDTH 562 0
DWIDTH 25 0
BBX 22 34 2 0
BITMAP
3FFFE0
3FFFE0
000000
000000
000000
0E0380
1F07C0
3F8FE0
3F8FE0
3F8FE0
1F07C0
000000
000000
00FC00
07FF80
1FFFC0
3F0FE0
7E07F0
7E03F8
FC03F8
FC01F8
FC01FC
FC01FC
FC01FC
FC01FC
FC01FC
FC01FC
FE01F8
FE01F8
7F03F0
7F03F0
3FCFE0
1FFFC0
07FF00
ENDCHAR
STARTCHAR 022C
ENCODING 556
SWIDTH 742 0
DWIDTH 33 0
BBX 30 44 2 0
BITMAP
03FFFE00
03FFFE00
00000000
00000000
00000000
00180000
00FF0E00
01FFFE00
03FFFC00
03CFF800
0103F000
00000000
00000000
00000000
007FF000
01FFFE00
07F1FF00
0FC03F80
1F801FC0
3F000FE0
3F000FF0
7E0007F0
7E0007F8
FE0003F8
FE0003F8
FE0003F8
FC0003FC
FC0001FC
FC0001FC
FE0001FC
FE0001FC
FE0001F8
FE0003F8
FE0003F8
FE0003F8
7F0003F0
7F0003F0
3F8007E0
3F800FE0
1FC00FC0
0FF01F80
07FEFF00
01FFFC00
007FF000
ENDCHAR
STARTCHAR 022D
ENCODING 557
SWIDTH 562 0
DWIDTH 25 0
BBX 22 35 2 0
BITMAP
3FFFE0
3FFFE0
3FFFE0
000000
000000
000000
03C000
0FF0E0
1FFFC0
3FFF80
187F80
101E00
000000
000000
00FC00
07FF80
1FFFC0
3F0FE0
7E07F0
7E03F8
FC03F8
FC01F8
FC01FC
FC01FC
FC01FC
FC01FC
FC01FC
FC01FC
FE01F8
FE01F8
7F03F0
7F03F0
3FCFE0
1FFFC0
07FF00
ENDCHAR
STARTCHAR 0230
ENCODING 560
SWIDTH 742 0
DWIDTH 33 0
BBX 30 43 2 0
BITMAP
03FFFE00
03FFFE00
03FFFE00
00000000
00000000
000F8000
001FC000
001FC000
001FC000
001FC000
000F8000
00000000
00000000
007FF000
01FFFE00
07F1FF00
0FC03F80
1F801FC0
3F000FE0
3F000FF0
7E0007F0
7E0007F8
FE0003F8
FE0003F8
FE0003F8
FC0003FC
FC0001FC
FC0001FC
FE0001FC
FE0001FC
FE0001F8
FE0003F8
FE0003F8
FE0003F8
7F0003F0
7F0003F0
3F8007E0
3F800FE0
1FC00FC0
0FF01F80
07FEFF00
01FFFC00
007FF000
ENDCHAR
STARTCHAR 0231
ENCODING 561
SWIDTH 562 0
DWIDTH 25 0
BBX 22 33 2 0
BITMAP
3FFFE0
3FFFE0
3F0000
000000
002000
00FC00
01FC00
01FC00
01FC00
01FC00
007000
000000
00FC00
07FF80
1FFFC0
3F0FE0
7E07F0
7E03F8
FC03F8
FC01F8
FC01FC
FC01FC
FC01FC
FC01FC
FC01FC
FC01FC
FE01F8
FE01F8
7F03F0
7F03F0
3FCFE0
1FFFC0
07FF00
ENDCHAR
STARTCHAR 0232
ENCODING 562
SWIDTH 630 0
DWIDTH 28 0
BBX 26 36 1 0
BITMAP
01FFFE00
01FFFE00
00000000
00000000
00000000
00000000
FFF83FC0
FFF83FC0
FFF03FC0
3FE00F00
1FE00F00
1FE00E00
0FE01C00
0FF01C00
07F03800
07F83800
03F83000
03FC7000
01FC7000
01FEE000
00FEE000
00FFC000
007FC000
007F8000
003F8000
003F8000
003F8000
003F8000
003F8000
003F8000
003F8000
003F8000
007F8000
03FFF800
07FFF800
07FFF800
ENDCHAR
STARTCHAR 0233
ENCODING 563
SWIDTH 540 0
DWIDTH 24 0
BBX 23 39 1 -11
BITMAP
07FFF8
07FFF8
040000
000000
000000
000000
000000
000000
FFF1FE
FFF1FE
7FE0FC
3FC078
1FC070
1FC070
0FE070
0FE0E0
07E0E0
07F1C0
07F1C0
03F980
03FB80
01FF80
01FF00
00FF00
00FE00
007E00
007C00
003C00
003C00
003800
003800
007000
007000
41E000
7FE000
7FC000
7FC000
7F8000
3F0000
ENDCHAR
STARTCHAR 0237
ENCODING 567
SWIDTH 292 0
DWIDTH 13 0
BBX 10 32 1 -11
BITMAP
0080
1FC0
7FC0
FFC0
3FC0
1FC0
0FC0
0FC0
0FC0
0FC0
0FC0
0FC0
0FC0
0FC0
0FC0
0FC0
0FC0
0FC0
0FC0
0FC0
0FC0
0FC0
0F80
1F80
1F80
1F00
3E00
7E00
7C00
F800
F000
C000
ENDCHAR
STARTCHAR 0258
ENCODING 600
SWIDTH 495 0
DWIDTH 22 0
BBX 19 21 2 0
BITMAP
01F000
0FFE00
3FFF00
7E3F80
7C1FC0
FC0FC0
F80FC0
F80FE0
F80FE0
FFFFE0
FFFFE0
FFFFE0
000FE0
000FE0
000FC0
F00FC0
F00FC0
F81F80
FFFF00
FFFE00
3FF800
ENDCHAR
STARTCHAR 0259
ENCODING 601
SWIDTH 495 0
DWIDTH 22 0
BBX 19 21 2 0
BITMAP
03E000
1FFC00
7FFF00
FFFF80
E03FC0
001FC0
000FE0
000FE0
000FE0
0007E0
FFFFE0
FFFFE0
FC07E0
FC07E0
FC0FE0
FC0FC0
FC0FC0
7E1F80
3F3F00
1FFE00
0FF800
ENDCHAR
STARTCHAR 0272
ENCODING 626
SWIDTH 652 0
DWIDTH 29 0
BBX 27 32 1 -11
BITMAP
0080C000
0FC7F800
7FDFFC00
FFDFFE00
3FFFFF00
1FF07F00
0FE07F00
0FE03F00
0FC03F00
0FC03F00
0FC03F00
0FC03F00
0FC03F00
0FC03F00
0FC03F00
0FC03F00
0FC07F00
0FC07F80
0FC1FFC0
0FC1FFE0
0FC1FFE0
0FC00000
1F800000
1F800000
1F800000
1F000000
3F000000
7E000000
7C000000
F8000000
F0000000
C0000000
ENDCHAR
STARTCHAR 0292
ENCODING 658
SWIDTH 495 0
DWIDTH 22 0
BBX 19 31 2 -11
BITMAP
7FFFC0
7FFFE0
7E1FC0
781FC0
783F80
F07F80
707F00
00FE00
00FE00
01FC00
03F800
03F800
07F000
0FFC00
0FFF00
07FF80
003FC0
000FE0
000FE0
0007E0
0007E0
0007E0
0007E0
7007E0
F007E0
F00FC0
F81FC0
FC3F80
FFFF00
FFFC00
1FF000
ENDCHAR
STARTCHAR 02B9
ENCODING 697
SWIDTH 270 0
DWIDTH 12 0
BBX 7 12 3 20
BITMAP
02
3E
3E
3C
3C
38
78
70
70
E0
E0
C0
ENDCHAR
STARTCHAR 02BA
ENCODING 698
SWIDTH 472 0
DWIDTH 21 0
BBX 16 12 3 20
BITMAP
0202
3E1F
3E1E
3C3E
3C3C
383C
7838
7078
7070
E070
E0E0
C0E0
ENDCHAR
STARTCHAR 02BB
ENCODING 699
SWIDTH 270 0
DWIDTH 12 0
BBX 7 13 3 19
BITMAP
1C
3C
78
70
F0
F0
F8
FE
FE
FE
FC
F8
40
ENDCHAR
STARTCHAR 02BC
ENCODING 700
SWIDTH 270 0
DWIDTH 12 0
BBX 7 14 3 18
BITMAP
0C
FE
FE
FE
FE
7E
3E
1C
1C
3C
38
70
F0
60
ENDCHAR
STARTCHAR 02BE
ENCODING 702
SWIDTH 247 0
DWIDTH 11 0
BBX 8 12 2 19
BITMAP
F0
F8
FC
3E
1E
1F
1F
1F
3E
7E
FC
F8
ENDCHAR
STARTCHAR 02BF
ENCODING 703
SWIDTH 247 0
DWIDTH 11 0
BBX 8 13 2 19
BITMAP
0F
3F
7E
F8
F8
F8
F8
F8
F8
7E
7F
1F
02
ENDCHAR
STARTCHAR 02C6
ENCODING 710
SWIDTH 292 0
DWIDTH 13 0
BBX 17 9 -2 23
BITMAP
00C000
01E000
03F000
07F800
1FFC00
3E7E00
7C1F00
F00F80
600300
ENDCHAR
STARTCHAR 02C7
ENCODING 711
SWIDTH 292 0
DWIDTH 13 0
BBX 15 9 -1 23
BITMAP
4004
E00E
F81E
7E7C
3FF8
1FF0
0FE0
07C0
0380
ENDCHAR
STARTCHAR 02C8
ENCODING 712
SWIDTH 202 0
DWIDTH 9 0
BBX 4 12 3 19
BITMAP
F0
F0
F0
F0
F0
F0
F0
F0
F0
F0
F0
F0
ENDCHAR
STARTCHAR 02C9
ENCODING 713
SWIDTH 472 0
DWIDTH 21 0
BBX 16 3 3 25
BITMAP
FFFF
FFFF
8000
ENDCHAR
STARTCHAR 02CA
ENCODING 714
SWIDTH 292 0
DWIDTH 13 0
BBX 8 8 7 24
BITMAP
1F
3E
3E
3C
78
78
F0
E0
ENDCHAR
STARTCHAR 02CB
ENCODING 715
SWIDTH 292 0
DWIDTH 13 0
BBX 8 8 7 24
BITMAP
3C
FC
7C
3E
1E
1E
0F
07
ENDCHAR
STARTCHAR 02CC
ENCODING 716
SWIDTH 202 0
DWIDTH 9 0
BBX 4 12 3 -8
BITMAP
F0
F0
F0
F0
F0
F0
F0
F0
F0
F0
F0
F0
ENDCHAR
STARTCHAR 02D8
ENCODING 728
SWIDTH 292 0
DWIDTH 13 0
BBX 17 8 -2 24
BITMAP
F00380
F00380
780780
7F3F00
7FFF00
3FFE00
1FFC00
03F000
ENDCHAR
STARTCHAR 02D9
ENCODING 729
SWIDTH 292 0
DWIDTH 13 0
BBX 7 7 3 23
BITMAP
38
7E
FE
FE
FE
FE
38
ENDCHAR
STARTCHAR 02DA
ENCODING 730
SWIDTH 292 0
DWIDTH 13 0
BBX 11 9 1 23
BITMAP
1F00
3FC0
79E0
F1E0
F1E0
F1E0
7BC0
3FC0
1F00
ENDCHAR
STARTCHAR 02DB
ENCODING 731
SWIDTH 292 0
DWIDTH 13 0
BBX 11 13 1 -11
BITMAP
0300
0780
1E00
3C00
7C00
7800
F800
FC00
FF40
FFE0
7FE0
7F80
3E00
ENDCHAR
STARTCHAR 02DC
ENCODING 732
SWIDTH 292 0
DWIDTH 13 0
BBX 17 6 -2 24
BITMAP
1F0100
3FC380
7FFF00
FFFF00
E0FE00
003800
ENDCHAR
STARTCHAR 02DD
ENCODING 733
SWIDTH 292 0
DWIDTH 13 0
BBX 17 8 -2 24
BITMAP
1F9F80
1F1F00
3E3E00
3E3E00
3C3C00
787800
707800
F0F000
ENDCHAR
STARTCHAR 0300
ENCODING 768
SWIDTH 0 0
DWIDTH 0 0
BBX 8 8 3 24
BITMAP
78
F8
7C
7C
3E
1E
0F
0F
ENDCHAR
STARTCHAR 0301
ENCODING 769
SWIDTH 0 0
DWIDTH 0 0
BBX 9 8 2 24
BITMAP
1F80
1F00
3E00
3E00
3C00
7800
7000
F000
ENDCHAR
STARTCHAR 0302
ENCODING 770
SWIDTH 0 0
DWIDTH 0 0
BBX 17 9 2 23
BITMAP
00C000
01E000
03F000
0FF800
1FFC00
3E7E00
7C1F00
F00F80
600300
ENDCHAR
STARTCHAR 0303
ENCODING 771
SWIDTH 0 0
DWIDTH 0 0
BBX 17 6 2 24
BITMAP
1F8100
3FC380
7FFF00
FFFF00
E0FE00
003800
ENDCHAR
STARTCHAR 0304
ENCODING 772
SWIDTH 0 0
DWIDTH 0 0
BBX 17 3 2 25
BITMAP
FFFF80
FFFF80
800000
ENDCHAR
STARTCHAR 0306
ENCODING 774
SWIDTH 0 0
DWIDTH 0 0
BBX 17 9 2 23
BITMAP
200200
F00380
F00780
F80780
7F3F00
7FFF00
3FFE00
1FFC00
03E000
ENDCHAR
STARTCHAR 0307
ENCODING 775
SWIDTH 0 0
DWIDTH 0 0
BBX 8 7 2 23
BITMAP
18
7E
FF
FF
FF
7E
3C
ENDCHAR
STARTCHAR 0308
ENCODING 776
SWIDTH 0 0
DWIDTH 0 0
BBX 17 6 2 23
BITMAP
7C1F00
FE3F80
FE3F80
FE3F80
7E1F80
3C0F00
ENDCHAR
STARTCHAR 0309
ENCODING 777
SWIDTH 0 0
DWIDTH 0 0
BBX 10 8 3 23
BITMAP
7F80
FFC0
E3C0
E3C0
0F80
1E00
1E00
1E00
ENDCHAR
STARTCHAR 030A
ENCODING 778
SWIDTH 0 0
DWIDTH 0 0
BBX 11 9 2 23
BITMAP
1F00
3FC0
73E0
F1E0
F1E0
F1E0
7BC0
7F80
1F00
ENDCHAR
STARTCHAR 030B
ENCODING 779
SWIDTH 0 0
DWIDTH 0 0
BBX 17 8 2 24
BITMAP
1F9F80
1F1F00
3E3E00
3E3E00
3C3C00
787800
707800
F0F000
ENDCHAR
STARTCHAR 030C
ENCODING 780
SWIDTH 0 0
DWIDTH 0 0
BBX 16 9 2 23
BITMAP
2002
7007
F81F
7E3E
1FFC
0FF8
0FF0
07E0
03C0
ENDCHAR
STARTCHAR 030F
ENCODING 783
SWIDTH 0 0
DWIDTH 0 0
BBX 16 8 3 24
BITMAP
7878
F8F8
7C7C
3C3C
3E3E
1E1E
0E0F
0F0F
ENDCHAR
STARTCHAR 0311
ENCODING 785
SWIDTH 0 0
DWIDTH 0 0
BBX 17 9 2 23
BITMAP
01C000
0FF800
3FFE00
3FFF00
7FFF00
781F80
F00780
E00780
E00300
ENDCHAR
STARTCHAR 0312
ENCODING 786
SWIDTH 0 0
DWIDTH 0 0
BBX 7 9 2 22
BITMAP
1C
3C
38
78
7C
FE
FE
FE
7C
ENDCHAR
STARTCHAR 0313
ENCODING 787
SWIDTH 0 0
DWIDTH 0 0
BBX 7 10 2 22
BITMAP
0E
7E
FE
FE
FE
1E
1C
3C
78
10
ENDCHAR
STARTCHAR 031B
ENCODING 795
SWIDTH 0 0
DWIDTH 0 0
BBX 10 8 -4 17
BITMAP
0780
0780
07C0
0780
0F80
7F00
FE00
F000
ENDCHAR
STARTCHAR 0323
ENCODING 803
SWIDTH 0 0
DWIDTH 0 0
BBX 8 7 2 -10
BITMAP
10
7E
FF
FF
FF
7E
3C
ENDCHAR
STARTCHAR 0324
ENCODING 804
SWIDTH 0 0
DWIDTH 0 0
BBX 17 6 2 -10
BITMAP
7C1F00
FE3F80
FE3F80
FE3F80
7C1F80
380E00
ENDCHAR
STARTCHAR 0325
ENCODING 805
SWIDTH 0 0
DWIDTH 0 0
BBX 11 9 2 -11
BITMAP
1F00
3FC0
7BE0
F1E0
F1E0
F1E0
7BC0
7FC0
1F00
ENDCHAR
STARTCHAR 0326
ENCODING 806
SWIDTH 0 0
DWIDTH 0 0
BBX 8 11 2 -13
BITMAP
0E
7E
7F
FF
FF
1E
1E
1C
3C
78
70
ENDCHAR
STARTCHAR 0327
ENCODING 807
SWIDTH 0 0
DWIDTH 0 0
BBX 7 12 2 -11
BITMAP
18
38
70
F8
FC
7E
1E
0E
0E
3E
FC
60
ENDCHAR
STARTCHAR 0328
ENCODING 808
SWIDTH 0 0
DWIDTH 0 0
BBX 11 13 2 -11
BITMAP
0100
0780
1E00
3C00
7C00
7800
F800
FC00
FF40
FFE0
7FE0
7FC0
1E00
ENDCHAR
STARTCHAR 032E
ENCODING 814
SWIDTH 0 0
DWIDTH 0 0
BBX 15 7 2 -9
BITMAP
300E
F00E
F81E
7FFC
7FFC
3FF8
0FE0
ENDCHAR
STARTCHAR 0331
ENCODING 817
SWIDTH 0 0
DWIDTH 0 0
BBX 17 2 2 -7
BITMAP
FFFF80
FFFF80
ENDCHAR
STARTCHAR 0335
ENCODING 821
SWIDTH 0 0
DWIDTH 0 0
BBX 14 2 2 14
BITMAP
FFFC
FFFC
ENDCHAR
STARTCHAR 0336
ENCODING 822
SWIDTH 0 0
DWIDTH 0 0
BBX 28 3 2 10
BITMAP
7FFFFFF0
FFFFFFF0
FFFFFFF0
ENDCHAR
STARTCHAR 0337
ENCODING 823
SWIDTH 0 0
DWIDTH 0 0
BBX 19 12 3 8
BITMAP
000040
0001E0
0007E0
001FC0
007F00
01FE00
07F800
0FE000
3F8000
FE0000
F80000
E00000
ENDCHAR
STARTCHAR 0338
ENCODING 824
SWIDTH 0 0
DWIDTH 0 0
BBX 19 12 3 8
BITMAP
000040
0001E0
0007E0
001FC0
007F00
01FE00
07F800
0FE000
3F8000
FE0000
F80000
E00000
ENDCHAR
STARTCHAR 0374
ENCODING 884
SWIDTH 270 0
DWIDTH 12 0
BBX 7 12 3 20
BITMAP
02
3E
3E
3C
3C
38
78
70
70
E0
E0
C0
ENDCHAR
STARTCHAR 0375
ENCODING 885
SWIDTH 270 0
DWIDTH 12 0
BBX 7 12 3 -10
BITMAP
0E
0E
1C
1C
3C
3C
78
78
F8
F8
F0
80
ENDCHAR
STARTCHAR 037E
ENCODING 894
SWIDTH 292 0
DWIDTH 13 0
BBX 7 29 3 -8
BITMAP
18
7E
FE
FE
FE
FE
7C
00
00
00
00
00
00
00
00
04
7E
FE
FE
FE
FE
3E
1E
1C
3C
38
78
70
E0
ENDCHAR
STARTCHAR 0384
ENCODING 900
SWIDTH 292 0
DWIDTH 13 0
BBX 6 8 4 24
BITMAP
FC
F8
F8
F0
F0
F0
E0
E0
ENDCHAR
STARTCHAR 0385
ENCODING 901
SWIDTH 292 0
DWIDTH 13 0
BBX 18 8 -2 23
BITMAP
01F000
01F000
71E700
F9EF80
F9CFC0
F9CFC0
F9CF80
208200
ENDCHAR
STARTCHAR 0386
ENCODING 902
SWIDTH 697 0
DWIDTH 31 0
BBX 30 30 1 0
BITMAP
3E070000
3E0F0000
3C0F8000
3C0F8000
3C1FC000
781FC000
783FE000
783FE000
7837F000
0077F000
0067F000
00E3F800
00E3F800
01C1FC00
01C1FC00
01C1FE00
0380FE00
0380FF00
07007F00
07FFFF00
07FFFF80
0FFFBF80
0E003FC0
1C001FC0
1C001FE0
3C000FE0
3C000FF0
FF003FFC
FF007FFC
FF007FFC
ENDCHAR
STARTCHAR 0387
ENCODING 903
SWIDTH 270 0
DWIDTH 12 0
BBX 7 7 3 14
BITMAP
10
7C
FE
FE
FE
FE
7C
ENDCHAR
STARTCHAR 0388
ENCODING 904
SWIDTH 607 0
DWIDTH 27 0
BBX 32 30 -6 0
BITMAP
FCFFFFFC
FCFFFFFC
F8FFFFFC
F81FC07C
F81FC03C
F01FC01E
F01FC01E
F01FC01C
E01FC000
001FC000
001FC1C0
001FC1C0
001FC1C0
001FC7C0
001FFFC0
001FFFC0
001FC7C0
001FC1C0
001FC1C0
001FC1C0
001FC000
001FC000
001FC007
001FC00F
001FC00F
001FC01F
003FE03F
00FFFFFE
00FFFFFE
00FFFFFE
ENDCHAR
STARTCHAR 0389
ENCODING 905
SWIDTH 765 0
DWIDTH 34 0
BBX 39 30 -6 0
BITMAP
FCFFF83FFE
F8FFF83FFE
F8FFF83FFC
F81FC00FF0
F01FC007F0
F01FC007E0
F01FC007E0
E01FC007E0
E01FC007E0
001FC007E0
001FC007E0
001FC007E0
001FC007E0
001FFFFFE0
001FFFFFE0
001FFFFFE0
001FC007E0
001FC007E0
001FC007E0
001FC007E0
001FC007E0
001FC007E0
001FC007E0
001FC007E0
001FC007E0
001FC007F0
001FC00FF0
00FFF83FFC
00FFF83FFE
00FFF83FFE
ENDCHAR
STARTCHAR 038A
ENCODING 906
SWIDTH 360 0
DWIDTH 16 0
BBX 21 30 -6 0
BITMAP
FCFFF8
F8FFF8
F8FFF8
F81FC0
F01FC0
F01FC0
F01FC0
E01FC0
E01FC0
001FC0
001FC0
001FC0
001FC0
001FC0
001FC0
001FC0
001FC0
001FC0
001FC0
001FC0
001FC0
001FC0
001FC0
001FC0
001FC0
001FC0
001FC0
00FFF8
00FFF8
00FFF8
ENDCHAR
STARTCHAR 038C
ENCODING 908
SWIDTH 742 0
DWIDTH 33 0
BBX 36 30 -4 0
BITMAP
FC01FFC000
FC07FFF800
F81FC7FC00
F83F00FE00
F87E007F00
F0FC003F80
F0FC003FC0
F1F8001FC0
E1F8001FE0
03F8000FE0
03F8000FE0
03F8000FE0
03F0000FF0
03F00007F0
03F00007F0
03F80007F0
03F80007F0
03F80007E0
03F8000FE0
03F8000FE0
03F8000FE0
01FC000FC0
01FC000FC0
00FE001F80
00FE003F80
007F003F00
003FC07E00
001FFBFC00
0007FFF000
0001FFC000
ENDCHAR
STARTCHAR 038E
ENCODING 910
SWIDTH 630 0
DWIDTH 28 0
BBX 34 30 -7 0
BITMAP
7CFFF83FC0
7CFFF83FC0
78FFF03FC0
F83FE00F00
F81FE00F00
F01FE00E00
F00FE01C00
F00FF01C00
F007F03800
0007F83800
0003F83000
0003FC7000
0001FC7000
0001FEE000
0000FEE000
0000FFC000
00007FC000
00007F8000
00003F8000
00003F8000
00003F8000
00003F8000
00003F8000
00003F8000
00003F8000
00003F8000
00007F8000
0003FFF800
0007FFF800
0007FFF800
ENDCHAR
STARTCHAR 038F
ENCODING 911
SWIDTH 832 0
DWIDTH 37 0
BBX 37 30 -2 0
BITMAP
7C01FFE000
7C0FFFF800
781FE3FE00
783F807F00
787F003F80
F0FE001FC0
F1FC001FC0
F1FC000FE0
F3F8000FE0
03F8000FE0
03F80007F0
03F80007F0
03F80007F0
03F80007F0
03F80007F0
03F80007E0
03F80007E0
01F8000FE0
01F8000FC0
00F8000FC0
007C000F80
007C001F00
0E1E003E38
0F0F003838
0FFF007FF8
0FFF80FFF8
0FFFC1FFF8
0FFFC1FFF8
0FFFC1FFF8
07FFC0FFF8
ENDCHAR
STARTCHAR 0390
ENCODING 912
SWIDTH 337 0
DWIDTH 15 0
BBX 18 31 -1 0
BITMAP
00F800
00F000
38F380
7CE7C0
FCE7C0
FDE7C0
7DC7C0
30C300
000000
000000
002000
07F000
1FF000
1FF000
0FF000
07F000
03F000
03F000
03F000
03F000
03F000
03F000
03F000
03F000
03F000
03F000
03F000
03F000
03FF00
01FF00
00FE00
ENDCHAR
STARTCHAR 0391
ENCODING 913
SWIDTH 697 0
DWIDTH 31 0
BBX 30 30 1 0
BITMAP
00070000
000F0000
000F8000
000F8000
001FC000
001FC000
003FE000
003FE000
0037F000
0077F000
0067F000
00E3F800
00E3F800
01C1FC00
01C1FC00
01C1FE00
0380FE00
0380FF00
07007F00
07FFFF00
07FFFF80
0FFFBF80
0E003FC0
1C001FC0
1C001FE0
3C000FE0
3C000FF0
FF003FFC
FF007FFC
FF007FFC
ENDCHAR
STARTCHAR 0392
ENCODING 914
SWIDTH 652 0
DWIDTH 29 0
BBX 26 30 2 0
BITMAP
FFFFE000
FFFFF800
FFFFFE00
1FC1FE00
1FC0FF00
1FC07F00
1FC07F00
1FC07F00
1FC07F00
1FC07E00
1FC07E00
1FC0FC00
1FC3F800
1FFFC000
1FFFFC00
1FFFFE00
1FC1FF00
1FC07F80
1FC03F80
1FC03FC0
1FC03FC0
1FC01FC0
1FC03FC0
1FC03FC0
1FC03F80
1FC03F80
3FE0FF00
FFFFFE00
FFFFFC00
FFFFC000
ENDCHAR
STARTCHAR 0393
ENCODING 915
SWIDTH 585 0
DWIDTH 26 0
BBX 23 30 2 0
BITMAP
FFFFFC
FFFFFC
FFFFFC
1FC07C
1FC03C
1FC01C
1FC01E
1FC01C
1FC000
1FC000
1FC000
1FC000
1FC000
1FC000
1FC000
1FC000
1FC000
1FC000
1FC000
1FC000
1FC000
1FC000
1FC000
1FC000
1FC000
1FC000
1FE000
FFFC00
FFFC00
FFFE00
ENDCHAR
STARTCHAR 0394
ENCODING 916
SWIDTH 652 0
DWIDTH 29 0
BBX 28 30 1 0
BITMAP
000E0000
000F0000
001F0000
001F8000
003F8000
003FC000
007FC000
007FE000
00EFE000
00EFF000
00C7F000
01C7F800
01C3F800
0383F800
0381FC00
0701FC00
0701FE00
0E00FE00
0E00FF00
1C007F00
1C007F80
38003F80
38003FC0
38001FC0
70001FC0
70000FE0
E0000FE0
FFFFFFF0
FFFFFFF0
FFFFFFE0
ENDCHAR
STARTCHAR 0395
ENCODING 917
SWIDTH 607 0
DWIDTH 27 0
BBX 24 30 2 0
BITMAP
FFFFFC
FFFFFC
FFFFFC
1FC07C
1FC03C
1FC01E
1FC01E
1FC01C
1FC000
1FC000
1FC1C0
1FC1C0
1FC1C0
1FC7C0
1FFFC0
1FFFC0
1FC7C0
1FC1C0
1FC1C0
1FC1C0
1FC000
1FC000
1FC007
1FC00F
1FC00F
1FC01F
3FE03F
FFFFFE
FFFFFE
FFFFFE
ENDCHAR
STARTCHAR 0396
ENCODING 918
SWIDTH 607 0
DWIDTH 27 0
BBX 23 30 2 0
BITMAP
3FFFFC
3FFFFC
3FFFFC
3E03FC
7C07F8
7807F8
780FF0
780FF0
301FE0
001FC0
003FC0
007F80
007F80
00FF00
00FF00
01FE00
01FE00
03FC00
07F800
07F800
0FF000
0FF000
1FE01E
3FC01E
3FC03E
7F803C
7F807C
FFFFFC
FFFFFC
FFFFFC
ENDCHAR
STARTCHAR 0397
ENCODING 919
SWIDTH 765 0
DWIDTH 34 0
BBX 31 30 2 0
BITMAP
FFF83FFE
FFF83FFE
FFF83FFC
1FC00FF0
1FC007F0
1FC007E0
1FC007E0
1FC007E0
1FC007E0
1FC007E0
1FC007E0
1FC007E0
1FC007E0
1FFFFFE0
1FFFFFE0
1FFFFFE0
1FC007E0
1FC007E0
1FC007E0
1FC007E0
1FC007E0
1FC007E0
1FC007E0
1FC007E0
1FC007E0
1FC007F0
1FC00FF0
FFF83FFC
FFF83FFE
FFF83FFE
ENDCHAR
STARTCHAR 0398
ENCODING 920
SWIDTH 742 0
DWIDTH 33 0
BBX 30 30 2 0
BITMAP
007FF000
01FFFE00
07F1FF00
0FC03F80
1F801FC0
3F000FE0
3F000FF0
7E0007F0
7E0007F8
FE0003F8
FE0003F8
FE0003F8
FC0003FC
FC7FF9FC
FCFFF9FC
FEFFF9FC
FE0001FC
FE0001F8
FE0003F8
FE0003F8
FE0003F8
7F0003F0
7F0003F0
3F8007E0
3F800FE0
1FC00FC0
0FF01F80
07FEFF00
01FFFC00
007FF000
ENDCHAR
STARTCHAR 0399
ENCODING 921
SWIDTH 360 0
DWIDTH 16 0
BBX 13 30 2 0
BITMAP
FFF8
FFF8
FFF8
1FC0
1FC0
1FC0
1FC0
1FC0
1FC0
1FC0
1FC0
1FC0
1FC0
1FC0
1FC0
1FC0
1FC0
1FC0
1FC0
1FC0
1FC0
1FC0
1FC0
1FC0
1FC0
1FC0
1FC0
FFF8
FFF8
FFF8
ENDCHAR
STARTCHAR 039A
ENCODING 922
SWIDTH 720 0
DWIDTH 32 0
BBX 29 30 2 0
BITMAP
FFF87FF0
FFF87FF0
FFF87FE0
1FC01F00
1FC01E00
1FC03C00
1FC07800
1FC0F000
1FC1E000
1FC3C000
1FC78000
1FCF0000
1FDE0000
1FFF0000
1FFF8000
1FFFC000
1FFFE000
1FDFE000
1FCFF000
1FC7F800
1FC7FC00
1FC3FC00
1FC1FE00
1FC0FF00
1FC0FF00
1FC07F80
1FC03FE0
FFF83FF8
FFF81FF8
FFF81FF8
ENDCHAR
STARTCHAR 039B
ENCODING 923
SWIDTH 675 0
DWIDTH 30 0
BBX 28 30 1 0
BITMAP
000E0000
000F0000
001F0000
001F8000
003F8000
003F8000
003FC000
007FC000
006FE000
006FE000
00EFE000
00C7F000
01C7F000
01C7F800
0183F800
0383FC00
0381FC00
0301FC00
0701FE00
0700FE00
0E00FF00
0E00FF00
0E007F00
1C007F80
1C003F80
3C003FC0
3C003FC0
FF00FFF0
FF00FFF0
FF00FFF0
ENDCHAR
STARTCHAR 039C
ENCODING 924
SWIDTH 945 0
DWIDTH 42 0
BBX 41 30 1 0
BITMAP
3FF00007FE00
3FF00007FE00
3FF8000FFE00
07F8000FF000
07FC000FF000
07FC001FF000
07FE001FF000
07FE003FF000
07FE003FF000
07FF003FF000
077F0077F000
077F8073F000
073F8073F000
073FC0E3F800
061FC0E3F800
0E1FE1C3F800
0E0FE1C3F800
0E0FE1C3F800
0E07F383F800
0E07F383F800
0E07FB01F800
0E03FF01F800
0E03FF01F800
0E01FE01FC00
1E01FE01FC00
1E00FC01FC00
3E00FC03FE00
FFC07C0FFF80
FFC0780FFF80
FFC0780FFF80
ENDCHAR
STARTCHAR 039D
ENCODING 925
SWIDTH 720 0
DWIDTH 32 0
BBX 29 30 2 0
BITMAP
FF801FF8
FF801FF8
FFC01FF0
3FE003C0
1FF003C0
1FF001C0
1FF801C0
1FFC01C0
1FFE01C0
1DFE01C0
1CFF01C0
1CFF81C0
1C7FC1C0
1C3FC1C0
1C1FE1C0
1C1FF1C0
1C0FF9C0
1C07F9C0
1C03FDC0
1C03FFC0
1C01FFC0
1C00FFC0
1C007FC0
1C007FC0
1C003FC0
1C001FC0
3E000FC0
FF800FC0
FF8007C0
FFC003C0
ENDCHAR
STARTCHAR 039E
ENCODING 926
SWIDTH 607 0
DWIDTH 27 0
BBX 25 30 1 0
BITMAP
3FFFFF00
3FFFFF00
7FFFFF00
7FFFFF00
7FFFFF00
78000F00
78000700
70000700
00000000
00000000
07007000
07007000
07C0F000
07FFF000
07FFF000
07FFF000
07FFF000
07807000
07007000
07007000
00000000
00000000
70000780
F0000780
78000F80
7FFFFF00
7FFFFF00
7FFFFF00
7FFFFF00
7FFFFF00
ENDCHAR
STARTCHAR 039F
ENCODING 927
SWIDTH 742 0
DWIDTH 33 0
BBX 30 30 2 0
BITMAP
007FF000
01FFFE00
07F1FF00
0FC03F80
1F801FC0
3F000FE0
3F000FF0
7E0007F0
7E0007F8
FE0003F8
FE0003F8
FE0003F8
FC0003FC
FC0001FC
FC0001FC
FE0001FC
FE0001FC
FE0001F8
FE0003F8
FE0003F8
FE0003F8
7F0003F0
7F0003F0
3F8007E0
3F800FE0
1FC00FC0
0FF01F80
07FEFF00
01FFFC00
007FF000
ENDCHAR
STARTCHAR 03A0
ENCODING 928
SWIDTH 765 0
DWIDTH 34 0
BBX 30 30 2 0
BITMAP
FFFFFFFC
FFFFFFFC
FFFFFFFC
1FC00FF0
1FC00FE0
1FC00FE0
1FC00FE0
1FC00FE0
1FC00FE0
1FC00FE0
1FC00FE0
1FC00FE0
1FC00FE0
1FC00FE0
1FC00FE0
1FC00FE0
1FC00FE0
1FC00FE0
1FC00FE0
1FC00FE0
1FC00FE0
1FC00FE0
1FC00FE0
1FC00FE0
1FC00FE0
1FC00FE0
1FC00FF0
FFF87FFC
FFF87FFC
FFF87FFC
ENDCHAR
STARTCHAR 03A1
ENCODING 929
SWIDTH 630 0
DWIDTH 28 0
BBX 25 30 2 0
BITMAP
FFFFE000
FFFFF800
FFFFFE00
1FC1FE00
1FC0FF00
1FC07F00
1FC07F80
1FC03F80
1FC03F80
1FC03F80
1FC03F80
1FC03F80
1FC03F00
1FC07F00
1FC07E00
1FC0FE00
1FC1FC00
1FDFF800
1FDFE000
1FC70000
1FC00000
1FC00000
1FC00000
1FC00000
1FC00000
1FC00000
1FE00000
FFFC0000
FFFC0000
FFFE0000
ENDCHAR
STARTCHAR 03A3
ENCODING 931
SWIDTH 607 0
DWIDTH 27 0
BBX 24 30 2 0
BITMAP
7FFFFC
FFFFFC
7FFFFC
7F807C
3FC03C
1FC03C
1FE03C
0FF01C
07F818
03F800
03FC00
01FE00
00FF00
00FF80
007F80
007F80
00FF80
00FF00
01FE00
03FC00
07F800
0FF000
0FE00F
1FE00F
3FC00F
7F801F
7F003E
FFFFFE
FFFFFE
FFFFFE
ENDCHAR
STARTCHAR 03A4
ENCODING 932
SWIDTH 652 0
DWIDTH 29 0
BBX 27 30 1 0
BITMAP
7FFFFFC0
7FFFFFC0
7FFFFFC0
7C3F87C0
783F83E0
F03F81E0
F03F81E0
F03F81E0
003F8000
003F8000
003F8000
003F8000
003F8000
003F8000
003F8000
003F8000
003F8000
003F8000
003F8000
003F8000
003F8000
003F8000
003F8000
003F8000
003F8000
003F8000
007FC000
03FFF800
03FFF800
03FFF800
ENDCHAR
STARTCHAR 03A5
ENCODING 933
SWIDTH 630 0
DWIDTH 28 0
BBX 26 30 1 0
BITMAP
FFF83FC0
FFF83FC0
FFF03FC0
3FE00F00
1FE00F00
1FE00E00
0FE01C00
0FF01C00
07F03800
07F83800
03F83000
03FC7000
01FC7000
01FEE000
00FEE000
00FFC000
007FC000
007F8000
003F8000
003F8000
003F8000
003F8000
003F8000
003F8000
003F8000
003F8000
007F8000
03FFF800
07FFF800
07FFF800
ENDCHAR
STARTCHAR 03A6
ENCODING 934
SWIDTH 765 0
DWIDTH 34 0
BBX 31 30 2 0
BITMAP
007FF800
007FF800
007FF800
001FE000
000FC000
00FFFE00
07FFFF80
1FFFFFE0
3FCFCFF0
7F0FC3F8
7E0FC1FC
FE0FC1FC
FC0FC0FC
FC0FC0FE
FC0FC0FE
FC0FC0FE
FC0FC0FC
FE0FC0FC
FE0FC1FC
FF0FC1F8
7F0FC3F8
3FCFC7F0
1FFFFFE0
07FFFF80
01FFFE00
000FC000
001FE000
007FF800
007FF800
007FF800
ENDCHAR
STARTCHAR 03A7
ENCODING 935
SWIDTH 697 0
DWIDTH 31 0
BBX 29 30 1 0
BITMAP
7FFC3FF0
7FFC3FF0
7FFC1FF0
1FF00FC0
0FF00F80
07F80F00
07F80E00
03FC1C00
01FE3C00
01FE3800
00FF7000
007FF000
007FE000
003FC000
001FC000
001FE000
001FF000
003FF000
007FF800
0073FC00
00E3FC00
01E1FE00
01C1FE00
0380FF00
07807F80
0F007F80
1F007FC0
7FC1FFF8
FFE1FFF8
FFE1FFF8
ENDCHAR
STARTCHAR 03A8
ENCODING 936
SWIDTH 810 0
DWIDTH 36 0
BBX 34 30 1 0
BITMAP
3F1FFF0FC0
FF9FFF1FC0
FF9FFE3F80
7F83F83F00
3F83F83F00
3F83F83F00
3F83F83F00
3F83F83F00
3F83F83F00
3F83F83F00
3F83F83F00
1F83F83F00
1F83F87E00
1F83F87E00
1FC3F87E00
0FE3F8FC00
0FF3FBFC00
07FFFFF800
01FFFFE000
000FFC0000
0003F80000
0003F80000
0003F80000
0003F80000
0003F80000
0003F80000
0007FC0000
003FFF8000
003FFF8000
003FFF8000
ENDCHAR
STARTCHAR 03A9
ENCODING 937
SWIDTH 832 0
DWIDTH 37 0
BBX 33 30 2 0
BITMAP
001FFE0000
00FFFF8000
01FE3FE000
03F807F000
07F003F800
0FE001FC00
1FC001FC00
1FC000FE00
3F8000FE00
3F8000FE00
3F80007F00
3F80007F00
3F80007F00
3F80007F00
3F80007F00
3F80007E00
3F80007E00
1F8000FE00
1F8000FC00
0F8000FC00
07C000F800
07C001F000
E1E003E380
F0F0038380
FFF007FF80
FFF80FFF80
FFFC1FFF80
FFFC1FFF80
FFFC1FFF80
7FFC0FFF80
ENDCHAR
STARTCHAR 03AA
ENCODING 938
SWIDTH 360 0
DWIDTH 16 0
BBX 17 38 0 0
BITMAP
7C1F00
FE3F80
FE3F80
FE3F80
7C1F00
380E00
000000
000000
3FFE00
3FFE00
3FFE00
07F000
07F000
07F000
07F000
07F000
07F000
07F000
07F000
07F000
07F000
07F000
07F000
07F000
07F000
07F000
07F000
07F000
07F000
07F000
07F000
07F000
07F000
07F000
07F000
3FFE00
3FFE00
3FFE00
ENDCHAR
STARTCHAR 03AB
ENCODING 939
SWIDTH 630 0
DWIDTH 28 0
BBX 26 38 1 0
BITMAP
01F87E00
01F87E00
01F87F00
01F87E00
01F87E00
00701C00
00000000
00000000
FFF83FC0
FFF83FC0
FFF03FC0
3FE00F00
1FE00F00
1FE00E00
0FE01C00
0FF01C00
07F03800
07F83800
03F83000
03FC7000
01FC7000
01FEE000
00FEE000
00FFC000
007FC000
007F8000
003F8000
003F8000
003F8000
003F8000
003F8000
003F8000
003F8000
003F8000
007F8000
03FFF800
07FFF800
07FFF800
ENDCHAR
STARTCHAR 03AC
ENCODING 940
SWIDTH 630 0
DWIDTH 28 0
BBX 26 32 2 0
BITMAP
007E0000
007C0000
007C0000
007C0000
00780000
00780000
00700000
00700000
00000000
00000000
00000000
01F03C00
07FC3F80
1FFE7F80
3F0E7F00
7E077E00
7E03FC00
FC03FC00
FC03F800
FC01F800
FC01F800
FC01F000
FC01F000
FC03F000
FC03F000
FE07F000
FE07F000
FE07F800
7F0FB800
3FFF3FC0
1FFE1FC0
0FFC1F80
ENDCHAR
STARTCHAR 03AD
ENCODING 941
SWIDTH 427 0
DWIDTH 19 0
BBX 16 32 2 0
BITMAP
01F8
01F0
01F0
01F0
01E0
01E0
01E0
01C0
0000
0000
0000
00C0
1FFE
3FFE
7E1E
7E0E
7E0E
7E0C
7E00
3F00
0FF0
1FF0
7FF0
FF00
FC00
FC00
FC07
FC0F
FE0F
FF1F
7FFF
1FFC
ENDCHAR
STARTCHAR 03AE
ENCODING 942
SWIDTH 630 0
DWIDTH 28 0
BBX 23 43 2 -11
BITMAP
001F00
001F00
003E00
003E00
003E00
003C00
003C00
003800
000000
000000
000000
010080
1F8FF0
FF9FF8
FFBFFC
7FFFFC
3FE1FC
1FC0FE
1FC0FE
1F80FE
1F80FE
1F80FE
1F80FE
1F80FE
1F80FE
1F80FE
1F80FE
1F80FE
1F80FE
1F80FE
1F80FE
1F80FE
0000FE
0000FE
0000FE
0000FE
0000FE
0000FE
0000FE
0000FE
0000FC
0000F0
0000C0
ENDCHAR
STARTCHAR 03AF
ENCODING 943
SWIDTH 337 0
DWIDTH 15 0
BBX 13 32 2 0
BITMAP
07C0
07C0
07C0
0780
0780
0700
0F00
0F00
0000
0000
0000
0100
3F80
FF80
FF80
7F80
3F80
1F80
1F80
1F80
1F80
1F80
1F80
1F80
1F80
1F80
1F80
1F80
1F80
1FF8
0FF8
07F0
ENDCHAR
STARTCHAR 03B0
ENCODING 944
SWIDTH 517 0
DWIDTH 23 0
BBX 21 31 1 0
BITMAP
007C00
007C00
1E79E0
3E7BF0
3F7BF0
3F73F0
3E71E0
0C30C0
000000
000000
010020
1F81F0
FF87F0
FF87F0
7F83F8
3F80F8
3F8078
3F8078
3F8078
3F8078
3F8078
3F8078
3F8070
3F8070
3F8070
1F80F0
1FC1E0
1FF7C0
0FFFC0
07FF00
03FC00
ENDCHAR
STARTCHAR 03B1
ENCODING 945
SWIDTH 630 0
DWIDTH 28 0
BBX 26 21 2 0
BITMAP
01F03C00
07FC3F80
1FFE7F80
3F0E7F00
7E077E00
7E03FC00
FC03FC00
FC03F800
FC01F800
FC01F800
FC01F000
FC01F000
FC03F000
FC03F000
FE07F000
FE07F000
FE07F800
7F0FB800
3FFF3FC0
1FFE1FC0
0FFC1F80
ENDCHAR
STARTCHAR 03B2
ENCODING 946
SWIDTH 562 0
DWIDTH 25 0
BBX 22 43 2 -11
BITMAP
007E00
03FFC0
0FFFE0
1F0FF0
3F07F0
3E03F8
7E03F8
7E03F8
7E03F8
7E03F8
7E03F0
7E03F0
7E07E0
7E0FC0
7E7F80
7E7F80
7E7FE0
7E0FF0
7E03F8
7E03FC
7E01FC
7E01FC
7E01FC
7E00FC
7E00FC
7E01FC
7E01FC
7E01F8
7E03F8
7F9FF0
7FFFE0
7FFF80
7E0000
7E0000
7E0000
7E0000
7E0000
FE0000
FE0000
FE0000
FC0000
F00000
400000
ENDCHAR
STARTCHAR 03B3
ENCODING 947
SWIDTH 540 0
DWIDTH 24 0
BBX 23 32 1 -11
BITMAP
7C0200
FF03FE
FF83FE
7FC0FC
1FE070
0FE070
0FE0E0
07F0E0
07F1C0
03F1C0
03FB80
01FB80
01FB80
01FF00
00FF00
00FE00
007E00
007E00
003E00
007E00
007F00
00FF00
00DF00
00CF00
01CF80
018F80
018F80
018F80
018F00
01CF00
00FF00
007C00
ENDCHAR
STARTCHAR 03B4
ENCODING 948
SWIDTH 540 0
DWIDTH 24 0
BBX 21 32 2 0
BITMAP
00FC00
03FF80
07FF80
0FFF80
1FFF80
1FC380
1E0000
1E0000
1F0000
1F8000
0FE000
0FF000
07FC00
03FF00
03FF80
0FFFC0
1F7FE0
3E3FF0
7E1FF0
FE0FF8
FC07F8
FC03F8
FC03F8
FC03F8
FC03F8
FC03F8
FE03F0
FE03F0
7F07E0
3FFFC0
1FFF80
07FE00
ENDCHAR
STARTCHAR 03B5
ENCODING 949
SWIDTH 427 0
DWIDTH 19 0
BBX 16 21 2 0
BITMAP
00C0
1FFE
3FFE
7E1E
7E0E
7E0E
7E0C
7E00
3F00
0FF0
1FF0
7FF0
FF00
FC00
FC00
FC07
FC0F
FE0F
FF1F
7FFF
1FFC
ENDCHAR
STARTCHAR 03B6
ENCODING 950
SWIDTH 450 0
DWIDTH 20 0
BBX 18 43 2 -11
BITMAP
F80F80
FFFF80
FFFFC0
FFFFC0
FFFFC0
FFFFC0
F80F00
F01E00
E07C00
00F800
01F000
03E000
07C000
0FC000
1F8000
3F0000
3F0000
7E0000
7E0000
FE0000
FE0000
FE0000
FE0000
FE0000
FF0000
FF8000
FFF000
7FFC00
7FFF00
3FFF80
0FFF80
03FFC0
003FC0
001FC0
000FC0
001F80
001F80
001F00
003F00
007E00
00FC00
01F000
00C000
ENDCHAR
STARTCHAR 03B7
ENCODING 951
SWIDTH 630 0
DWIDTH 28 0
BBX 23 32 2 -11
BITMAP
010080
1F8FF0
FF9FF8
FFBFFC
7FFFFC
3FE1FC
1FC0FE
1FC0FE
1F80FE
1F80FE
1F80FE
1F80FE
1F80FE
1F80FE
1F80FE
1F80FE
1F80FE
1F80FE
1F80FE
1F80FE
1F80FE
0000FE
0000FE
0000FE
0000FE
0000FE
0000FE
0000FE
0000FE
0000FC
0000F0
0000C0
ENDCHAR
STARTCHAR 03B8
ENCODING 952
SWIDTH 562 0
DWIDTH 25 0
BBX 22 32 2 0
BITMAP
00FC00
07FF00
0FFFC0
1F8FE0
3F07E0
3E03F0
7E03F0
7E03F8
FE03F8
FE01F8
FC01FC
FC01FC
FC01FC
FC01FC
FFFFFC
FFFFFC
FFFFFC
FFFFFC
FC01FC
FC01FC
FC01FC
FE01FC
FE01F8
FE01F8
7E01F8
7E03F0
7F03F0
3F03F0
3F87E0
1FCFC0
0FFF80
03FE00
ENDCHAR
STARTCHAR 03B9
ENCODING 953
SWIDTH 337 0
DWIDTH 15 0
BBX 13 21 2 0
BITMAP
0100
3F80
FF80
FF80
7F80
3F80
1F80
1F80
1F80
1F80
1F80
1F80
1F80
1F80
1F80
1F80
1F80
1F80
1FF8
0FF8
07F0
ENDCHAR
STARTCHAR 03BA
ENCODING 954
SWIDTH 607 0
DWIDTH 27 0
BBX 24 21 2 0
BITMAP
010000
3F87FE
FF87FE
FF83F8
7F83E0
3F8780
1F8F00
1F9E00
1FBC00
1FFE00
1FFF00
1FFF80
1FBFC0
1F9FE0
1F8FF0
1F87F0
1F87F8
1F83FC
1F81FF
1F80FF
1F80FF
ENDCHAR
STARTCHAR 03BB
ENCODING 955
SWIDTH 562 0
DWIDTH 25 0
BBX 24 32 1 0
BITMAP
0F8000
3FE000
7FF000
67F000
03F800
03F800
01F800
01FC00
01FC00
00FC00
00FE00
00FE00
01FE00
01FE00
01FF00
03FF00
03BF00
03BF80
07BF80
079F80
0F9F80
0F1FC0
0F1FC0
1F0FC0
1F0FE0
1F0FE0
3E07E0
3E07F0
7E07F0
FE03FF
FE03FF
FE01FE
ENDCHAR
STARTCHAR 03BC
ENCODING 956
SWIDTH 630 0
DWIDTH 28 0
BBX 25 32 2 -11
BITMAP
01000800
1F87FC00
FF87FC00
FF87FC00
7F81FC00
3F80FC00
3F80FC00
3F80FC00
3F80FC00
3F80FC00
3F80FC00
3F80FC00
3F80FC00
3F80FC00
3F81FC00
3F81FC00
3F83FE00
3FC77F80
3FFFFF80
3FFE7F80
3FF87800
3F000000
3F000000
3F000000
3F000000
3F000000
3F000000
3F000000
3F000000
3E000000
38000000
10000000
ENDCHAR
STARTCHAR 03BD
ENCODING 957
SWIDTH 495 0
DWIDTH 22 0
BBX 21 21 1 0
BITMAP
020010
3F00F8
FF07F8
FF87F8
7F81F8
3F80F8
1FC070
1FC070
0FC0F0
0FE0E0
07E0E0
07F1C0
07F1C0
03F380
03FF00
01FF00
01FE00
01FC00
00FC00
00F800
00F000
ENDCHAR
STARTCHAR 03BE
ENCODING 958
SWIDTH 450 0
DWIDTH 20 0
BBX 18 43 2 -11
BITMAP
F80780
FFFF80
FFFF80
FFFFC0
FFFFC0
FFFFC0
F07E00
E3F800
07E000
1FC000
3F8000
3F0000
7F0000
7F0000
7F0000
7F8000
3FC000
1FFC00
07FE00
03FC00
1FF800
3F0000
7E0000
FE0000
FC0000
FE0000
FF0000
FFC000
FFF800
7FFF00
3FFF80
0FFF80
01FFC0
003FC0
001FC0
000F80
001F80
001F80
003F00
007E00
00FC00
01F000
00C000
ENDCHAR
STARTCHAR 03BF
ENCODING 959
SWIDTH 562 0
DWIDTH 25 0
BBX 22 21 2 0
BITMAP
00FC00
07FF80
1FFFC0
3F0FE0
7E07F0
7E03F8
FC03F8
FC01F8
FC01FC
FC01FC
FC01FC
FC01FC
FC01FC
FC01FC
FE01F8
FE01F8
7F03F0
7F03F0
3FCFE0
1FFFC0
07FF00
ENDCHAR
STARTCHAR 03C0
ENCODING 960
SWIDTH 585 0
DWIDTH 26 0
BBX 23 23 2 0
BITMAP
00000C
00001E
00007E
1FFFFC
3FFFFC
7FFFFC
FFFFFC
FFFFFC
E307C0
0707C0
0707C0
0707C0
0707C0
0707C0
0707C0
0F07C0
0F07C0
1F07C0
1F07C0
3F07E0
7F07FC
7E07FC
7E03F8
ENDCHAR
STARTCHAR 03C1
ENCODING 961
SWIDTH 562 0
DWIDTH 25 0
BBX 22 32 1 -11
BITMAP
003E00
03FFC0
07FFF0
0FC7F8
1F83F8
3F01FC
3F01FC
7E00FC
7E00FC
7E00FC
7E00FC
7E00FC
7E00FC
7E00FC
7E01FC
7E01F8
7E01F0
7E03F0
7F8FE0
7FFF80
7FFE00
7E0000
7E0000
7E0000
7E0000
7E0000
7E0000
7E0000
7F0000
7C0000
F00000
400000
ENDCHAR
STARTCHAR 03C2
ENCODING 962
SWIDTH 450 0
DWIDTH 20 0
BBX 18 32 2 -11
BITMAP
01F800
0FFF00
1FFF80
3F1F80
7E0F80
FC0780
FC0780
FC0780
FC0000
FC0000
FC0000
FC0000
FE0000
FF0000
7FC000
7FE000
3FF800
1FFE00
0FFF00
03FF80
00FF80
003F80
001FC0
001F80
001F80
001F80
003F00
003F00
007E00
01FC00
01F000
00C000
ENDCHAR
STARTCHAR 03C3
ENCODING 963
SWIDTH 630 0
DWIDTH 28 0
BBX 26 23 2 0
BITMAP
000001C0
000001C0
007F07C0
07FFFFC0
0FFFFF80
3FFFFF80
7F8FFF80
7F07FF80
FE03F000
FE01F800
FC01F800
FC01FC00
FC01FC00
FC01FC00
FC01FC00
FC01FC00
FE01F800
FE01F800
7E03F800
7F03F000
3FEFE000
1FFFC000
07FF0000
ENDCHAR
STARTCHAR 03C4
ENCODING 964
SWIDTH 360 0
DWIDTH 16 0
BBX 15 23 1 0
BITMAP
000C
000E
003E
3FFE
7FFE
FFFE
FFFE
FFFC
C7C0
07C0
07C0
07C0
07C0
07C0
07C0
07C0
07C0
07C0
07E0
07E0
07FC
03FE
03FC
ENDCHAR
STARTCHAR 03C5
ENCODING 965
SWIDTH 517 0
DWIDTH 23 0
BBX 21 21 1 0
BITMAP
010020
1F81F0
FF87F0
FF87F0
7F83F8
3F80F8
3F8078
3F8078
3F8078
3F8078
3F8078
3F8078
3F8070
3F8070
3F8070
1F80F0
1FC1E0
1FF7C0
0FFFC0
07FF00
03FC00
ENDCHAR
STARTCHAR 03C6
ENCODING 966
SWIDTH 787 0
DWIDTH 35 0
BBX 32 32 2 -11
BITMAP
00800F00
03C0FFE0
0FC1FFF8
1F83F1FC
3F07E0FC
7E07E0FE
7E07E07E
FE0FE07E
FC0FE07F
FC0FE07F
FC0FE07F
FC0FE07E
FC0FE07E
FE0FE07E
FE0FE0FE
FE0FE0FC
7F0FE1FC
3F8FE3F8
1FEFEFF0
0FFFFFE0
03FFFF00
000FE000
000FE000
000FE000
000FE000
000FE000
000FE000
000FE000
000FE000
000FC000
000F0000
00040000
ENDCHAR
STARTCHAR 03C7
ENCODING 967
SWIDTH 540 0
DWIDTH 24 0
BBX 23 32 1 -11
BITMAP
010000
1F83FE
FFC3FC
FFC1F8
3FC0F0
0FE0E0
0FE0E0
07F1C0
07F1C0
03F380
03FB80
01FF80
01FF00
01FF00
00FE00
00FC00
00FE00
01FE00
01FE00
03FF00
03BF00
073F00
073F80
0F1F80
0E1FC0
0E1FC0
1C0FE0
1C0FF0
3C07FE
FF07FE
FF83FC
FF8380
ENDCHAR
STARTCHAR 03C8
ENCODING 968
SWIDTH 765 0
DWIDTH 34 0
BBX 31 43 1 -11
BITMAP
00002000
000FF000
003FF000
003FF000
000FF000
0007F000
0003F000
0003F000
0003F000
0003F000
0003F000
0103F008
1F83F07C
FF83F1FE
FF83F1FE
7F83F0FE
3F83F07E
3F83F03E
3F83F03E
3F83F03E
3F83F03E
3F83F03E
3F83F03E
3F83F03E
1F83F03E
1F83F07C
1FC3F07C
0FE3F0F8
0FF3F3F0
07FFFFE0
01FFFF80
007FFC00
0003F000
0003F000
0003F000
0003F000
0003F000
0003F000
0003F000
0007F000
0007E000
00078000
00020000
ENDCHAR
STARTCHAR 03C9
ENCODING 969
SWIDTH 765 0
DWIDTH 34 0
BBX 31 21 2 0
BITMAP
01000200
07800780
1F8007E0
3F0003F0
7F0003F8
7E0301F8
FE0781FC
FE0781FC
FE07C1FC
FE07C1FC
FE07C1FE
FE0781FE
FE0781FE
FE0781FC
FE0781FC
FE0781FC
7F0FC3F8
7F0FC3F8
3FFCFFF0
1FFCFFE0
07F03FC0
ENDCHAR
STARTCHAR 03CA
ENCODING 970
SWIDTH 337 0
DWIDTH 15 0
BBX 17 29 0 0
BITMAP
7C1F00
FC3F00
FE3F80
FE3F80
FC3F00
781E00
000000
000000
004000
0FE000
3FE000
3FE000
1FE000
0FE000
07E000
07E000
07E000
07E000
07E000
07E000
07E000
07E000
07E000
07E000
07E000
07E000
07FE00
03FE00
01FC00
ENDCHAR
STARTCHAR 03CB
ENCODING 971
SWIDTH 517 0
DWIDTH 23 0
BBX 21 29 1 0
BITMAP
1F07C0
1F8FE0
3F8FE0
3F8FE0
1F87E0
0F03C0
000000
000000
010020
1F81F0
FF87F0
FF87F0
7F83F8
3F80F8
3F8078
3F8078
3F8078
3F8078
3F8078
3F8078
3F8070
3F8070
3F8070
1F80F0
1FC1E0
1FF7C0
0FFFC0
07FF00
03FC00
ENDCHAR
STARTCHAR 03CC
ENCODING 972
SWIDTH 562 0
DWIDTH 25 0
BBX 22 32 2 0
BITMAP
007E00
007C00
007C00
007800
007800
007800
007000
007000
000000
000000
000000
00FC00
07FF80
1FFFC0
3F0FE0
7E07F0
7E03F8
FC03F8
FC01F8
FC01FC
FC01FC
FC01FC
FC01FC
FC01FC
FC01FC
FE01F8
FE01F8
7F03F0
7F03F0
3FCFE0
1FFFC0
07FF00
ENDCHAR
STARTCHAR 03CD
ENCODING 973
SWIDTH 517 0
DWIDTH 23 0
BBX 21 32 1 0
BITMAP
007E00
007C00
007C00
007C00
007800
007800
007800
007000
000000
000000
000000
010020
1F81F0
FF87F0
FF87F0
7F83F8
3F80F8
3F8078
3F8078
3F8078
3F8078
3F8078
3F8078
3F8070
3F8070
3F8070
1F80F0
1FC1E0
1FF7C0
0FFFC0
07FF00
03FC00
ENDCHAR
STARTCHAR 03CE
ENCODING 974
SWIDTH 765 0
DWIDTH 34 0
BBX 31 32 2 0
BITMAP
0003E000
0003E000
0003C000
0007C000
0007C000
00078000
00078000
00078000
00000000
00000000
00000000
01000200
07800780
1F8007E0
3F0003F0
7F0003F8
7E0301F8
FE0781FC
FE0781FC
FE07C1FC
FE07C1FC
FE07C1FE
FE0781FE
FE0781FE
FE0781FC
FE0781FC
FE0781FC
7F0FC3F8
7F0FC3F8
3FFCFFF0
1FFCFFE0
07F03FC0
ENDCHAR
STARTCHAR 03CF
ENCODING 975
SWIDTH 720 0
DWIDTH 32 0
BBX 29 41 2 -11
BITMAP
FFF87FF0
FFF87FF0
FFF87FE0
1FC01F00
1FC01E00
1FC03C00
1FC07800
1FC0F000
1FC1E000
1FC3C000
1FC78000
1FCF0000
1FDE0000
1FFF0000
1FFF8000
1FFFC000
1FFFE000
1FDFE000
1FCFF000
1FC7F800
1FC3FC00
1FC3FC00
1FC1FE00
1FC0FF00
1FC0FF00
1FC07F80
1FC03FE0
FFF83FF8
FFF81FF8
FFF81FF8
00001FE0
00003F00
0000FC00
0000F800
0001F800
0003F000
0003F800
0003FC00
0003FE00
0003FE00
0001FE00
ENDCHAR
STARTCHAR 03D1
ENCODING 977
SWIDTH 607 0
DWIDTH 27 0
BBX 26 32 1 0
BITMAP
003C0000
03FF8000
07FFE000
0FC7F000
1F83F000
1F81F800
3F81F800
3F80FC00
3F80FC00
3F80FC00
1F80FC00
1FC0FE00
0FC0FE00
0FF0FE00
07FFFE00
01FFFF80
003FFFC0
0000FE00
0100FE00
7F80FE00
FF80FE00
FF80FC00
3F80FC00
1F80FC00
1F80FC00
1F81FC00
1F81F800
1FC1F800
0FC3F000
0FFFE000
07FFC000
01FF0000
ENDCHAR
STARTCHAR 03D2
ENCODING 978
SWIDTH 675 0
DWIDTH 30 0
BBX 28 30 1 0
BITMAP
3F8003F0
7FC00FF0
FFE00FF0
FFF01FF0
07F83FF0
03F838F0
01FC70F0
00FC60E0
00FCE000
007EE000
007EC000
007EC000
003EC000
003FC000
003F8000
003F8000
001F8000
001F8000
001F8000
001F8000
001F8000
001F8000
001F8000
001F8000
001F8000
003FC000
003FC000
03FFF800
03FFF800
03FFFC00
ENDCHAR
STARTCHAR 03D5
ENCODING 981
SWIDTH 765 0
DWIDTH 34 0
BBX 31 43 2 -11
BITMAP
0000C000
003FC000
007FE000
007FE000
001FE000
000FE000
000FE000
000FE000
000FE000
000FE000
000FE000
007FFC00
03FFFF80
0FFFFFE0
3F8FE7F0
3F0FE3F8
7E0FE1FC
FE0FE0FC
FC0FE0FE
FC0FE0FE
FC0FE07E
FC0FE07E
FC0FE07E
FC0FE07E
FC0FE0FE
FE0FE0FE
FE0FE0FC
7F0FE1FC
3F8FE3F8
1FEFEFF0
0FFFFFE0
03FFFF80
000FE000
000FE000
000FE000
000FE000
000FE000
000FE000
000FE000
000FE000
000FC000
000E0000
000C0000
ENDCHAR
STARTCHAR 03D6
ENCODING 982
SWIDTH 832 0
DWIDTH 37 0
BBX 34 23 2 0
BITMAP
0000000180
00000003C0
007FE00FC0
0FFFFFFF80
1FFFFFFF80
7FFFFFFF80
7FFFFFFF80
FFFFFFFF80
F0F001F000
43F000F800
07E000FC00
07E0F07E00
0FE0F07E00
0FE1F07F00
0FE1F07F00
0FE0F07F00
0FE0F07F00
0FE0F0FF00
0FF0F0FE00
07F1F9FE00
07FFBFFC00
03FF9FF800
00FE0FF000
ENDCHAR
STARTCHAR 03D7
ENCODING 983
SWIDTH 607 0
DWIDTH 27 0
BBX 25 32 2 -11
BITMAP
01000000
3F87FE00
FF87FE00
FF83F800
7F83E000
3F878000
1F8F0000
1F9E0000
1FBC0000
1FFE0000
1FFF0000
1FFF8000
1FBFC000
1F9FE000
1F8FF000
1F87F000
1F87F800
1F83FC00
1F81FF00
1F80FF00
1F80FF80
00001F80
00001F80
00001F80
00001F00
00003F00
00003F00
0000FE00
03F7FC00
03FFF800
01FFF000
007F8000
ENDCHAR
STARTCHAR 03F0
ENCODING 1008
SWIDTH 607 0
DWIDTH 27 0
BBX 24 21 2 0
BITMAP
080060
7F00FC
FF81FF
FF83FE
FF87FC
BF8FF8
0F9FF0
0F9FE0
0F3FC0
0F7F80
0FFF80
0FFF80
0FFBC0
0FF3C0
1FF3C0
1FE3E0
3FC3FE
7F83FF
7F83FF
FF01FE
3E00FC
ENDCHAR
STARTCHAR 03F1
ENCODING 1009
SWIDTH 562 0
DWIDTH 25 0
BBX 22 32 2 -11
BITMAP
00F800
07FF80
1FFFC0
3F0FE0
3E07F0
7E03F8
7C01F8
FC01FC
FC01FC
FC01FC
FC01FC
FC01FC
FC01FC
FE01F8
FE01F8
FF03F8
FF03F0
FFCFE0
FFFFC0
E7FF00
E00000
F00000
F80000
FE0000
7FFE00
7FFFC0
3FFFE0
3FFFE0
1FFFF0
07FFF0
0003F0
000070
ENDCHAR
STARTCHAR 03F2
ENCODING 1010
SWIDTH 450 0
DWIDTH 20 0
BBX 18 21 2 0
BITMAP
00F000
07FF00
1FFF80
3F0F80
7E0F80
7E0780
FC0780
FC0780
FC0000
FC0000
FC0000
FC0000
FC0000
FC0000
FE0000
FE0000
7F0080
7F8180
3FFFC0
1FFF80
07FE00
ENDCHAR
STARTCHAR 03F4
ENCODING 1012
SWIDTH 742 0
DWIDTH 33 0
BBX 30 30 2 0
BITMAP
007FF000
01FFFE00
07F1FF00
0FC03F80
1F801FC0
3F000FE0
3F000FF0
7E0007F0
7E0007F8
FE0003F8
FE0003F8
FE0003F8
FC0003FC
FFFFFFFC
FFFFFFFC
FFFFFFFC
FE0001FC
FE0001F8
FE0003F8
FE0003F8
FE0003F8
7F0003F0
7F0003F0
3F8007E0
3F8007E0
1FC00FC0
0FE01F80
07FEFF00
01FFFC00
007FF000
ENDCHAR
STARTCHAR 03F6
ENCODING 1014
SWIDTH 450 0
DWIDTH 20 0
BBX 18 21 1 0
BITMAP
01C000
7FFC00
7FFE00
7C7F00
783F80
701FC0
701FC0
000FC0
000FC0
07FFC0
07FFC0
0FFFC0
000FC0
000FC0
201FC0
F01F80
F01F80
F03F00
FFFE00
FFFC00
3FF000
ENDCHAR
STARTCHAR 03F7
ENCODING 1015
SWIDTH 630 0
DWIDTH 28 0
BBX 25 30 2 0
BITMAP
FFF80000
FFF80000
FFF80000
1FC00000
1FC00000
1FC00000
1FFFE000
1FFFFC00
1FFFFE00
1FC0FE00
1FC07F00
1FC03F00
1FC03F80
1FC03F80
1FC03F80
1FC03F80
1FC03F00
1FC03F00
1FC03F00
1FC07E00
1FC3FC00
1FDFF800
1FDFE000
1FC00000
1FC00000
1FC00000
1FE00000
FFFC0000
FFFC0000
FFFE0000
ENDCHAR
STARTCHAR 03F8
ENCODING 1016
SWIDTH 607 0
DWIDTH 27 0
BBX 25 43 1 -11
BITMAP
00800000
3FC00000
FFC00000
FFC00000
3FC00000
1FC00000
1FC00000
0FC00000
0FC00000
0FC00000
0FC00000
0FC1E000
0FCFF800
0FDFFE00
0FFFFF00
0FF07F00
0FE07F80
0FE03F80
0FC03F80
0FC03F80
0FC01F80
0FC01F80
0FC01F80
0FC01F80
0FC03F80
0FC03F00
0FC03F00
0FC07E00
0FC0FC00
0FF1F800
0FFFF000
0FFFC000
0FC00000
0FC00000
0FC00000
0FC00000
0FC00000
1FC00000
1FC00000
1FC00000
1F800000
1E000000
08000000
ENDCHAR
STARTCHAR 03F9
ENCODING 1017
SWIDTH 630 0
DWIDTH 28 0
BBX 25 30 2 0
BITMAP
007FF800
01FFFF00
07F87F00
0FE01F00
1F800F00
3F800F00
3F000F00
7F000F00
7E000F00
FE000000
FE000000
FE000000
FE000000
FE000000
FE000000
FE000000
FE000000
FE000000
FE000000
FE000000
FF000000
7F000000
7F800000
3F800000
3FC00000
1FF00180
0FFC0F80
07FFFF00
01FFFC00
007FF000
ENDCHAR
STARTCHAR 0400
ENCODING 1024
SWIDTH 607 0
DWIDTH 27 0
BBX 24 39 2 0
BITMAP
01F000
01F000
00F000
007800
007800
003C00
000000
000000
000000
FFFFFC
FFFFFC
FFFFFC
1FC07C
1FC03C
1FC01E
1FC01E
1FC01C
1FC000
1FC000
1FC1C0
1FC1C0
1FC1C0
1FC7C0
1FFFC0
1FFFC0
1FC7C0
1FC1C0
1FC1C0
1FC1C0
1FC000
1FC000
1FC007
1FC00F
1FC00F
1FC01F
3FE03F
FFFFFE
FFFFFE
FFFFFE
ENDCHAR
STARTCHAR 0401
ENCODING 1025
SWIDTH 607 0
DWIDTH 27 0
BBX 24 39 2 0
BITMAP
0F03C0
1F87E0
1FC7F0
1FC7F0
1FC7F0
0F83E0
000000
000000
000000
FFFFFC
FFFFFC
FFFFFC
1FC07C
1FC03C
1FC01E
1FC01E
1FC01C
1FC000
1FC000
1FC1C0
1FC1C0
1FC1C0
1FC7C0
1FFFC0
1FFFC0
1FC7C0
1FC1C0
1FC1C0
1FC1C0
1FC000
1FC000
1FC007
1FC00F
1FC00F
1FC01F
3FE03F
FFFFFE
FFFFFE
FFFFFE
ENDCHAR
STARTCHAR 0402
ENCODING 1026
SWIDTH 787 0
DWIDTH 35 0
BBX 33 30 1 0
BITMAP
7FFFFFC000
7FFFFFC000
7FFFFFC000
7C3F83C000
783F83E000
F03F81E000
F03F81E000
F03F81E000
003F800000
003F800000
003F800000
003F800000
003F800000
003FFFF000
003FFFFC00
003FFFFE00
003F80FF00
003F807F00
003F803F80
003F803F80
003F803F80
003F803F80
003F803F80
003F803F80
003F803F80
003F803F00
003F807F00
01FFE3FE00
01FFE3FE00
01FFE3F800
ENDCHAR
STARTCHAR 0403
ENCODING 1027
SWIDTH 585 0
DWIDTH 26 0
BBX 23 42 2 0
BITMAP
000780
001F80
001F00
001E00
003E00
003C00
003800
007800
003000
000000
000000
000000
FFFFFC
FFFFFC
FFFFFC
1FC07C
1FC03C
1FC01C
1FC01E
1FC01C
1FC000
1FC000
1FC000
1FC000
1FC000
1FC000
1FC000
1FC000
1FC000
1FC000
1FC000
1FC000
1FC000
1FC000
1FC000
1FC000
1FC000
1FC000
1FE000
FFFC00
FFFC00
FFFE00
ENDCHAR
STARTCHAR 0404
ENCODING 1028
SWIDTH 630 0
DWIDTH 28 0
BBX 24 30 2 0
BITMAP
00FFF8
03FFFE
07F0FF
0FC03F
1F801F
3F000F
7F000F
7E000F
7E000F
FE0000
FE0000
FE0000
FE0000
FFFFE0
FFFFE0
FFFFE0
FE7FE0
FE0000
FE0000
FE0000
FE0000
7E0007
7F0007
7F000F
3F800F
1FC00F
0FE01F
07F8FF
03FFFE
007FF8
ENDCHAR
STARTCHAR 0405
ENCODING 1029
SWIDTH 540 0
DWIDTH 24 0
BBX 21 30 2 0
BITMAP
07FF80
0FFFE0
1F9FE0
3E07E0
7C03E0
7C01E0
7C01E0
7E01E0
7E0100
7F0000
7FC000
7FF000
3FFC00
3FFF00
1FFFC0
0FFFE0
03FFF0
00FFF0
003FF8
000FF8
1807F8
7803F8
7801F8
7801F8
F801F8
FC01F0
FE03F0
FFFFE0
7FFFC0
0FFF00
ENDCHAR
STARTCHAR 0406
ENCODING 1030
SWIDTH 360 0
DWIDTH 16 0
BBX 13 30 2 0
BITMAP
FFF8
FFF8
FFF8
1FC0
1FC0
1FC0
1FC0
1FC0
1FC0
1FC0
1FC0
1FC0
1FC0
1FC0
1FC0
1FC0
1FC0
1FC0
1FC0
1FC0
1FC0
1FC0
1FC0
1FC0
1FC0
1FC0
1FC0
FFF8
FFF8
FFF8
ENDCHAR
STARTCHAR 0407
ENCODING 1031
SWIDTH 360 0
DWIDTH 16 0
BBX 15 38 1 0
BITMAP
787C
FC7E
FEFE
FEFE
FC7E
783C
0000
0000
7FFC
7FFC
7FFC
0FE0
0FE0
0FE0
0FE0
0FE0
0FE0
0FE0
0FE0
0FE0
0FE0
0FE0
0FE0
0FE0
0FE0
0FE0
0FE0
0FE0
0FE0
0FE0
0FE0
0FE0
0FE0
0FE0
0FE0
7FFC
7FFC
7FFC
ENDCHAR
STARTCHAR 0408
ENCODING 1032
SWIDTH 360 0
DWIDTH 16 0
BBX 15 41 0 -11
BITMAP
7FFE
7FFC
3FFC
0FF0
0FE0
07E0
07E0
07E0
07E0
07E0
07E0
07E0
07E0
07E0
07E0
07E0
07E0
07E0
07E0
07E0
07E0
07E0
07E0
07E0
07E0
07E0
07E0
07E0
07E0
07E0
0FE0
0FC0
0FC0
0FC0
1F80
1F80
3F00
7E00
FC00
F000
C000
ENDCHAR
STARTCHAR 0409
ENCODING 1033
SWIDTH 945 0
DWIDTH 42 0
BBX 39 30 1 0
BITMAP
07FFFFF000
07FFFFF000
07FFFFE000
00F07F8000
00707F0000
00703F0000
00703F0000
00703F0000
00603F0000
00603F0000
00603F0000
00E03F0000
00E03F0000
00E03FFF80
00E03FFFF0
00E03FFFF8
00E03F07FC
00E03F03FC
01C03F01FE
01C03F01FE
01C03F01FE
01C03F00FE
03C03F00FE
07C03F01FE
FF803F01FE
FF807F81FC
FF807F83F8
FF01FFFFF0
FE03FFFFE0
FC03FFFF00
ENDCHAR
STARTCHAR 040A
ENCODING 1034
SWIDTH 1012 0
DWIDTH 45 0
BBX 41 30 2 0
BITMAP
FFF87FFE0000
FFF87FFE0000
FFF87FFE0000
1FC01FF00000
1FC00FE00000
1FC00FE00000
1FC00FC00000
1FC00FC00000
1FC00FC00000
1FC00FC00000
1FC00FC00000
1FC00FC00000
1FC00FC00000
1FFFFFFFE000
1FFFFFFFFC00
1FFFFFFFFE00
1FC00FC0FF00
1FC00FC07F80
1FC00FC07F80
1FC00FC03F80
1FC00FC03F80
1FC00FC03F80
1FC00FC03F80
1FC00FC03F80
1FC00FE07F80
1FC00FE07F00
1FC01FE0FF00
FFF87FFFFE00
FFF87FFFF800
FFF87FFFC000
ENDCHAR
STARTCHAR 040B
ENCODING 1035
SWIDTH 855 0
DWIDTH 38 0
BBX 36 30 1 0
BITMAP
7FFFFFC000
7FFFFFC000
7FFFFFC000
7C3F83C000
783F83E000
F03F81E000
F03F81E000
F03F81E000
003F800000
003F800000
003F800000
003F800000
003F800000
003FFFF800
003FFFFC00
003FFFFE00
003F80FF00
003F807F00
003F803F00
003F803F80
003F803F80
003F803F80
003F803F80
003F803F80
003F803F80
003F803F80
003FC03FC0
01FFF1FFF0
01FFF1FFF0
01FFF1FFF0
ENDCHAR
STARTCHAR 040C
ENCODING 1036
SWIDTH 720 0
DWIDTH 32 0
BBX 31 42 2 0
BITMAP
00007800
0001F000
0001F000
0003E000
0003C000
00078000
00078000
00070000
00060000
00000000
00000000
00000000
FFF83FF8
FFF83FF0
FFF81FF0
1FC00F80
1FC01F00
1FC01E00
1FC03C00
1FC07800
1FC0F000
1FC0E000
1FC1C000
1FC3C000
1FC78000
1FCFC000
1FCFC000
1FDFE000
1FCFF000
1FC7F000
1FC7F800
1FC3FC00
1FC1FE00
1FC1FE00
1FC0FF00
1FC07F80
1FC07FC0
1FC03FE0
1FC01FF0
FFF81FFE
FFF80FFE
FFF807FC
ENDCHAR
STARTCHAR 040D
ENCODING 1037
SWIDTH 765 0
DWIDTH 34 0
BBX 31 39 2 0
BITMAP
001E0000
003E0000
001F0000
000F0000
00078000
00038000
00000000
00000000
00000000
FFF807FE
FFF807FE
FFF80FFC
1FC00FF0
1FC01FF0
1FC01FE0
1FC03FE0
1FC03FE0
1FC077E0
1FC077E0
1FC0E7E0
1FC0E7E0
1FC1C7E0
1FC1C7E0
1FC387E0
1FC787E0
1FC707E0
1FCF07E0
1FCE07E0
1FDC07E0
1FDC07E0
1FF807E0
1FF807E0
1FF007E0
1FF007E0
1FE007F0
1FE00FF0
FFC03FFC
FFC03FFE
FF803FFE
ENDCHAR
STARTCHAR 040E
ENCODING 1038
SWIDTH 675 0
DWIDTH 30 0
BBX 29 39 1 0
BITMAP
01F00F80
01F00F80
01F01F80
00F81F00
00FFFE00
003FFC00
00038000
00000000
00000000
FFF80FF8
FFF00FF0
FFF00FF0
3FC003E0
1FC003C0
1FE00380
0FE00380
07F00700
07F80700
03F80E00
01FC0E00
01FC1C00
00FE1C00
00FF3800
007F3800
003FF000
003FF000
001FE000
001FE000
000FC000
000FC000
00078000
00078000
000F0000
001F0000
1FFE0000
1FFE0000
1FFC0000
1FF80000
0FF00000
ENDCHAR
STARTCHAR 040F
ENCODING 1039
SWIDTH 765 0
DWIDTH 34 0
BBX 30 38 2 -8
BITMAP
FFF87FFC
FFF87FFC
FFF87FFC
1FC00FF0
1FC00FE0
1FC00FE0
1FC00FE0
1FC00FE0
1FC00FE0
1FC00FE0
1FC00FE0
1FC00FE0
1FC00FE0
1FC00FE0
1FC00FE0
1FC00FE0
1FC00FE0
1FC00FE0
1FC00FE0
1FC00FE0
1FC00FE0
1FC00FE0
1FC00FE0
1FC00FE0
1FC00FE0
1FC00FE0
1FC00FF0
FFFFFFFC
FFFFFFFC
FFFFFFFC
000FC000
000FC000
0007C000
00078000
00078000
00078000
00078000
00078000
ENDCHAR
STARTCHAR 0410
ENCODING 1040
SWIDTH 697 0
DWIDTH 31 0
BBX 30 30 1 0
BITMAP
00070000
000F0000
000F8000
000F8000
001FC000
001FC000
003FE000
003FE000
0037F000
0077F000
0067F000
00E3F800
00E3F800
01C1FC00
01C1FC00
01C1FE00
0380FE00
0380FF00
07007F00
07FFFF00
07FFFF80
0FFFBF80
0E003FC0
1C001FC0
1C001FE0
3C000FE0
3C000FF0
FF003FFC
FF007FFC
FF007FFC
ENDCHAR
STARTCHAR 0411
ENCODING 1041
SWIDTH 652 0
DWIDTH 29 0
BBX 26 30 2 0
BITMAP
FFFFFC00
FFFFFC00
FFFFFC00
1FC07E00
1FC01E00
1FC01E00
1FC00E00
1FC00E00
1FC00000
1FC00000
1FC00000
1FC00000
1FC00000
1FFFE000
1FFFFC00
1FFFFE00
1FC0FF00
1FC07F80
1FC07F80
1FC03F80
1FC03FC0
1FC03FC0
1FC03FC0
1FC03F80
1FC03F80
1FC07F80
3FE0FF00
FFFFFE00
FFFFF800
FFFFC000
ENDCHAR
STARTCHAR 0412
ENCODING 1042
SWIDTH 652 0
DWIDTH 29 0
BBX 26 30 2 0
BITMAP
FFFFE000
FFFFF800
FFFFFE00
1FC1FE00
1FC0FF00
1FC07F00
1FC07F00
1FC07F00
1FC07F00
1FC07E00
1FC07E00
1FC0FC00
1FC3F800
1FFFC000
1FFFFC00
1FFFFE00
1FC1FF00
1FC07F80
1FC03F80
1FC03FC0
1FC03FC0
1FC01FC0
1FC03FC0
1FC03FC0
1FC03F80
1FC03F80
3FE0FF00
FFFFFE00
FFFFFC00
FFFFC000
ENDCHAR
STARTCHAR 0413
ENCODING 1043
SWIDTH 585 0
DWIDTH 26 0
BBX 23 30 2 0
BITMAP
FFFFFC
FFFFFC
FFFFFC
1FC07C
1FC03C
1FC01C
1FC01E
1FC01C
1FC000
1FC000
1FC000
1FC000
1FC000
1FC000
1FC000
1FC000
1FC000
1FC000
1FC000
1FC000
1FC000
1FC000
1FC000
1FC000
1FC000
1FC000
1FE000
FFFC00
FFFC00
FFFE00
ENDCHAR
STARTCHAR 0414
ENCODING 1044
SWIDTH 742 0
DWIDTH 33 0
BBX 30 38 1 -8
BITMAP
07FFFFF0
07FFFFF0
03FFFFF0
00703FC0
00703F80
00703F80
00703F80
00703F80
00703F80
00703F80
00703F80
00703F80
00603F80
00E03F80
00E03F80
00E03F80
00E03F80
00E03F80
00E03F80
01E03F80
01C03F80
01C03F80
03C03F80
03C03F80
03803F80
07803F80
0F003FC0
7FFFFFFC
FFFFFFFC
FFFFFFFC
F800007C
F800007C
F800007C
F800007C
F800003C
F800003C
F800003C
F800003C
ENDCHAR
STARTCHAR 0415
ENCODING 1045
SWIDTH 607 0
DWIDTH 27 0
BBX 24 30 2 0
BITMAP
FFFFFC
FFFFFC
FFFFFC
1FC07C
1FC03C
1FC01E
1FC01E
1FC01C
1FC000
1FC000
1FC1C0
1FC1C0
1FC1C0
1FC7C0
1FFFC0
1FFFC0
1FC7C0
1FC1C0
1FC1C0
1FC1C0
1FC000
1FC000
1FC007
1FC00F
1FC00F
1FC01F
3FE03F
FFFFFE
FFFFFE
FFFFFE
ENDCHAR
STARTCHAR 0416
ENCODING 1046
SWIDTH 1057 0
DWIDTH 47 0
BBX 45 30 1 0
BITMAP
7FF0FFF87FF0
7FF0FFF87FF0
3FF07FF87FF0
07C01FE01F00
01E01FC01E00
00E01FC03C00
00701FC07800
00781FC0F000
003C1FC1E000
001E1FC1C000
000E1FC38000
00071FC78000
000F9FCF8000
001FDFDFC000
001FDFDFC000
003FDFCFE000
003F9FCFF000
007F1FC7F000
00FF1FC7F800
00FE1FC3F800
01FE1FC3FC00
01FC1FC1FC00
03FC1FC0FE00
07F81FC0FF00
07F81FC07F00
0FF01FC07F80
1FE01FE03FE0
FFE07FF83FF8
FFC0FFF81FF8
FFC0FFF81FF8
ENDCHAR
STARTCHAR 0417
ENCODING 1047
SWIDTH 585 0
DWIDTH 26 0
BBX 22 30 2 0
BITMAP
0FFF00
7FFFC0
7FBFF0
7E07F0
7C07F8
7803F8
7803F8
7803F8
0003F8
0003F0
0007F0
000FE0
003F80
01FC00
01FF80
01FFE0
001FF0
0007F8
0003FC
0001FC
0001FC
7801FC
7801FC
7801FC
7801FC
FC03F8
FE07F8
FFFFF0
7FFFC0
0FFF00
ENDCHAR
STARTCHAR 0418
ENCODING 1048
SWIDTH 765 0
DWIDTH 34 0
BBX 31 30 2 0
BITMAP
FFF807FE
FFF807FE
FFF80FFC
1FC00FF0
1FC01FF0
1FC01FE0
1FC03FE0
1FC03FE0
1FC077E0
1FC077E0
1FC0E7E0
1FC0E7E0
1FC1C7E0
1FC1C7E0
1FC387E0
1FC787E0
1FC707E0
1FCF07E0
1FCE07E0
1FDC07E0
1FDC07E0
1FF807E0
1FF807E0
1FF007E0
1FF007E0
1FE007F0
1FE00FF0
FFC03FFC
FFC03FFE
FF803FFE
ENDCHAR
STARTCHAR 0419
ENCODING 1049
SWIDTH 765 0
DWIDTH 34 0
BBX 31 39 2 0
BITMAP
03E00F80
03E01F00
01F01F00
01F83E00
00FFFE00
007FF800
00078000
00000000
00000000
FFF807FE
FFF807FE
FFF80FFC
1FC00FF0
1FC01FF0
1FC01FE0
1FC03FE0
1FC03FE0
1FC077E0
1FC077E0
1FC0E7E0
1FC0E7E0
1FC1C7E0
1FC1C7E0
1FC387E0
1FC787E0
1FC707E0
1FCF07E0
1FCE07E0
1FDC07E0
1FDC07E0
1FF807E0
1FF807E0
1FF007E0
1FF007E0
1FE007F0
1FE00FF0
FFC03FFC
FFC03FFE
FF803FFE
ENDCHAR
STARTCHAR 041A
ENCODING 1050
SWIDTH 742 0
DWIDTH 33 0
BBX 31 30 2 0
BITMAP
FFF83FF8
FFF83FF0
FFF81FF0
1FC00F80
1FC01F00
1FC01E00
1FC03C00
1FC07800
1FC0F000
1FC0E000
1FC1C000
1FC3C000
1FC78000
1FCFC000
1FCFC000
1FDFE000
1FCFF000
1FC7F000
1FC7F800
1FC3FC00
1FC1FE00
1FC1FE00
1FC0FF00
1FC07F80
1FC07FC0
1FC03FE0
1FC01FF0
FFF81FFE
FFF80FFE
FFF807FC
ENDCHAR
STARTCHAR 041B
ENCODING 1051
SWIDTH 697 0
DWIDTH 31 0
BBX 28 30 1 0
BITMAP
07FFFFF0
07FFFFF0
07FFFFF0
00F01FC0
00701F80
00701F80
00701F80
00701F80
00601F80
00601F80
00601F80
00E01F80
00E01F80
00E01F80
00E01F80
00E01F80
00E01F80
00E01F80
01E01F80
01C01F80
01C01F80
01C01F80
03C01F80
07C03F80
FF803F80
FF803F80
FF803FC0
FF00FFF0
FE01FFF0
FC01FFF0
ENDCHAR
STARTCHAR 041C
ENCODING 1052
SWIDTH 945 0
DWIDTH 42 0
BBX 41 30 1 0
BITMAP
3FF00007FE00
3FF00007FE00
3FF8000FFE00
07F8000FF000
07FC000FF000
07FC001FF000
07FE001FF000
07FE003FF000
07FE003FF000
07FF003FF000
077F0077F000
077F8073F000
073F8073F000
073FC0E3F800
061FC0E3F800
0E1FE1C3F800
0E0FE1C3F800
0E0FE1C3F800
0E07F383F800
0E07F383F800
0E07FB01F800
0E03FF01F800
0E03FF01F800
0E01FE01FC00
1E01FE01FC00
1E00FC01FC00
3E00FC03FE00
FFC07C0FFF80
FFC0780FFF80
FFC0780FFF80
ENDCHAR
STARTCHAR 041D
ENCODING 1053
SWIDTH 765 0
DWIDTH 34 0
BBX 31 30 2 0
BITMAP
FFF83FFE
FFF83FFE
FFF83FFC
1FC00FF0
1FC007F0
1FC007E0
1FC007E0
1FC007E0
1FC007E0
1FC007E0
1FC007E0
1FC007E0
1FC007E0
1FFFFFE0
1FFFFFE0
1FFFFFE0
1FC007E0
1FC007E0
1FC007E0
1FC007E0
1FC007E0
1FC007E0
1FC007E0
1FC007E0
1FC007E0
1FC007F0
1FC00FF0
FFF83FFC
FFF83FFE
FFF83FFE
ENDCHAR
STARTCHAR 041E
ENCODING 1054
SWIDTH 742 0
DWIDTH 33 0
BBX 30 30 2 0
BITMAP
007FF000
01FFFE00
07F1FF00
0FC03F80
1F801FC0
3F000FE0
3F000FF0
7E0007F0
7E0007F8
FE0003F8
FE0003F8
FE0003F8
FC0003FC
FC0001FC
FC0001FC
FE0001FC
FE0001FC
FE0001F8
FE0003F8
FE0003F8
FE0003F8
7F0003F0
7F0003F0
3F8007E0
3F800FE0
1FC00FC0
0FF01F80
07FEFF00
01FFFC00
007FF000
ENDCHAR
STARTCHAR 041F
ENCODING 1055
SWIDTH 765 0
DWIDTH 34 0
BBX 30 30 2 0
BITMAP
FFFFFFFC
FFFFFFFC
FFFFFFFC
1FC00FF0
1FC00FE0
1FC00FE0
1FC00FE0
1FC00FE0
1FC00FE0
1FC00FE0
1FC00FE0
1FC00FE0
1FC00FE0
1FC00FE0
1FC00FE0
1FC00FE0
1FC00FE0
1FC00FE0
1FC00FE0
1FC00FE0
1FC00FE0
1FC00FE0
1FC00FE0
1FC00FE0
1FC00FE0
1FC00FE0
1FC00FF0
FFF87FFC
FFF87FFC
FFF87FFC
ENDCHAR
STARTCHAR 0420
ENCODING 1056
SWIDTH 630 0
DWIDTH 28 0
BBX 25 30 2 0
BITMAP
FFFFE000
FFFFF800
FFFFFE00
1FC1FE00
1FC0FF00
1FC07F00
1FC07F80
1FC03F80
1FC03F80
1FC03F80
1FC03F80
1FC03F80
1FC03F00
1FC07F00
1FC07E00
1FC0FE00
1FC1FC00
1FDFF800
1FDFE000
1FC70000
1FC00000
1FC00000
1FC00000
1FC00000
1FC00000
1FC00000
1FE00000
FFFC0000
FFFC0000
FFFE0000
ENDCHAR
STARTCHAR 0421
ENCODING 1057
SWIDTH 630 0
DWIDTH 28 0
BBX 25 30 2 0
BITMAP
007FF800
01FFFF00
07F87F00
0FE01F00
1F800F00
3F800F00
3F000F00
7F000F00
7E000F00
FE000000
FE000000
FE000000
FE000000
FE000000
FE000000
FE000000
FE000000
FE000000
FE000000
FE000000
FF000000
7F000000
7F800000
3F800000
3FC00000
1FF00180
0FFC0F80
07FFFF00
01FFFC00
007FF000
ENDCHAR
STARTCHAR 0422
ENCODING 1058
SWIDTH 652 0
DWIDTH 29 0
BBX 27 30 1 0
BITMAP
7FFFFFC0
7FFFFFC0
7FFFFFC0
7C3F87C0
783F83E0
F03F81E0
F03F81E0
F03F81E0
003F8000
003F8000
003F8000
003F8000
003F8000
003F8000
003F8000
003F8000
003F8000
003F8000
003F8000
003F8000
003F8000
003F8000
003F8000
003F8000
003F8000
003F8000
007FC000
03FFF800
03FFF800
03FFF800
ENDCHAR
STARTCHAR 0423
ENCODING 1059
SWIDTH 675 0
DWIDTH 30 0
BBX 29 30 1 0
BITMAP
FFF80FF8
FFF00FF0
FFF00FF0
3FC003E0
1FC003C0
1FE00380
0FE00380
07F00700
07F80700
03F80E00
01FC0E00
01FC1C00
00FE1C00
00FF3800
007F3800
003FF000
003FF000
001FE000
001FE000
000FC000
000FC000
00078000
00078000
000F0000
001F0000
1FFE0000
1FFE0000
1FFC0000
1FF80000
0FF00000
ENDCHAR
STARTCHAR 0424
ENCODING 1060
SWIDTH 855 0
DWIDTH 38 0
BBX 35 32 2 0
BITMAP
003FFF8000
003FFF8000
003FFF8000
0007FC0000
0003F80000
0003F00000
007FFF8000
03FFFFF800
0FFFFFFE00
1FC3F0FF00
3F83F07F80
7F03F03FC0
FE03F01FC0
FE03F01FE0
FC03F00FE0
FC03F00FE0
FC03F00FE0
FE03F00FE0
FE03F00FC0
FE03F01FC0
7F03F01F80
7F83F03F80
3FC3F07F00
0FFFF7FC00
07FFFFF800
00FFFFC000
0003F00000
0003F80000
0007F80000
003FFF8000
003FFF8000
007FFF8000
ENDCHAR
STARTCHAR 0425
ENCODING 1061
SWIDTH 697 0
DWIDTH 31 0
BBX 29 30 1 0
BITMAP
7FFC3FF0
7FFC3FF0
7FFC1FF0
1FF00FC0
0FF00F80
07F80F00
07F80E00
03FC1C00
01FE3C00
01FE3800
00FF7000
007FF000
007FE000
003FC000
001FC000
001FE000
001FF000
003FF000
007FF800
0073FC00
00E3FC00
01E1FE00
01C1FE00
0380FF00
07807F80
0F007F80
1F007FC0
7FC1FFF8
FFE1FFF8
FFE1FFF8
ENDCHAR
STARTCHAR 0426
ENCODING 1062
SWIDTH 810 0
DWIDTH 36 0
BBX 33 38 2 -8
BITMAP
FFF87FFC00
FFF87FFC00
FFF87FFC00
1FC00FF000
1FC00FE000
1FC00FE000
1FC00FE000
1FC00FE000
1FC00FE000
1FC00FE000
1FC00FE000
1FC00FE000
1FC00FE000
1FC00FE000
1FC00FE000
1FC00FE000
1FC00FE000
1FC00FE000
1FC00FE000
1FC00FE000
1FC00FE000
1FC00FE000
1FC00FE000
1FC00FE000
1FC00FE000
1FC00FE000
1FC00FF000
FFFFFFFF00
FFFFFFFF80
FFFFFFFF80
0000000F80
0000000F80
0000000F00
0000000F00
0000000F00
0000000F00
0000000F00
0000000F00
ENDCHAR
STARTCHAR 0427
ENCODING 1063
SWIDTH 720 0
DWIDTH 32 0
BBX 30 30 1 0
BITMAP
FFF87FFC
FFF87FFC
7FF87FFC
1FE01FE0
1FC00FE0
1FC00FE0
0FC00FE0
0FC00FE0
0FC00FE0
0FC00FE0
0FC00FE0
0FE00FE0
0FE00FE0
07F00FE0
07F80FE0
03FFFFE0
01FFFFE0
00FFFFE0
00000FE0
00000FE0
00000FE0
00000FE0
00000FE0
00000FE0
00000FE0
00001FE0
00001FE0
0000FFFC
0001FFFC
0001FFFC
ENDCHAR
STARTCHAR 0428
ENCODING 1064
SWIDTH 1035 0
DWIDTH 46 0
BBX 43 30 2 0
BITMAP
FFF9FFF3FFE0
FFF9FFF3FFE0
FFF0FFE3FFE0
1FC03F807F00
1FC03F807F00
1FC03F807F00
1FC03F807F00
1FC03F807F00
1FC03F807F00
1FC03F807F00
1FC03F807F00
1FC03F807F00
1FC03F807F00
1FC03F807F00
1FC03F807F00
1FC03F807F00
1FC03F807F00
1FC03F807F00
1FC03F807F00
1FC03F807F00
1FC03F807F00
1FC03F807F00
1FC03F807F00
1FC03F807F00
1FC03F807F00
1FC03F807F00
1FC03F807F00
FFFFFFFFFFE0
FFFFFFFFFFE0
FFFFFFFFFFE0
ENDCHAR
STARTCHAR 0429
ENCODING 1065
SWIDTH 1102 0
DWIDTH 49 0
BBX 46 38 2 -8
BITMAP
FFF9FFF3FFE0
FFF9FFF3FFE0
FFF0FFE3FFE0
1FC03F807F00
1FC03F807F00
1FC03F807F00
1FC03F807F00
1FC03F807F00
1FC03F807F00
1FC03F807F00
1FC03F807F00
1FC03F807F00
1FC03F807F00
1FC03F807F00
1FC03F807F00
1FC03F807F00
1FC03F807F00
1FC03F807F00
1FC03F807F00
1FC03F807F00
1FC03F807F00
1FC03F807F00
1FC03F807F00
1FC03F807F00
1FC03F807F00
1FC03F807F00
1FC03F807F00
FFFFFFFFFFF8
FFFFFFFFFFF8
FFFFFFFFFFFC
0000000000F8
0000000000F8
000000000078
000000000078
000000000078
000000000078
000000000078
000000000078
ENDCHAR
STARTCHAR 042A
ENCODING 1066
SWIDTH 765 0
DWIDTH 34 0
BBX 32 30 1 0
BITMAP
7FFFF800
7FFFF800
7FFFF800
7C3FC000
783F8000
F03F8000
F03F0000
F03F0000
003F0000
003F0000
003F0000
003F0000
003F0000
003FFFC0
003FFFF0
003FFFF8
003F03FC
003F01FE
003F00FE
003F00FE
003F00FF
003F00FF
003F00FF
003F00FE
003F00FE
007F81FE
007F81FC
01FFFFF8
01FFFFF0
03FFFF80
ENDCHAR
STARTCHAR 042B
ENCODING 1067
SWIDTH 922 0
DWIDTH 41 0
BBX 38 30 2 0
BITMAP
FFFE007FFC
FFFC007FFC
FFFC007FFC
1FE0000FE0
1FC0000FE0
1FC0000FE0
1FC0000FE0
1FC0000FE0
1FC0000FE0
1FC0000FE0
1FC0000FE0
1FC0000FE0
1FC0000FE0
1FFFE00FE0
1FFFF80FE0
1FFFFC0FE0
1FC1FE0FE0
1FC0FF0FE0
1FC07F0FE0
1FC07F0FE0
1FC07F0FE0
1FC07F0FE0
1FC07F0FE0
1FC07F0FE0
1FC07F0FE0
1FC0FE0FE0
3FE0FE0FE0
FFFFFC7FFC
FFFFF07FFC
FFFF807FFC
ENDCHAR
STARTCHAR 042C
ENCODING 1068
SWIDTH 652 0
DWIDTH 29 0
BBX 26 30 2 0
BITMAP
FFFE0000
FFFC0000
FFFC0000
1FE00000
1FC00000
1FC00000
1FC00000
1FC00000
1FC00000
1FC00000
1FC00000
1FC00000
1FC00000
1FFFF000
1FFFFC00
1FFFFF00
1FC0FF80
1FC07F80
1FC03FC0
1FC03FC0
1FC03FC0
1FC03FC0
1FC03FC0
1FC03FC0
1FC03F80
1FC07F80
3FE0FF00
FFFFFE00
FFFFF800
FFFFC000
ENDCHAR
STARTCHAR 042D
ENCODING 1069
SWIDTH 630 0
DWIDTH 28 0
BBX 25 30 2 0
BITMAP
0FFF8000
7FFFE000
7F0FF000
7C03F800
7801FC00
7800FE00
7000FE00
70007F00
70007F00
00007F00
00007F80
00003F80
00003F80
03FFFF80
03FFFF80
03FFFF80
03FC3F80
00003F80
00003F80
00007F00
00007F00
F0007F00
F0007E00
F000FE00
F000FC00
F801FC00
FC03F800
FF0FF000
7FFFC000
0FFF0000
ENDCHAR
STARTCHAR 042E
ENCODING 1070
SWIDTH 1035 0
DWIDTH 46 0
BBX 43 30 2 0
BITMAP
FFF801FFC000
FFF807FFF000
FFF81FC7FC00
1FC03F01FE00
1FC07E007F00
1FC0FC007F80
1FC0FC003F80
1FC1FC001FC0
1FC1F8001FC0
1FC3F8001FE0
1FC3F8000FE0
1FC3F8000FE0
1FC3F8000FE0
1FFFF8000FE0
1FFFF8000FE0
1FFFF8000FE0
1FC3F8000FE0
1FC3F8000FE0
1FC3F8000FE0
1FC3F8000FE0
1FC3FC000FC0
1FC1FC000FC0
1FC1FC001FC0
1FC0FE001F80
1FC0FE003F00
1FC07F007F00
1FC03F80FE00
FFF81FF7F800
FFF807FFF000
FFF801FFC000
ENDCHAR
STARTCHAR 042F
ENCODING 1071
SWIDTH 675 0
DWIDTH 30 0
BBX 29 30 0 0
BITMAP
001FFFF8
00FFFFF8
01FF7FF8
03F81FE0
07F01FC0
07F01FC0
0FE01FC0
0FE01FC0
0FE01FC0
0FE01FC0
07F01FC0
07F01FC0
03F81FC0
03FC1FC0
00FFBFC0
007FFFC0
003FFFC0
007F9FC0
007F1FC0
00FF1FC0
00FE1FC0
01FE1FC0
03FC1FC0
03F81FC0
07F81FC0
0FF01FC0
1FF01FE0
FFE07FF8
FFE07FF8
7FC0FFF8
ENDCHAR
STARTCHAR 0430
ENCODING 1072
SWIDTH 495 0
DWIDTH 22 0
BBX 21 21 1 0
BITMAP
007800
03FE00
0FFF00
1CFF80
3C3F80
7C1FC0
FC1FC0
FC1FC0
301FC0
007FC0
01FFC0
07DFC0
3F1FC0
7C1FC0
FC1FC0
FC1FC0
FE1FC0
FE1FF8
FFFFF8
7FEFF8
3F8FE0
ENDCHAR
STARTCHAR 0431
ENCODING 1073
SWIDTH 562 0
DWIDTH 25 0
BBX 23 32 1 0
BITMAP
00001E
00007E
0001FC
000FFC
003FFC
00FFF8
03FFF0
07FFE0
0F0000
1F0000
1E0000
3E0000
3E0400
7E7FC0
7EFFF0
7FFFF8
7F07F8
7E03FC
FE01FC
FE00FC
FE00FE
FE00FE
FE00FE
FE00FC
FE00FC
7E00FC
7F00FC
7F01F8
3F81F0
1FE7E0
0FFFC0
03FF00
ENDCHAR
STARTCHAR 0432
ENCODING 1074
SWIDTH 562 0
DWIDTH 25 0
BBX 22 20 2 0
BITMAP
FFFFC0
FFFFE0
7F0FF0
3F03F8
3F03F8
3F03F0
3F03F0
3F07E0
3FFF80
3FFFC0
3FFFF0
3F07F8
3F01FC
3F01FC
3F01FC
3F01FC
3F83F8
FFFFF8
FFFFE0
FFFF80
ENDCHAR
STARTCHAR 0433
ENCODING 1075
SWIDTH 472 0
DWIDTH 21 0
BBX 19 20 2 0
BITMAP
FFFFC0
FFFFC0
7F0FC0
3F03C0
3F01E0
3F01E0
3F01C0
3F0000
3F0000
3F0000
3F0000
3F0000
3F0000
3F0000
3F0000
3F8000
3F8000
FFF000
FFF000
FFF000
ENDCHAR
STARTCHAR 0434
ENCODING 1076
SWIDTH 607 0
DWIDTH 27 0
BBX 25 28 1 -8
BITMAP
1FFFFF00
0FFFFE00
0781FC00
0381F800
0381F800
0381F800
0381F800
0381F800
0381F800
0381F800
0381F800
0301F800
0701F800
0701F800
0701F800
0F01F800
1E01F800
FFFFFF80
FFFFFF80
FFFFFF80
F8000F80
F8000F80
F0000780
F0000780
F0000780
F0000780
F0000780
F0000780
ENDCHAR
STARTCHAR 0435
ENCODING 1077
SWIDTH 495 0
DWIDTH 22 0
BBX 19 21 2 0
BITMAP
01F000
07FE00
1FFF00
3F1F80
7E0FC0
7E07C0
FC07E0
FC07E0
FC07E0
FFFFE0
FFFFE0
FFFFC0
FC0000
FC0000
FE0000
FE0000
7F0040
7F81E0
3FFFE0
1FFF80
07FE00
ENDCHAR
STARTCHAR 0436
ENCODING 1078
SWIDTH 877 0
DWIDTH 39 0
BBX 38 20 1 0
BITMAP
7FE7FF9FF8
7FE7FF9FF0
1F81FE0FE0
0780FC0780
01C0FC0E00
01E0FC1E00
00F0FC3C00
0078FC7800
003CFCF000
007CFDF800
00FEFDFC00
01FEFDFC00
01FCFCFE00
03F8FC7F00
07F0FC3F80
0FF0FC3FC0
1FE1FE1FE0
FFC3FF0FFC
FFC7FF8FFC
FF87FF87F8
ENDCHAR
STARTCHAR 0437
ENCODING 1079
SWIDTH 472 0
DWIDTH 21 0
BBX 18 21 2 0
BITMAP
03C000
7FFE00
FFFF00
F83F80
F81F80
F01FC0
F01F80
001F80
007F00
07FC00
07FE00
07FF80
007FC0
001FC0
701FC0
F01FC0
F01FC0
F81FC0
FC7F80
FFFF00
7FFC00
ENDCHAR
STARTCHAR 0438
ENCODING 1080
SWIDTH 630 0
DWIDTH 28 0
BBX 25 20 2 0
BITMAP
FFE07F80
FFE0FF80
7F81FF00
3F81FE00
3F03FE00
3F03FC00
3F07FC00
3F0EFC00
3F0EFC00
3F1CFC00
3F38FC00
3F38FC00
3F70FC00
3FF0FC00
3FE0FE00
3FC0FE00
3FC0FE00
FF83FF80
FF03FF80
FF03FF80
ENDCHAR
STARTCHAR 0439
ENCODING 1081
SWIDTH 630 0
DWIDTH 28 0
BBX 25 31 2 0
BITMAP
1F007C00
1F007800
1F80F800
0F80F800
0FC1F000
07FFE000
03FFC000
003C0000
00000000
00000000
00000000
FFE07F80
FFE0FF80
7F81FF00
3F81FE00
3F03FE00
3F03FC00
3F07FC00
3F0EFC00
3F0EFC00
3F1CFC00
3F38FC00
3F38FC00
3F70FC00
3FF0FC00
3FE0FE00
3FC0FE00
3FC0FE00
FF83FF80
FF03FF80
FF03FF80
ENDCHAR
STARTCHAR 043A
ENCODING 1082
SWIDTH 607 0
DWIDTH 27 0
BBX 24 20 2 0
BITMAP
FFE7FF
FFE3FE
7FC1FC
3F80E0
3F01C0
3F0380
3F0780
3F0F00
3F1E00
3F3F00
3F7F00
3F3F80
3F1FC0
3F1FC0
3F0FE0
3F87F0
3F83FC
FFE3FF
FFE1FF
FFE0FF
ENDCHAR
STARTCHAR 043B
ENCODING 1083
SWIDTH 585 0
DWIDTH 26 0
BBX 25 20 0 0
BITMAP
07FFFF80
07FFFF00
01E0FE00
00E0FC00
00E0FC00
00E0FC00
00C0FC00
00C0FC00
00C0FC00
01C0FC00
01C0FC00
01C0FC00
0380FC00
0380FC00
0780FC00
7F81FC00
7F01FC00
FF07FF00
FE07FF80
7C07FF80
ENDCHAR
STARTCHAR 043C
ENCODING 1084
SWIDTH 742 0
DWIDTH 33 0
BBX 31 20 1 0
BITMAP
7FE007FC
3FE00FFC
1FF00FF0
0FF01FF0
0FF81FE0
0FF81FF0
0DFC3FF0
0DFC37F0
0CFC73F0
1CFE63F0
1C7EE3F0
1C7FE3F0
187FC3F0
183FC3F8
183F83F8
381F83F8
3C1F03F8
FF0F0FFE
FF0E0FFE
FF000FFE
ENDCHAR
STARTCHAR 043D
ENCODING 1085
SWIDTH 630 0
DWIDTH 28 0
BBX 25 20 2 0
BITMAP
FFE3FF80
FFE3FF80
7FC1FF00
3F80FE00
3F80FE00
3F00FE00
3F007E00
3F007E00
3FFFFE00
3FFFFE00
3FFFFE00
3F007E00
3F007E00
3F007E00
3F00FE00
3F80FE00
3F80FE00
FFE3FF80
FFE3FF80
FFE3FF80
ENDCHAR
STARTCHAR 043E
ENCODING 1086
SWIDTH 562 0
DWIDTH 25 0
BBX 22 21 2 0
BITMAP
00FC00
07FF80
1FFFC0
3F0FE0
7E07F0
7E03F8
FC03F8
FC01F8
FC01FC
FC01FC
FC01FC
FC01FC
FC01FC
FC01FC
FE01F8
FE01F8
7F03F0
7F03F0
3FCFE0
1FFFC0
07FF00
ENDCHAR
STARTCHAR 043F
ENCODING 1087
SWIDTH 630 0
DWIDTH 28 0
BBX 25 20 2 0
BITMAP
FFFFFF80
FFFFFF80
7F00FF00
3F00FE00
3F00FC00
3F00FC00
3F00FC00
3F00FC00
3F00FC00
3F00FC00
3F00FC00
3F00FC00
3F00FC00
3F00FC00
3F80FC00
3F80FE00
3F80FE00
FFE3FF80
FFE3FF80
FFE7FF80
ENDCHAR
STARTCHAR 0440
ENCODING 1088
SWIDTH 630 0
DWIDTH 28 0
BBX 25 32 2 -11
BITMAP
0103C000
3F8FF800
FFBFFC00
FFFFFE00
7FE0FF00
3F807F00
1F807F00
1F803F00
1F803F80
1F803F80
1F803F00
1F803F00
1F803F00
1F803F00
1F807F00
1F807E00
1F807C00
1F80FC00
1FE3F800
1FFFE000
1FFF8000
1F800000
1F800000
1F800000
1F800000
1F800000
1F800000
1FC00000
3FE00000
FFFC0000
FFFC0000
FFFC0000
ENDCHAR
STARTCHAR 0441
ENCODING 1089
SWIDTH 450 0
DWIDTH 20 0
BBX 18 21 2 0
BITMAP
00F000
07FF00
1FFF80
3F0F80
7E0F80
7E0780
FC0780
FC0780
FC0000
FC0000
FC0000
FC0000
FC0000
FC0000
FE0000
FE0000
7F0080
7F8180
3FFFC0
1FFF80
07FE00
ENDCHAR
STARTCHAR 0442
ENCODING 1090
SWIDTH 540 0
DWIDTH 24 0
BBX 23 20 1 0
BITMAP
FFFFFC
FFFFFC
FCFC7C
F0FC1E
E0FC1E
E0FC1E
00FC00
00FC00
00FC00
00FC00
00FC00
00FC00
00FC00
00FC00
00FC00
00FE00
00FE00
07FFC0
0FFFC0
0FFFC0
ENDCHAR
STARTCHAR 0443
ENCODING 1091
SWIDTH 540 0
DWIDTH 24 0
BBX 23 31 1 -11
BITMAP
FFF1FE
FFF1FE
7FE0FC
3FC078
1FC070
1FC070
0FE0F0
0FE0E0
07E0E0
07F1C0
07F1C0
03F980
03FB80
01FF80
01FF00
00FF00
00FE00
007E00
007C00
003C00
003C00
003800
003800
007000
007000
41E000
7FE000
7FC000
7FC000
7F8000
3F0000
ENDCHAR
ENDFONT
